<?xml version="1.0" standalone="no"?>
<!DOCTYPE svg PUBLIC "-//W3C//DTD SVG 1.1//EN" "http://www.w3.org/Graphics/SVG/1.1/DTD/svg11.dtd" >
<svg xmlns="http://www.w3.org/2000/svg">
<metadata>
Created by FontForge 20120731 at Thu Jun 20 16:39:28 2013

Copyright (c) 2010 by Leftloft. All rights reserved.
</metadata>
<defs>
<font id="LFT_Etica_Italic" horiz-adv-x="600" >
  <font-face 
    font-family="LFT Etica"
    font-weight="400"
    font-style="italic"
    font-stretch="normal"
    units-per-em="1000"
    panose-1="2 0 5 3 4 0 0 2 0 4"
    ascent="730"
    descent="-270"
    x-height="525"
    cap-height="720"
    bbox="-269 -282 2268 943"
    underline-thickness="50"
    underline-position="-50"
    slope="-9.5"
    unicode-range="U+0020-FB04"
  />
<missing-glyph horiz-adv-x="175" 
 />
    <glyph glyph-name="ff" unicode="ff" horiz-adv-x="565" 
d="M410 0h-86l76 454h-197l-76 -454h-85l76 454h-61l9 55l63 12l10 57c13 87 62 142 146 142c25 0 48 -3 70 -10l-17 -65c-14 5 -29 7 -45 7c-33 0 -61 -20 -68 -69l-10 -58h197l11 65c13 87 64 143 147 143c23 0 46 -3 68 -9l-15 -67c-14 5 -29 7 -45 7
c-33 0 -60 -20 -68 -69l-12 -70h94l-12 -71h-94z" />
    <glyph glyph-name="fi" unicode="fi" horiz-adv-x="538" 
d="M127 0h-85l76 454h-61l9 55l63 12l12 69c13 87 63 143 147 143c23 0 45 -3 68 -9l-16 -67c-14 5 -29 7 -45 7c-33 0 -61 -20 -68 -69l-12 -70h283l-88 -525h-86l76 454h-197zM423 658c0 37 30 62 65 62c29 0 48 -17 48 -45c0 -37 -26 -62 -65 -62c-29 0 -48 18 -48 45z
" />
    <glyph glyph-name="fl" unicode="fl" horiz-adv-x="533" 
d="M127 0h-85l76 454h-61l9 55l63 12l12 69c13 87 63 143 147 143c23 0 45 -3 68 -9l-16 -67c-14 5 -29 7 -45 7c-33 0 -61 -20 -68 -69l-12 -70h197l32 195h86l-120 -720h-86l76 454h-197z" />
    <glyph glyph-name="ffi" unicode="ffi" horiz-adv-x="819" 
d="M410 0h-86l76 454h-197l-76 -454h-85l76 454h-61l9 55l63 12l10 58c15 88 63 142 147 142c20 0 43 -3 69 -10l-17 -65c-14 5 -29 7 -45 7c-33 0 -61 -21 -68 -70l-10 -58h197l11 65c13 87 64 143 147 143c23 0 46 -3 68 -9l-15 -67c-14 5 -29 7 -45 7
c-33 0 -60 -20 -68 -69l-12 -70h281l-88 -525h-86l76 454h-195zM704 658c0 37 29 62 65 62c29 0 48 -17 48 -45c0 -37 -28 -62 -65 -62c-29 0 -48 18 -48 45z" />
    <glyph glyph-name="ffl" unicode="ffl" horiz-adv-x="817" 
d="M411 0h-86l76 454h-198l-76 -454h-85l76 454h-61l9 55l63 12l10 57c13 87 62 142 146 142c25 0 48 -3 70 -10l-17 -65c-14 5 -29 7 -45 7c-33 0 -61 -20 -68 -69l-10 -58h198l11 65c13 87 63 143 147 143c23 0 46 -3 68 -9l-15 -67c-14 5 -29 7 -45 7
c-33 0 -61 -20 -68 -69l-12 -70h197l32 195h86l-120 -720h-86l76 454h-197z" />
    <glyph glyph-name="ft" unicode="ft" horiz-adv-x="584" 
d="M580 525l-12 -72h-83l-58 -347c-1 -3 -1 -8 -1 -15c0 -20 11 -30 32 -30c14 0 30 3 48 9l-1 -65c-30 -11 -61 -17 -92 -17c-51 0 -76 24 -76 73c0 13 1 22 2 29l61 364h-197l-76 -454h-85l76 454h-61l9 55l63 12l12 69c13 87 63 143 147 143c23 0 45 -3 68 -9l-16 -67
c-14 5 -29 7 -45 7c-33 0 -61 -20 -68 -69l-12 -70h198l35 145h73l-24 -145h83z" />
    <glyph glyph-name="fft" unicode="fft" horiz-adv-x="864" 
d="M863 525l-12 -72h-83l-58 -347c-1 -3 -1 -8 -1 -15c0 -20 11 -30 32 -30c14 0 30 3 48 9l-1 -65c-30 -11 -61 -17 -92 -17c-51 0 -77 24 -77 73c0 8 1 18 3 29l61 364h-197l-76 -454h-86l76 454h-197l-76 -454h-85l76 454h-61l9 55l63 12l10 58c15 88 63 142 147 142
c20 0 43 -3 69 -10l-17 -65c-14 5 -29 7 -45 7c-33 0 -61 -21 -68 -70l-10 -58h197l11 65c13 87 64 143 147 143c23 0 46 -3 68 -9l-15 -67c-14 5 -29 7 -45 7c-33 0 -60 -20 -68 -69l-12 -70h198l35 145h73l-24 -145h83z" />
    <glyph glyph-name="tt" unicode="tt" horiz-adv-x="561" 
d="M561 525l-12 -72h-83l-58 -347c-1 -4 -1 -9 -1 -15c0 -21 11 -30 32 -30c14 0 30 3 48 9l-2 -65c-29 -11 -60 -17 -91 -17c-51 0 -77 24 -77 73c0 8 1 18 3 29l61 363h-178l-58 -347c-1 -3 -1 -8 -1 -15c0 -20 11 -30 32 -30c15 0 31 3 48 9l-1 -65
c-29 -11 -60 -17 -92 -17c-51 0 -76 24 -76 73c0 8 1 18 3 29l61 363h-65l9 55l69 16l34 146h73l-24 -145h179l35 145h73l-24 -145h83z" />
    <glyph glyph-name=".notdef" horiz-adv-x="175" 
 />
    <glyph glyph-name=".notdef" horiz-adv-x="175" 
 />
    <glyph glyph-name=".null" horiz-adv-x="0" 
 />
    <glyph glyph-name="CR" horiz-adv-x="205" 
 />
    <glyph glyph-name="space" unicode=" " horiz-adv-x="205" 
 />
    <glyph glyph-name="numbersign" unicode="#" horiz-adv-x="696" 
d="M446 386h-155l-44 -136h151zM649 447v-61h-141l-47 -136h133v-60h-152l-66 -178l-57 13l60 165h-154l-65 -178l-56 13l58 165h-111v60h132l47 136h-124v61h145l68 194l58 -14l-63 -180h153l69 192l57 -12l-63 -180h119z" />
    <glyph glyph-name="ampersand" unicode="&#x26;" horiz-adv-x="705" 
d="M286 563c0 -33 16 -71 47 -112c83 37 125 83 125 138c0 39 -29 67 -73 67c-56 0 -99 -42 -99 -93zM262 59c56 0 114 29 173 87l-141 220c-103 -42 -155 -104 -155 -187c0 -69 47 -120 123 -120zM607 47l-70 -56l-65 96c-75 -72 -146 -104 -233 -104
c-57 0 -102 16 -136 49c-33 33 -50 77 -50 130c0 113 70 195 203 255c-34 47 -51 91 -51 132c0 49 18 91 54 125c37 34 83 51 138 51c83 0 138 -48 138 -124c0 -88 -57 -149 -162 -198l67 -101l133 101l40 -57l-138 -104z" />
    <glyph glyph-name="asterisk" unicode="*" horiz-adv-x="441" 
d="M380 448l-38 -27l-86 94l-87 -94l-41 26l69 103l-100 41l16 44l109 -27l11 112h47l11 -111l112 27l15 -45l-105 -41z" />
    <glyph glyph-name="comma" unicode="," horiz-adv-x="226" 
d="M5 32c0 40 31 67 72 67c37 0 55 -26 55 -63c0 -75 -53 -142 -144 -171l-9 39c45 19 73 47 83 84c-3 -1 -6 -1 -11 -1c-29 0 -46 18 -46 45z" />
    <glyph glyph-name="hyphen" unicode="-" horiz-adv-x="325" 
d="M281 229h-261l15 87h261z" />
    <glyph glyph-name="period" unicode="." horiz-adv-x="240" 
d="M22 46c0 40 26 62 66 62c37 0 64 -23 64 -60s-27 -60 -64 -60c-40 0 -66 23 -66 58z" />
    <glyph glyph-name="colon" unicode=":" horiz-adv-x="240" 
d="M86 442c0 40 26 62 66 62c37 0 64 -23 64 -60s-27 -60 -64 -60c-40 0 -66 23 -66 58zM20 46c0 40 26 62 66 62c37 0 64 -23 64 -60s-27 -60 -64 -60c-40 0 -66 23 -66 58z" />
    <glyph glyph-name="semicolon" unicode=";" horiz-adv-x="232" 
d="M5 32c0 40 31 67 72 67c37 0 55 -26 55 -63c0 -75 -53 -142 -144 -171l-9 39c45 19 73 47 83 84c-3 -1 -6 -1 -11 -1c-29 0 -46 18 -46 45zM79 442c0 40 26 62 66 62c37 0 64 -23 64 -60s-27 -60 -64 -60c-40 0 -66 23 -66 58z" />
    <glyph glyph-name="question" unicode="?" horiz-adv-x="516" 
d="M277 202h-78l4 28c30 168 218 197 218 335c0 59 -34 88 -103 88c-83 0 -136 -49 -151 -138h-81c24 140 116 217 251 217c109 0 176 -54 176 -149c0 -178 -208 -216 -233 -359zM147 37c0 43 31 71 75 71c33 0 54 -18 54 -50c0 -41 -31 -70 -74 -70c-35 0 -55 20 -55 49z
" />
    <glyph glyph-name="exclam" unicode="!" horiz-adv-x="305" 
d="M173 202h-71l36 278l40 240h90l-40 -240zM47 37c0 43 31 71 75 71c32 0 53 -18 53 -50c0 -41 -33 -70 -73 -70c-35 0 -55 20 -55 49z" />
    <glyph glyph-name="exclamdown" unicode="&#xa1;" horiz-adv-x="305" 
d="M111 322h71l-36 -278l-40 -240h-90l40 240zM237 487c0 -43 -31 -71 -75 -71c-32 0 -53 18 -53 50c0 41 33 70 73 70c35 0 55 -20 55 -49z" />
    <glyph glyph-name="questiondown" unicode="&#xbf;" horiz-adv-x="516" 
d="M244 323h78l-4 -28c-30 -168 -218 -197 -218 -335c0 -59 34 -88 103 -88c83 0 136 50 151 138h81c-24 -140 -115 -217 -251 -217c-109 0 -176 53 -176 149c0 177 208 216 233 359zM374 488c0 -43 -31 -71 -75 -71c-33 0 -54 19 -54 50c0 41 31 70 74 70
c35 0 55 -20 55 -49z" />
    <glyph glyph-name="at" unicode="@" horiz-adv-x="986" 
d="M559 206l32 129c-18 13 -45 19 -81 19c-52 0 -93 -19 -123 -57s-45 -85 -45 -141c0 -63 25 -95 76 -95c64 0 120 62 141 145zM674 380l-56 -225c-3 -15 -5 -27 -5 -38c0 -39 13 -59 53 -59c114 0 171 125 171 247c0 183 -120 277 -315 277c-227 3 -393 -165 -390 -396
c0 -216 147 -330 353 -330c113 0 201 27 285 88l34 -51c-87 -69 -202 -104 -321 -104c-239 0 -427 135 -427 398c0 274 201 462 469 462c120 0 214 -31 283 -92s104 -143 104 -246c0 -176 -100 -315 -251 -315c-72 0 -109 32 -109 85v7c-42 -60 -91 -90 -148 -90
c-91 0 -139 63 -139 156c0 140 93 264 260 264c56 0 112 -14 149 -38z" />
    <glyph glyph-name="A" unicode="A" horiz-adv-x="636" 
d="M-33 0l371 720h97l134 -720h-96l-37 193h-274l-99 -193h-96zM369 612l-166 -334h223z" />
    <glyph glyph-name="B" unicode="B" horiz-adv-x="621" 
d="M367 638h-142l-38 -228h127c121 0 181 47 181 141c0 61 -43 87 -128 87zM332 328h-159l-41 -247h166c113 0 178 60 178 152c0 69 -52 95 -144 95zM260 0h-233l120 720h244c133 0 200 -48 200 -145c0 -83 -50 -178 -158 -195c-1 -1 -1 -1 -1 -2c101 -10 134 -83 134 -145
c0 -172 -132 -233 -306 -233z" />
    <glyph glyph-name="C" unicode="C" horiz-adv-x="643" 
d="M532 159l40 -62c-82 -73 -172 -109 -271 -109c-173 0 -248 124 -248 289c0 240 136 456 377 456c133 0 212 -64 212 -185c0 -15 -1 -30 -3 -46h-89c1 5 1 14 1 25c0 75 -41 121 -136 121c-161 3 -267 -155 -264 -359c0 -143 62 -218 170 -218c83 0 142 32 211 88z" />
    <glyph glyph-name="D" unicode="D" horiz-adv-x="680" 
d="M342 636h-118l-92 -553h118c200 0 300 115 300 345c0 139 -69 208 -208 208zM27 0l120 720h205c195 0 295 -96 295 -281c0 -296 -141 -439 -429 -439h-191z" />
    <glyph glyph-name="E" unicode="E" horiz-adv-x="578" 
d="M480 0h-453l120 720h446l-14 -84h-355l-38 -228h323l-14 -84h-323l-40 -241h362z" />
    <glyph glyph-name="F" unicode="F" horiz-adv-x="533" 
d="M118 0h-91l120 720h425l-14 -84h-334l-38 -232h295l-14 -84h-295z" />
    <glyph glyph-name="G" unicode="G" horiz-adv-x="694" 
d="M554 296h-162l13 78h241l-46 -273c-75 -75 -168 -113 -279 -113c-193 0 -268 122 -268 288c0 259 140 457 390 457c171 0 226 -81 226 -181c0 -17 -1 -29 -2 -37h-93c1 5 1 11 1 20c0 69 -45 113 -149 113c-178 0 -276 -165 -276 -357c0 -141 64 -222 184 -222
c73 0 138 25 194 74z" />
    <glyph glyph-name="H" unicode="H" horiz-adv-x="682" 
d="M118 0h-91l120 720h91l-51 -305h346l51 305h91l-120 -720h-91l55 329h-346z" />
    <glyph glyph-name="I" unicode="I" horiz-adv-x="245" 
d="M118 0h-91l120 720h91z" />
    <glyph glyph-name="J" unicode="J" horiz-adv-x="388" 
d="M293 720h90l-92 -554c-21 -123 -78 -178 -185 -178c-59 0 -105 9 -138 26l31 76c30 -14 62 -21 97 -21c67 0 93 26 108 114z" />
    <glyph glyph-name="K" unicode="K" horiz-adv-x="623" 
d="M118 0h-91l120 720h91l-51 -310h125l228 310h100l-256 -346l170 -374h-104l-152 330h-125z" />
    <glyph glyph-name="L" unicode="L" horiz-adv-x="515" 
d="M27 0l120 720h91l-106 -637h321l-14 -83h-412z" />
    <glyph glyph-name="M" unicode="M" horiz-adv-x="844" 
d="M790 720l-50 -720h-85l36 556l-283 -556h-73l-97 556l-148 -556h-86l190 720h102l98 -581l296 581h100z" />
    <glyph glyph-name="N" unicode="N" horiz-adv-x="686" 
d="M116 0h-89l120 720h82l270 -559l91 559h89l-120 -720h-79l-272 558z" />
    <glyph glyph-name="O" unicode="O" horiz-adv-x="746" 
d="M159 374c-6 -39 -9 -72 -9 -100c0 -136 68 -205 185 -205c149 0 241 97 275 291c4 23 6 51 6 85c0 129 -69 203 -184 203c-141 0 -244 -98 -273 -274zM61 367c38 245 197 366 386 366c165 0 266 -102 266 -282c0 -21 -2 -49 -7 -84c-41 -272 -200 -379 -381 -379
c-169 0 -272 96 -272 283c0 28 3 60 8 96z" />
    <glyph glyph-name="P" unicode="P" horiz-adv-x="586" 
d="M357 639h-132l-48 -284h125c128 0 190 63 190 174c0 73 -42 110 -135 110zM118 0h-91l120 720h229c137 0 207 -64 207 -177c0 -154 -94 -266 -292 -266h-127z" />
    <glyph glyph-name="Q" unicode="Q" horiz-adv-x="746" 
d="M61 367c38 245 197 366 386 366c165 0 266 -102 266 -282c0 -21 -2 -49 -7 -84c-27 -172 -97 -273 -206 -328l-1 -4l132 -49l-46 -80l-218 86c-12 -3 -26 -4 -42 -4c-169 0 -272 96 -272 283c0 28 3 60 8 96zM159 374c-6 -39 -9 -72 -9 -100c0 -136 68 -205 185 -205
c149 0 241 97 275 291c4 23 6 51 6 85c0 129 -69 203 -184 203c-141 0 -244 -98 -273 -274z" />
    <glyph glyph-name="R" unicode="R" horiz-adv-x="618" 
d="M27 0l120 720h228c141 0 213 -67 213 -176s-51 -188 -153 -235l104 -309h-100l-95 286c-23 -4 -47 -6 -73 -6h-106l-47 -280h-91zM359 639h-134l-47 -281h127c128 0 189 62 189 173c0 72 -45 108 -135 108z" />
    <glyph glyph-name="S" unicode="S" horiz-adv-x="568" 
d="M-2 99l60 60c57 -62 119 -93 185 -93c97 0 167 55 167 146c0 56 -36 88 -139 121c-125 41 -178 92 -178 177c0 150 114 223 261 223c91 0 166 -35 215 -103l-59 -57c-40 53 -100 82 -163 82c-96 0 -158 -44 -158 -121c0 -28 11 -50 24 -66c7 -7 18 -15 33 -23
c29 -15 48 -23 95 -40c117 -43 167 -90 167 -182c0 -69 -25 -126 -76 -170c-51 -43 -116 -65 -196 -65c-101 0 -187 42 -238 111z" />
    <glyph glyph-name="T" unicode="T" horiz-adv-x="562" 
d="M277 0h-91l106 636h-218l14 84h526l-14 -84h-217z" />
    <glyph glyph-name="U" unicode="U" horiz-adv-x="673" 
d="M67 268l75 452h90l-74 -444c-3 -23 -5 -42 -5 -57c0 -99 53 -149 148 -149c123 0 183 67 206 206l74 444h90l-75 -452c-31 -185 -139 -280 -312 -280c-141 0 -223 68 -223 207c0 23 2 47 6 73z" />
    <glyph glyph-name="V" unicode="V" horiz-adv-x="590" 
d="M297 0h-106l-105 720h93l83 -615l292 615h91z" />
    <glyph glyph-name="W" unicode="W" horiz-adv-x="901" 
d="M253 0h-103l-64 720h91l51 -602l250 602h86l50 -602l249 602h92l-305 -720h-100l-53 582z" />
    <glyph glyph-name="X" unicode="X" horiz-adv-x="580" 
d="M70 0h-104l281 368l-155 352h100l122 -282l214 282h102l-278 -359l159 -361h-104l-121 285z" />
    <glyph glyph-name="Y" unicode="Y" horiz-adv-x="571" 
d="M276 0h-91l50 301l-155 419h99l119 -327l227 327h101l-300 -419z" />
    <glyph glyph-name="Z" unicode="Z" horiz-adv-x="576" 
d="M491 0h-506l10 61l470 575h-349l14 84h482l-6 -41l-489 -596h388z" />
    <glyph glyph-name="a" unicode="a" horiz-adv-x="584" 
d="M454 0h-75l6 71c-41 -44 -103 -83 -182 -83c-115 0 -171 77 -171 205c-1 202 111 349 266 345c71 0 123 -34 151 -89l18 76h75zM393 151l37 217c-35 59 -80 89 -136 89c-49 0 -89 -22 -121 -67c-32 -44 -48 -103 -48 -177c0 -76 19 -145 104 -145c60 0 121 39 164 83z
" />
    <glyph glyph-name="b" unicode="b" horiz-adv-x="587" 
d="M170 371l-38 -227c19 -40 70 -77 133 -77c104 0 175 93 175 248c0 93 -38 143 -106 143c-53 0 -107 -29 -164 -87zM111 70l-18 -70h-71l120 720h86l-44 -267c53 56 114 84 181 84c108 0 167 -75 167 -206c0 -189 -85 -343 -273 -343c-76 0 -125 39 -148 82z" />
    <glyph glyph-name="c" unicode="c" horiz-adv-x="516" 
d="M414 120l28 -60c-63 -48 -134 -72 -213 -72c-120 0 -193 84 -193 223c0 206 126 326 285 326c113 0 170 -56 170 -157c0 -17 -1 -30 -2 -39h-81c0 4 1 14 1 17c0 69 -31 101 -96 101c-55 0 -99 -22 -134 -66c-34 -43 -51 -101 -51 -174c0 -93 42 -155 123 -155
c56 0 99 16 163 56z" />
    <glyph glyph-name="d" unicode="d" horiz-adv-x="584" 
d="M458 0h-75l6 71c-41 -44 -103 -83 -182 -83c-115 0 -171 77 -171 205c0 103 25 186 74 249s113 95 192 95c63 0 112 -26 147 -78l43 261h86zM397 151l37 217c-34 59 -79 88 -136 88c-49 0 -89 -22 -121 -66s-48 -103 -48 -177c0 -76 19 -145 104 -145c60 0 121 39 164 83
z" />
    <glyph glyph-name="e" unicode="e" horiz-adv-x="530" 
d="M415 117l28 -59c-63 -47 -133 -70 -210 -70c-127 0 -198 72 -198 211c0 196 124 342 289 338c107 0 163 -60 163 -145c0 -123 -90 -183 -365 -195c0 -57 24 -134 131 -134c51 0 105 18 162 54zM126 264c245 14 276 65 276 128c0 45 -32 72 -89 72c-49 0 -91 -19 -125 -58
c-34 -38 -55 -85 -62 -142z" />
    <glyph glyph-name="f" unicode="f" horiz-adv-x="282" 
d="M127 0h-85l76 454h-61l9 55l63 12l12 69c13 87 63 143 147 143c23 0 45 -3 68 -9l-16 -67c-14 5 -29 7 -45 7c-33 0 -61 -20 -68 -69l-12 -70h94l-12 -71h-94z" />
    <glyph glyph-name="g" unicode="g" horiz-adv-x="581" 
d="M472 525h74l-85 -507c-29 -176 -110 -228 -261 -228c-65 0 -131 13 -174 33l30 73c52 -19 103 -29 153 -29c56 0 96 12 120 36c24 23 41 63 50 120l8 49c-48 -49 -111 -81 -182 -81c-112 0 -169 79 -169 204c0 177 89 342 269 342c81 0 125 -53 149 -88zM396 144l38 228
c-14 31 -63 85 -127 85c-57 0 -101 -23 -132 -69c-31 -45 -47 -104 -47 -177c0 -92 27 -142 102 -142c61 0 123 36 166 75z" />
    <glyph glyph-name="h" unicode="h" horiz-adv-x="556" 
d="M22 0l120 720h86l-44 -268c58 57 118 85 181 85c87 0 130 -45 130 -135c0 -15 -2 -35 -5 -58l-58 -344h-87l54 323c4 25 6 43 6 54c0 49 -21 79 -78 79c-56 0 -116 -39 -156 -79l-63 -377h-86z" />
    <glyph glyph-name="i" unicode="i" horiz-adv-x="241" 
d="M116 525h86l-88 -525h-86zM126 659c0 35 31 59 66 59c29 0 47 -17 47 -44c0 -35 -28 -57 -64 -57c-29 0 -49 17 -49 42z" />
    <glyph glyph-name="j" unicode="j" horiz-adv-x="240" 
d="M126 659c0 35 31 59 66 59c29 0 47 -17 47 -44c0 -35 -28 -57 -64 -57c-29 0 -49 17 -49 42zM116 525h85l-99 -593c-15 -91 -54 -135 -139 -135c-31 0 -54 3 -71 10l18 67c11 -4 25 -6 43 -6c37 0 56 15 65 71z" />
    <glyph glyph-name="k" unicode="k" horiz-adv-x="510" 
d="M142 720h86l-65 -391h57l190 196h99l-224 -232l160 -293h-102l-140 255h-52l-43 -255h-86z" />
    <glyph glyph-name="l" unicode="l" horiz-adv-x="232" 
d="M229 720l-120 -720h-86l120 720h86z" />
    <glyph glyph-name="m" unicode="m" horiz-adv-x="815" 
d="M22 0l88 525h74l-7 -76c56 59 114 88 174 88c65 0 102 -29 110 -87c56 53 112 87 180 87c75 0 113 -39 113 -116c0 -16 -2 -35 -5 -57l-61 -364h-86l58 349c3 13 4 27 4 41c0 44 -17 66 -62 66c-40 0 -86 -25 -139 -75l-64 -381h-86l58 346c3 15 4 29 4 43
c0 45 -20 67 -60 67c-43 0 -91 -26 -144 -77l-63 -379h-86z" />
    <glyph glyph-name="n" unicode="n" horiz-adv-x="556" 
d="M22 0l88 525h74l-7 -77c53 53 118 89 185 89c89 0 133 -45 133 -135c0 -15 -2 -35 -5 -58l-58 -344h-87l54 322c3 16 4 32 4 49c0 59 -25 86 -74 86c-29 0 -59 -9 -88 -27c-29 -17 -53 -35 -70 -53l-63 -377h-86z" />
    <glyph glyph-name="o" unicode="o" horiz-adv-x="574" 
d="M129 264c-3 -24 -5 -45 -5 -63c0 -90 40 -135 120 -135c88 0 160 66 181 195c3 23 5 42 5 57c0 93 -47 141 -122 141c-88 0 -158 -67 -179 -195zM37 260c13 89 45 157 97 205c53 48 116 72 190 72c125 0 198 -76 198 -209c0 -25 -2 -47 -5 -66
c-29 -189 -146 -274 -287 -274c-128 0 -198 74 -198 207c0 18 2 40 5 65z" />
    <glyph glyph-name="p" unicode="p" horiz-adv-x="587" 
d="M170 372l-38 -229c19 -37 70 -75 127 -75c109 0 180 92 180 249c0 91 -36 141 -101 141c-59 0 -120 -38 -168 -86zM118 62l-43 -262h-86l121 725h74l-6 -77c59 59 122 89 189 89c107 0 165 -74 165 -205c0 -192 -90 -344 -266 -344c-87 0 -133 48 -148 74z" />
    <glyph glyph-name="q" unicode="q" horiz-adv-x="581" 
d="M425 -200h-87l44 263c-54 -50 -111 -75 -172 -75c-117 0 -174 76 -174 205c0 103 25 186 74 249c50 63 115 95 195 95c63 0 113 -28 150 -85l22 73h69zM396 142l39 232c-17 30 -59 83 -133 83c-49 0 -91 -22 -124 -66s-49 -103 -49 -177c0 -97 32 -146 95 -146
c71 0 135 37 172 74z" />
    <glyph glyph-name="r" unicode="r" horiz-adv-x="328" 
d="M110 525h71l-8 -80c35 53 84 92 132 92c15 0 30 -3 46 -9l-23 -86c-9 4 -24 6 -43 6c-41 0 -88 -41 -116 -85l-61 -363h-86z" />
    <glyph glyph-name="s" unicode="s" horiz-adv-x="480" 
d="M-9 73l50 56c43 -41 98 -67 150 -67c76 0 123 36 123 92c0 39 -25 56 -105 77c-99 27 -142 65 -142 130c0 53 20 96 59 128c40 32 91 48 154 48c74 0 132 -26 175 -78l-49 -53c-38 40 -83 60 -135 60c-69 0 -112 -32 -112 -84c0 -39 27 -54 110 -78
c99 -27 141 -65 141 -130c0 -56 -21 -101 -63 -135c-41 -34 -95 -51 -162 -51c-83 0 -153 34 -194 85z" />
    <glyph glyph-name="t" unicode="t" horiz-adv-x="299" 
d="M295 525l-12 -72h-83l-58 -347c-1 -3 -1 -8 -1 -15c0 -20 11 -30 32 -30c15 0 31 3 48 9l-1 -65c-29 -11 -60 -17 -92 -17c-51 0 -76 24 -76 73c0 8 1 18 3 29l61 363h-65l9 55l69 16l34 146h73l-24 -145h83z" />
    <glyph glyph-name="u" unicode="u" horiz-adv-x="546" 
d="M512 525l-88 -525h-72l6 76c-57 -59 -117 -88 -178 -88c-92 0 -138 43 -138 130c0 16 2 34 5 55l59 352h87l-56 -331c-4 -28 -6 -47 -6 -56c0 -48 20 -70 72 -70c56 0 117 34 160 77l64 380h85z" />
    <glyph glyph-name="v" unicode="v" horiz-adv-x="487" 
d="M142 0l-87 525h89l65 -437l214 437h85l-265 -525h-101z" />
    <glyph glyph-name="w" unicode="w" horiz-adv-x="726" 
d="M491 103l160 422h86l-217 -525h-92l-50 402l-180 -402h-93l-41 525h86l23 -422l184 418h83z" />
    <glyph glyph-name="x" unicode="x" horiz-adv-x="491" 
d="M62 0h-93l219 266l-127 259h95l93 -200l160 200h93l-211 -259l130 -266h-94l-97 208z" />
    <glyph glyph-name="y" unicode="y" horiz-adv-x="484" 
d="M208 105l203 420h92l-272 -532l-26 -49c-5 -11 -13 -24 -22 -40c-19 -33 -25 -41 -42 -61s-29 -25 -49 -34c-19 -9 -40 -11 -65 -11c-29 0 -57 4 -86 12l20 63c23 -5 45 -8 67 -8c43 0 68 23 108 107l14 28l-93 525h91z" />
    <glyph glyph-name="z" unicode="z" horiz-adv-x="439" 
d="M353 0h-364l9 56l321 397h-248l12 72h360l-7 -42l-332 -413h261z" />
    <glyph glyph-name="bracketleft" unicode="[" horiz-adv-x="337" 
d="M214 -54l-12 -71h-188l141 845h188l-11 -71h-105l-118 -703h105z" />
    <glyph glyph-name="bracketright" unicode="]" horiz-adv-x="338" 
d="M322 720l-141 -845h-189l12 71h106l118 703h-106l11 71h189z" />
    <glyph glyph-name="parenleft" unicode="(" horiz-adv-x="345" 
d="M298 734l54 -33c-77 -86 -133 -167 -166 -243s-49 -159 -49 -250c0 -107 28 -207 85 -300l-58 -37c-71 81 -110 206 -110 338c0 189 81 364 244 525z" />
    <glyph glyph-name="parenright" unicode=")" horiz-adv-x="344" 
d="M47 -129l-54 33c77 86 132 167 165 242c33 76 50 160 50 251c0 107 -28 207 -85 300l58 37c71 -81 110 -206 110 -338c0 -189 -81 -364 -244 -525z" />
    <glyph glyph-name="braceleft" unicode="{" horiz-adv-x="363" 
d="M408 720l-11 -69h-40c-56 0 -80 -35 -93 -118l-21 -128c-11 -68 -35 -105 -100 -121c47 -8 63 -34 63 -78c0 -15 -2 -36 -7 -63l-16 -93c-3 -19 -5 -34 -5 -45c0 -43 17 -61 68 -61h33l-12 -69h-37c-101 0 -139 28 -139 101c0 13 2 31 5 54l20 117c3 20 4 33 4 40
c0 41 -18 60 -65 60h-30l12 72h28c67 0 85 35 100 123l16 97c11 66 31 113 58 140s71 41 131 41h38z" />
    <glyph glyph-name="braceright" unicode="}" horiz-adv-x="355" 
d="M122 651h-40l10 69h39c99 0 135 -33 135 -113c0 -20 -2 -43 -6 -68l-15 -97c-4 -24 -6 -44 -6 -60c0 -45 17 -63 64 -63h28l-11 -72h-31c-59 0 -82 -31 -93 -100l-20 -117c-9 -58 -27 -98 -54 -121c-26 -23 -69 -34 -130 -34h-37l12 69h33c64 0 84 30 95 106l16 93
c7 39 13 66 28 94c15 23 36 41 74 47c-45 13 -63 38 -63 78c0 11 2 25 5 43l20 128c3 23 5 41 5 54c0 43 -15 64 -58 64z" />
    <glyph glyph-name="backslash" unicode="\" horiz-adv-x="400" 
d="M55 739h75l237 -831h-73z" />
    <glyph glyph-name="slash" unicode="/" horiz-adv-x="364" 
d="M29 -92h-73l376 831h75z" />
    <glyph glyph-name="brokenbar" unicode="&#xa6;" horiz-adv-x="500" 
d="M212 208h76v-408h-76v408zM212 720h76v-408h-76v408z" />
    <glyph glyph-name="bar" unicode="|" horiz-adv-x="500" 
d="M212 720h76v-920h-76v920z" />
    <glyph glyph-name="asciicircum" unicode="^" horiz-adv-x="676" 
d="M371 693h65l186 -246l-53 -40l-175 224l-251 -224l-40 44z" />
    <glyph glyph-name="underscore" unicode="_" horiz-adv-x="480" 
d="M393 -226h-483l11 65h483z" />
    <glyph glyph-name="asciitilde" unicode="~" horiz-adv-x="761" 
d="M681 346l36 -63c-83 -65 -158 -98 -225 -98c-44 0 -95 18 -130 35c-35 19 -84 36 -121 36c-21 0 -43 -4 -64 -11s-38 -14 -52 -22l-56 -36l-33 67c84 62 159 93 226 93c40 0 89 -18 124 -37c36 -17 83 -36 116 -36c56 0 107 23 179 72z" />
    <glyph glyph-name="zero" unicode="0" horiz-adv-x="588" 
d="M149 353c-7 -43 -11 -84 -11 -123c0 -110 38 -165 113 -165c100 0 163 89 196 290c8 49 12 91 12 126c0 109 -38 158 -114 158c-100 0 -164 -86 -196 -286zM62 353c37 245 136 367 297 367c124 0 188 -74 188 -234c0 -36 -4 -79 -11 -129c-37 -246 -135 -369 -294 -369
c-127 0 -191 78 -191 235c0 36 4 79 11 130z" />
    <glyph glyph-name="one" unicode="1" horiz-adv-x="456" 
d="M24 74h152l86 512c-55 -32 -113 -53 -173 -63l-2 65c36 9 74 25 114 47c41 22 75 47 104 74h62l-107 -635h134l-12 -74h-370z" />
    <glyph glyph-name="two" unicode="2" horiz-adv-x="500" 
d="M396 0h-410l10 60l309 324c34 36 57 65 70 88s19 47 19 73c0 56 -39 94 -104 94c-51 0 -109 -26 -175 -78l-37 59c77 67 157 100 239 100c96 0 166 -59 166 -152c0 -32 0 -43 -8 -72c-9 -38 -38 -79 -102 -147l-261 -271h297z" />
    <glyph glyph-name="three" unicode="3" horiz-adv-x="511" 
d="M-18 84l51 55c47 -48 96 -75 164 -75c93 0 164 55 164 154c0 72 -44 109 -132 110c-23 0 -40 -1 -52 -3l10 74c97 2 195 67 195 157c0 56 -39 86 -98 86c-48 0 -100 -17 -156 -50l-25 59c67 46 135 69 206 69c96 0 159 -54 159 -142c0 -91 -67 -169 -160 -204
c91 -8 136 -64 136 -148c0 -154 -123 -238 -256 -238c-90 0 -159 32 -206 96z" />
    <glyph glyph-name="four" unicode="4" horiz-adv-x="537" 
d="M403 621l-292 -380h228zM384 0h-85l27 164h-318l12 71l368 474h115l-79 -468h79l-13 -77h-79z" />
    <glyph glyph-name="five" unicode="5" horiz-adv-x="522" 
d="M131 260h-77l109 449h337l-19 -83h-260l-57 -232c41 35 90 52 146 52c101 0 156 -62 156 -167c1 -178 -127 -295 -279 -291c-68 0 -141 23 -190 68l44 62c47 -35 98 -52 155 -52c109 0 180 71 180 194c0 69 -35 111 -107 111c-48 0 -96 -24 -123 -51z" />
    <glyph glyph-name="six" unicode="6" horiz-adv-x="534" 
d="M48 302c37 296 166 418 324 418c61 0 111 -19 149 -58l-46 -59c-33 28 -71 42 -112 42c-61 0 -114 -31 -149 -86s-58 -116 -75 -193c59 51 119 76 181 76c103 0 155 -65 155 -172c0 -15 -1 -30 -3 -46c-21 -163 -113 -236 -248 -236c-123 0 -182 82 -182 229
c0 27 2 55 6 85zM388 217c2 14 3 27 3 39c0 75 -39 110 -102 110c-49 0 -103 -25 -161 -76c-3 -24 -5 -50 -5 -77c0 -107 38 -153 113 -153s136 53 152 157z" />
    <glyph glyph-name="seven" unicode="7" horiz-adv-x="442" 
d="M496 709l-10 -60l-363 -649h-90l2 11l347 615h-310l14 83h410z" />
    <glyph glyph-name="eight" unicode="8" horiz-adv-x="524" 
d="M101 162c0 -61 42 -99 117 -99c46 0 84 14 114 41c31 28 46 63 46 104c0 61 -40 107 -120 136c-45 -21 -76 -41 -108 -70s-49 -67 -49 -112zM193 536c0 -55 39 -94 96 -117c55 25 129 78 129 151c0 51 -37 80 -97 80c-75 0 -128 -46 -128 -114zM12 147
c0 116 94 199 186 235c-57 25 -92 74 -92 138c0 59 21 107 64 144s97 56 163 56c101 0 167 -53 167 -137s-62 -157 -149 -197c77 -39 115 -93 115 -164c0 -70 -24 -127 -73 -170s-112 -64 -189 -64c-120 0 -192 60 -192 159z" />
    <glyph glyph-name="nine" unicode="9" horiz-adv-x="526" 
d="M498 491c0 -287 -123 -503 -317 -503c-67 0 -121 18 -163 54l44 60c36 -29 75 -43 118 -43c117 0 200 137 223 283c-52 -49 -120 -77 -188 -77c-99 0 -152 72 -152 176c0 83 24 151 72 202c49 51 110 77 183 77c120 0 180 -85 180 -229zM305 643c-43 0 -81 -17 -112 -50
s-46 -79 -46 -138c0 -77 36 -117 96 -117c30 0 61 8 92 24s56 35 73 58c3 20 4 42 4 65c0 103 -36 158 -107 158z" />
    <glyph glyph-name="dollar" unicode="$" horiz-adv-x="510" 
d="M228 -87h-74l15 87c-80 7 -142 47 -182 100l53 52c49 -55 104 -82 165 -82c88 0 154 48 154 128c0 51 -33 82 -129 114c-109 35 -156 82 -156 162c0 59 20 106 59 143s89 58 150 64l14 84h74l-14 -85c64 -11 117 -42 149 -91l-53 -48c-39 45 -91 72 -146 72
c-85 0 -146 -42 -146 -117c0 -56 39 -83 135 -115c104 -36 151 -88 151 -165c0 -57 -19 -105 -58 -144c-38 -38 -87 -62 -146 -71z" />
    <glyph glyph-name="Euro" unicode="&#x20ac;" horiz-adv-x="592" 
d="M87 388h-68l16 64h70c41 135 160 268 319 268c74 0 159 -29 201 -118l-56 -43c-37 56 -92 89 -157 89c-100 0 -179 -76 -222 -196h313l-16 -64h-315l-6 -32l-6 -47h308l-16 -64h-294c8 -115 65 -182 158 -182c72 0 128 26 188 74l34 -49c-77 -68 -153 -100 -245 -100
c-149 0 -218 113 -221 257h-87l15 64h75c0 11 2 26 5 46c3 8 6 25 7 33z" />
    <glyph glyph-name="cent" unicode="&#xa2;" horiz-adv-x="512" 
d="M433 209l25 -58c-49 -38 -101 -61 -155 -69l-17 -100h-77l16 97c-104 11 -167 92 -167 219c0 92 24 167 73 226s111 92 186 99l16 97h76l-16 -101c77 -16 119 -69 119 -156c0 -7 -1 -18 -2 -34h-78c0 4 1 12 1 16c0 67 -33 100 -99 100c-112 0 -184 -89 -184 -234
c0 -93 43 -155 124 -155c59 0 102 16 159 53z" />
    <glyph glyph-name="sterling" unicode="&#xa3;" horiz-adv-x="503" 
d="M232 249c0 -67 -34 -115 -91 -171h280l-13 -78h-416l12 71l50 5c56 53 95 106 95 165c0 22 -3 48 -10 78h-92l11 65h68c-16 48 -24 89 -24 123c-2 125 116 216 240 213c77 0 145 -30 181 -86l-56 -53c-33 41 -76 62 -130 62c-88 0 -146 -49 -146 -129
c0 -31 8 -74 25 -130h152l-11 -65h-133c5 -18 8 -41 8 -70z" />
    <glyph glyph-name="yen" unicode="&#xa5;" horiz-adv-x="561" 
d="M243 324h-191l11 65h163l-125 320h93l106 -294l209 294h89l-235 -320h168l-11 -65h-196l-14 -84h196l-11 -65h-196l-29 -175h-81l29 175h-191l11 65h191z" />
    <glyph glyph-name="florin" unicode="&#x192;" horiz-adv-x="431" 
d="M-36 -200v66h40c40 0 62 30 77 94l79 379h-78v63h91l30 149c8 37 13 62 28 91c21 41 56 67 118 67h65v-68h-51c-29 0 -38 -11 -53 -26c-5 -5 -11 -23 -14 -31l-6 -20c-4 -19 -5 -20 -9 -43l-25 -119h93v-63h-105l-60 -287c-16 -76 -28 -125 -35 -147
c-15 -45 -36 -75 -63 -90c-18 -10 -41 -15 -68 -15h-54z" />
    <glyph glyph-name="section" unicode="&#xa7;" horiz-adv-x="511" 
d="M35 68l48 48c42 -42 89 -63 140 -63c59 0 102 27 102 79c0 16 -8 30 -19 39c-22 16 -46 25 -80 35l-28 9c-13 5 -41 16 -54 23c-32 19 -56 46 -56 91c0 67 46 121 137 141c-64 21 -92 61 -92 105c0 81 64 158 199 158c69 0 125 -29 160 -69l-46 -46
c-42 35 -83 52 -123 52c-50 0 -103 -22 -103 -80c0 -36 24 -56 79 -76c115 -40 153 -71 153 -126c0 -83 -72 -124 -131 -141c61 -25 87 -58 87 -102c0 -45 -19 -83 -57 -113c-37 -29 -84 -44 -139 -44c-69 0 -140 29 -177 80zM271 440c-56 -12 -103 -41 -103 -89
c4 -42 47 -58 100 -73c67 22 101 53 101 93c0 16 -9 29 -18 37c-5 4 -12 8 -23 12c-21 9 -28 12 -57 20z" />
    <glyph glyph-name="copyright" unicode="&#xa9;" horiz-adv-x="820" 
d="M532 255l26 -32c-39 -41 -87 -61 -144 -61c-107 0 -164 79 -164 199c0 57 15 104 44 141c30 37 72 56 125 56c80 0 137 -46 138 -129h-49c-5 55 -36 83 -91 83c-72 0 -112 -58 -112 -149c0 -105 42 -155 114 -155c41 0 78 16 113 47zM415 677c-175 3 -315 -140 -312 -317
c0 -209 143 -316 312 -316c162 0 314 134 314 316c3 184 -135 320 -314 317zM415 720c107 0 193 -33 260 -99s100 -152 100 -257c0 -210 -168 -364 -360 -364c-193 0 -360 121 -360 360c-3 204 162 364 360 360z" />
    <glyph glyph-name="registered" unicode="&#xae;" horiz-adv-x="421" 
d="M183 461v176h69c43 0 65 -18 65 -55c0 -21 -11 -37 -32 -48l41 -73h-32l-37 67c-3 -1 -9 -1 -18 -1h-27v-66h-29zM246 612h-34v-62h32c29 0 42 10 42 33c0 19 -13 29 -40 29zM247 691c-40 0 -74 -14 -101 -41s-40 -61 -40 -102c0 -91 57 -143 141 -143c37 0 70 14 98 41
c29 28 43 62 43 102c0 85 -57 143 -141 143zM247 725c53 0 95 -16 128 -49c33 -32 49 -75 49 -128c0 -49 -17 -91 -52 -126c-35 -34 -76 -51 -125 -51c-104 0 -176 66 -176 177c0 51 17 93 51 126c34 34 76 51 125 51z" />
    <glyph glyph-name="trademark" unicode="&#x2122;" horiz-adv-x="620" 
d="M588 720l30 -260h-43l-19 189l-73 -189h-33l-70 189l-19 -189h-44l28 260h51l72 -195l72 195h48zM200 460h-45v217h-85v43h216v-43h-86v-217z" />
    <glyph glyph-name="ordfeminine" unicode="&#xaa;" horiz-adv-x="473" 
d="M386 261h-62l4 45c-29 -29 -75 -54 -127 -54c-85 0 -128 57 -128 150c0 76 18 137 54 183c37 47 84 70 143 70c49 0 85 -18 107 -55l11 47h62zM334 374l27 157c-24 39 -56 59 -95 59c-68 0 -118 -68 -118 -172c0 -59 24 -102 79 -102c33 0 68 19 107 58z" />
    <glyph glyph-name="ordmasculine" unicode="&#xba;" horiz-adv-x="470" 
d="M154 422c0 -67 33 -101 85 -101c75 0 130 58 130 165c0 69 -34 104 -85 104c-76 0 -130 -59 -130 -168zM79 414c0 73 20 132 61 176s93 66 155 66c91 0 148 -59 148 -162c0 -149 -99 -239 -215 -239c-93 0 -149 58 -149 159z" />
    <glyph glyph-name="guillemotleft" unicode="&#xab;" horiz-adv-x="473" 
d="M473 378l-123 -116l84 -117l-55 -45l-125 145l6 35l172 143zM262 378l-123 -116l84 -117l-55 -45l-125 145l6 35l172 143z" />
    <glyph glyph-name="guillemotright" unicode="&#xbb;" horiz-adv-x="475" 
d="M0 145l123 116l-84 117l55 45l125 -145l-6 -35l-172 -143zM213 145l123 116l-84 117l55 45l125 -145l-6 -35l-172 -143z" />
    <glyph glyph-name="guilsinglleft" unicode="&#x2039;" horiz-adv-x="262" 
d="M262 378l-123 -116l84 -117l-55 -45l-125 145l6 35l172 143z" />
    <glyph glyph-name="guilsinglright" unicode="&#x203a;" horiz-adv-x="262" 
d="M0 145l123 116l-84 117l55 45l125 -145l-6 -35l-172 -143z" />
    <glyph glyph-name="quoteleft" unicode="&#x2018;" horiz-adv-x="203" 
d="M211 597c0 -36 -27 -61 -68 -61c-32 0 -50 24 -50 57c0 65 32 119 125 160l12 -34c-51 -27 -65 -47 -73 -80c3 0 6 1 9 1c27 0 45 -18 45 -43z" />
    <glyph glyph-name="quoteright" unicode="&#x2019;" horiz-adv-x="203" 
d="M103 660c0 36 27 61 68 61c32 0 50 -22 50 -57c0 -65 -32 -119 -125 -160l-12 34c51 27 65 45 73 80c-3 0 -6 -1 -9 -1c-27 0 -45 18 -45 43z" />
    <glyph glyph-name="quotesinglbase" unicode="&#x201a;" horiz-adv-x="203" 
d="M12 22c0 36 27 61 68 61c32 0 50 -22 50 -57c0 -65 -32 -119 -125 -160l-12 34c51 27 65 45 73 80c-3 0 -6 -1 -9 -1c-27 0 -45 18 -45 43z" />
    <glyph glyph-name="quotedblleft" unicode="&#x201c;" horiz-adv-x="360" 
d="M211 597c0 -36 -27 -61 -68 -61c-32 0 -50 24 -50 57c0 65 32 119 125 160l12 -34c-51 -27 -65 -47 -73 -80c3 0 6 1 9 1c27 0 45 -18 45 -43zM368 597c0 -36 -27 -61 -68 -61c-32 0 -50 24 -50 57c0 65 32 119 125 160l12 -34c-51 -27 -65 -47 -73 -80c3 0 6 1 9 1
c27 0 45 -18 45 -43z" />
    <glyph glyph-name="quotedblright" unicode="&#x201d;" horiz-adv-x="360" 
d="M103 660c0 36 27 61 68 61c32 0 50 -22 50 -57c0 -65 -32 -119 -125 -160l-12 34c51 27 65 45 73 80c-3 0 -6 -1 -9 -1c-27 0 -45 18 -45 43zM260 660c0 36 27 61 68 61c32 0 50 -22 50 -57c0 -65 -32 -119 -125 -160l-12 34c51 27 65 45 73 80c-3 0 -6 -1 -9 -1
c-27 0 -45 18 -45 43z" />
    <glyph glyph-name="quotedblbase" unicode="&#x201e;" horiz-adv-x="356" 
d="M12 22c0 36 27 61 68 61c32 0 50 -22 50 -57c0 -65 -32 -119 -125 -160l-12 34c51 27 65 45 73 80c-3 0 -6 -1 -9 -1c-27 0 -45 18 -45 43zM165 22c0 36 27 61 68 61c32 0 50 -22 50 -57c0 -65 -32 -119 -125 -160l-12 34c51 27 65 45 73 80c-3 0 -6 -1 -9 -1
c-27 0 -45 18 -45 43z" />
    <glyph glyph-name="dagger" unicode="&#x2020;" horiz-adv-x="490" 
d="M309 441l-92 -546h-80l92 546h-163l12 72h163l34 206h80l-34 -206h163l-12 -72h-163z" />
    <glyph glyph-name="daggerdbl" unicode="&#x2021;" horiz-adv-x="489" 
d="M251 99l-35 -204h-79l35 204h-163l12 72h163l45 270h-163l12 72h163l34 206h79l-34 -206h163l-12 -72h-163l-45 -270h163l-12 -72h-163z" />
    <glyph glyph-name="bullet" unicode="&#x2022;" horiz-adv-x="500" 
d="M253 430c64 0 118 -50 118 -118s-52 -119 -119 -119s-118 52 -118 119c0 33 12 61 35 84s51 34 84 34z" />
    <glyph glyph-name="ellipsis" unicode="&#x2026;" horiz-adv-x="776" 
d="M22 46c0 40 26 62 66 62c37 0 64 -23 64 -60s-27 -60 -64 -60c-40 0 -66 23 -66 58zM558 46c0 40 26 62 66 62c37 0 64 -23 64 -60s-27 -60 -64 -60c-40 0 -66 23 -66 58zM290 46c0 40 26 62 66 62c37 0 64 -23 64 -60s-27 -60 -64 -60c-40 0 -66 23 -66 58z" />
    <glyph glyph-name="paragraph" unicode="&#xb6;" horiz-adv-x="535" 
d="M311 720h217l-120 -720h-76l111 665h-84l-111 -665h-75l60 361c-101 3 -154 59 -154 147c0 63 22 114 65 153c44 39 100 59 167 59z" />
    <glyph glyph-name="periodcentered" unicode="&#xb7;" horiz-adv-x="280" 
d="M75 334c0 40 26 62 66 62c37 0 64 -23 64 -60s-27 -60 -64 -60c-40 0 -66 23 -66 58z" />
    <glyph glyph-name="uni00AD" unicode="&#xad;" horiz-adv-x="325" 
d="M276 229h-261l15 87h261z" />
    <glyph glyph-name="endash" unicode="&#x2013;" horiz-adv-x="500" 
d="M481 234h-488l11 64h488z" />
    <glyph glyph-name="emdash" unicode="&#x2014;" horiz-adv-x="1000" 
d="M976 234h-975l11 64h975z" />
    <glyph glyph-name="hyphen.case" horiz-adv-x="325" 
d="M302 310h-261l15 87h261z" />
    <glyph glyph-name="Agrave" unicode="&#xc0;" horiz-adv-x="636" 
d="M-33 0l371 720h97l134 -720h-96l-37 193h-274l-99 -193h-96zM369 612l-166 -334h223zM303 839l51 76l149 -103l-41 -58z" />
    <glyph glyph-name="Aacute" unicode="&#xc1;" horiz-adv-x="636" 
d="M-33 0l371 720h97l134 -720h-96l-37 193h-274l-99 -193h-96zM369 612l-166 -334h223zM341 754l-22 58l183 103l25 -76z" />
    <glyph glyph-name="Acircumflex" unicode="&#xc2;" horiz-adv-x="636" 
d="M-33 0l371 720h97l134 -720h-96l-37 193h-274l-99 -193h-96zM369 612l-166 -334h223zM262 798l121 111h61l81 -111l-44 -37l-80 77l-107 -77z" />
    <glyph glyph-name="Atilde" unicode="&#xc3;" horiz-adv-x="636" 
d="M-33 0l371 720h97l134 -720h-96l-37 193h-274l-99 -193h-96zM369 612l-166 -334h223zM502 883l44 -17c-29 -63 -58 -86 -99 -86c-16 0 -37 5 -64 16s-44 16 -52 16c-16 0 -26 -7 -46 -35l-43 19c36 61 61 84 96 84c15 0 35 -5 60 -16s44 -16 57 -16c20 0 28 7 47 35z" />
    <glyph glyph-name="Adieresis" unicode="&#xc4;" horiz-adv-x="636" 
d="M-33 0l371 720h97l134 -720h-96l-37 193h-274l-99 -193h-96zM369 612l-166 -334h223zM437 818c0 32 27 56 62 56c28 0 44 -16 44 -41c0 -31 -27 -56 -60 -56c-29 0 -46 17 -46 41zM244 818c0 32 28 56 61 56c28 0 44 -16 44 -41c0 -31 -27 -56 -59 -56
c-29 0 -46 17 -46 41z" />
    <glyph glyph-name="Aring" unicode="&#xc5;" horiz-adv-x="636" 
d="M304 780c0 60 50 106 110 106c48 0 80 -30 80 -75c0 -40 -23 -73 -59 -92l134 -719h-96l-37 193h-274l-99 -193h-96l370 718c-22 12 -33 33 -33 62zM369 612l-166 -334h223zM359 788c0 -20 13 -31 34 -31c27 0 46 20 46 48c0 20 -11 30 -33 30c-28 0 -47 -19 -47 -47z
" />
    <glyph glyph-name="AE" unicode="&#xc6;" horiz-adv-x="963" 
d="M865 0h-454l35 207h-233l-144 -207h-104l494 720h518l-14 -84h-355l-38 -228h324l-14 -84h-324l-40 -241h363zM502 641l-241 -354h198l59 354h-16z" />
    <glyph glyph-name="Ccedilla" unicode="&#xc7;" horiz-adv-x="643" 
d="M186 -199l20 48c19 -8 39 -12 58 -12c32 0 48 12 48 37c0 20 -17 26 -56 26h-22l34 89c-149 14 -215 134 -215 288c0 240 136 456 377 456c133 0 212 -64 212 -185c0 -15 -1 -30 -3 -46h-89c1 5 1 14 1 25c0 75 -41 121 -136 121c-161 3 -267 -155 -264 -359
c0 -143 62 -218 170 -218c83 0 142 33 211 88l40 -62c-77 -67 -160 -103 -251 -108l-14 -44c50 -3 75 -23 75 -62c0 -64 -45 -98 -120 -98c-29 0 -55 5 -76 16z" />
    <glyph glyph-name="Egrave" unicode="&#xc8;" horiz-adv-x="578" 
d="M480 0h-453l120 720h446l-14 -84h-355l-38 -228h323l-14 -84h-323l-40 -241h362zM255 839l51 76l149 -103l-41 -58z" />
    <glyph glyph-name="Eacute" unicode="&#xc9;" horiz-adv-x="578" 
d="M480 0h-453l120 720h446l-14 -84h-355l-38 -228h323l-14 -84h-323l-40 -241h362zM321 754l-22 58l183 103l25 -76z" />
    <glyph glyph-name="Ecircumflex" unicode="&#xca;" horiz-adv-x="578" 
d="M480 0h-453l120 720h446l-14 -84h-355l-38 -228h323l-14 -84h-323l-40 -241h362zM229 798l121 111h61l81 -111l-44 -37l-80 77l-107 -77z" />
    <glyph glyph-name="Edieresis" unicode="&#xcb;" horiz-adv-x="578" 
d="M480 0h-453l120 720h446l-14 -84h-355l-38 -228h323l-14 -84h-323l-40 -241h362zM399 818c0 32 27 56 62 56c28 0 44 -16 44 -41c0 -31 -27 -56 -60 -56c-29 0 -46 17 -46 41zM206 818c0 32 28 56 61 56c28 0 44 -16 44 -41c0 -31 -27 -56 -59 -56c-29 0 -46 17 -46 41z
" />
    <glyph glyph-name="Igrave" unicode="&#xcc;" horiz-adv-x="245" 
d="M118 0h-91l120 720h91zM85 839l51 76l149 -103l-41 -58z" />
    <glyph glyph-name="Iacute" unicode="&#xcd;" horiz-adv-x="245" 
d="M118 0h-91l120 720h91zM123 754l-22 58l183 103l25 -76z" />
    <glyph glyph-name="Icircumflex" unicode="&#xce;" horiz-adv-x="245" 
d="M118 0h-91l120 720h91zM76 798l121 111h61l81 -111l-44 -37l-80 77l-107 -77z" />
    <glyph glyph-name="Idieresis" unicode="&#xcf;" horiz-adv-x="245" 
d="M118 0h-91l120 720h91zM256 818c0 32 27 56 62 56c28 0 44 -16 44 -41c0 -31 -27 -56 -60 -56c-29 0 -46 17 -46 41zM63 818c0 32 28 56 61 56c28 0 44 -16 44 -41c0 -31 -27 -56 -59 -56c-29 0 -46 17 -46 41z" />
    <glyph glyph-name="Eth" unicode="&#xd0;" horiz-adv-x="703" 
d="M105 328h-72l13 78h72l52 314h205c195 0 295 -96 295 -281c0 -296 -141 -439 -429 -439h-191zM364 636h-118l-38 -230h183l-13 -78h-183l-41 -245h118c201 0 301 115 301 345c0 139 -70 208 -209 208z" />
    <glyph glyph-name="Ntilde" unicode="&#xd1;" horiz-adv-x="686" 
d="M116 0h-89l120 720h82l270 -559l91 559h89l-120 -720h-79l-272 558zM541 883l44 -17c-29 -63 -58 -86 -99 -86c-16 0 -37 5 -64 16s-44 16 -52 16c-16 0 -26 -7 -46 -35l-43 19c36 61 61 84 96 84c15 0 35 -5 60 -16s44 -16 57 -16c20 0 28 7 47 35z" />
    <glyph glyph-name="Ograve" unicode="&#xd2;" horiz-adv-x="746" 
d="M159 374c-6 -39 -9 -72 -9 -100c0 -136 68 -205 185 -205c149 0 241 97 275 291c4 23 6 51 6 85c0 129 -69 203 -184 203c-141 0 -244 -98 -273 -274zM61 367c38 245 197 366 386 366c165 0 266 -102 266 -282c0 -21 -2 -49 -7 -84c-41 -272 -200 -379 -381 -379
c-169 0 -272 96 -272 283c0 28 3 60 8 96zM348 839l51 76l149 -103l-41 -58z" />
    <glyph glyph-name="Oacute" unicode="&#xd3;" horiz-adv-x="746" 
d="M159 374c-6 -39 -9 -72 -9 -100c0 -136 68 -205 185 -205c149 0 241 97 275 291c4 23 6 51 6 85c0 129 -69 203 -184 203c-141 0 -244 -98 -273 -274zM61 367c38 245 197 366 386 366c165 0 266 -102 266 -282c0 -21 -2 -49 -7 -84c-41 -272 -200 -379 -381 -379
c-169 0 -272 96 -272 283c0 28 3 60 8 96zM386 754l-22 58l183 103l25 -76z" />
    <glyph glyph-name="Ocircumflex" unicode="&#xd4;" horiz-adv-x="746" 
d="M159 374c-6 -39 -9 -72 -9 -100c0 -136 68 -205 185 -205c149 0 241 97 275 291c4 23 6 51 6 85c0 129 -69 203 -184 203c-141 0 -244 -98 -273 -274zM61 367c38 245 197 366 386 366c165 0 266 -102 266 -282c0 -21 -2 -49 -7 -84c-41 -272 -200 -379 -381 -379
c-169 0 -272 96 -272 283c0 28 3 60 8 96zM308 798l121 111h61l81 -111l-44 -37l-80 77l-107 -77z" />
    <glyph glyph-name="Otilde" unicode="&#xd5;" horiz-adv-x="746" 
d="M159 374c-6 -39 -9 -72 -9 -100c0 -136 68 -205 185 -205c149 0 241 97 275 291c4 23 6 51 6 85c0 129 -69 203 -184 203c-141 0 -244 -98 -273 -274zM61 367c38 245 197 366 386 366c165 0 266 -102 266 -282c0 -21 -2 -49 -7 -84c-41 -272 -200 -379 -381 -379
c-169 0 -272 96 -272 283c0 28 3 60 8 96zM549 883l44 -17c-29 -63 -58 -86 -99 -86c-16 0 -37 5 -64 16s-44 16 -52 16c-16 0 -26 -7 -46 -35l-43 19c36 61 61 84 96 84c15 0 35 -5 60 -16s44 -16 57 -16c20 0 28 7 47 35z" />
    <glyph glyph-name="Odieresis" unicode="&#xd6;" horiz-adv-x="746" 
d="M159 374c-6 -39 -9 -72 -9 -100c0 -136 68 -205 185 -205c149 0 241 97 275 291c4 23 6 51 6 85c0 129 -69 203 -184 203c-141 0 -244 -98 -273 -274zM61 367c38 245 197 366 386 366c165 0 266 -102 266 -282c0 -21 -2 -49 -7 -84c-41 -272 -200 -379 -381 -379
c-169 0 -272 96 -272 283c0 28 3 60 8 96zM482 818c0 32 27 56 62 56c28 0 44 -16 44 -41c0 -31 -27 -56 -60 -56c-29 0 -46 17 -46 41zM289 818c0 32 28 56 61 56c28 0 44 -16 44 -41c0 -31 -27 -56 -59 -56c-29 0 -46 17 -46 41z" />
    <glyph glyph-name="Oslash" unicode="&#xd8;" horiz-adv-x="746" 
d="M61 367c38 245 197 366 386 366c25 0 47 -2 68 -7l28 61h73l-38 -82c85 -41 135 -130 135 -254c0 -21 -2 -49 -7 -84c-41 -272 -200 -379 -381 -379c-26 0 -51 3 -76 8l-35 -76h-72l44 96c-85 41 -133 127 -133 255c0 28 3 60 8 96zM616 445c0 83 -26 141 -78 174
l-253 -545c17 -3 34 -5 50 -5c149 0 241 97 275 291c4 22 6 50 6 85zM159 374c-6 -39 -9 -72 -9 -100c0 -84 25 -143 74 -176l252 545c-16 3 -31 5 -44 5c-141 0 -244 -98 -273 -274z" />
    <glyph glyph-name="Ugrave" unicode="&#xd9;" horiz-adv-x="673" 
d="M67 268l75 452h90l-74 -444c-3 -23 -5 -42 -5 -57c0 -99 53 -149 148 -149c123 0 183 67 206 206l74 444h90l-75 -452c-31 -185 -139 -280 -312 -280c-141 0 -223 68 -223 207c0 23 2 47 6 73zM298 839l51 76l149 -103l-41 -58z" />
    <glyph glyph-name="Uacute" unicode="&#xda;" horiz-adv-x="673" 
d="M67 268l75 452h90l-74 -444c-3 -23 -5 -42 -5 -57c0 -99 53 -149 148 -149c123 0 183 67 206 206l74 444h90l-75 -452c-31 -185 -139 -280 -312 -280c-141 0 -223 68 -223 207c0 23 2 47 6 73zM351 754l-22 58l183 103l25 -76z" />
    <glyph glyph-name="Ucircumflex" unicode="&#xdb;" horiz-adv-x="673" 
d="M67 268l75 452h90l-74 -444c-3 -23 -5 -42 -5 -57c0 -99 53 -149 148 -149c123 0 183 67 206 206l74 444h90l-75 -452c-31 -185 -139 -280 -312 -280c-141 0 -223 68 -223 207c0 23 2 47 6 73zM259 798l121 111h61l81 -111l-44 -37l-80 77l-107 -77z" />
    <glyph glyph-name="Udieresis" unicode="&#xdc;" horiz-adv-x="673" 
d="M67 268l75 452h90l-74 -444c-3 -23 -5 -42 -5 -57c0 -99 53 -149 148 -149c123 0 183 67 206 206l74 444h90l-75 -452c-31 -185 -139 -280 -312 -280c-141 0 -223 68 -223 207c0 23 2 47 6 73zM432 818c0 32 27 56 62 56c28 0 44 -16 44 -41c0 -31 -27 -56 -60 -56
c-29 0 -46 17 -46 41zM239 818c0 32 28 56 61 56c28 0 44 -16 44 -41c0 -31 -27 -56 -59 -56c-29 0 -46 17 -46 41z" />
    <glyph glyph-name="Yacute" unicode="&#xdd;" horiz-adv-x="571" 
d="M276 0h-91l50 301l-155 419h99l119 -327l227 327h101l-300 -419zM300 754l-22 58l183 103l25 -76z" />
    <glyph glyph-name="Thorn" unicode="&#xde;" horiz-adv-x="586" 
d="M110 0h-91l120 720h91l-19 -116h138c107 0 205 -44 205 -175c0 -173 -106 -267 -289 -267h-128zM331 523h-133l-48 -286h125c125 0 190 64 190 176c0 73 -45 110 -134 110z" />
    <glyph glyph-name="germandbls" unicode="&#xdf;" horiz-adv-x="553" 
d="M120 0h-85l76 454h-63l9 55l65 13l4 20c21 132 119 191 222 191c107 0 168 -55 168 -150c0 -109 -69 -186 -174 -206c93 -16 152 -74 152 -167c0 -66 -21 -120 -62 -161s-93 -61 -158 -61c-40 0 -92 13 -115 36l31 57c27 -15 55 -23 86 -23c75 0 133 53 133 152
c0 81 -51 115 -154 128l11 70c101 9 165 63 165 166c0 59 -30 89 -91 89c-75 0 -117 -48 -133 -141z" />
    <glyph glyph-name="agrave" unicode="&#xe0;" horiz-adv-x="583" 
d="M454 0h-75l6 71c-41 -44 -103 -83 -182 -83c-115 0 -171 77 -171 205c-1 202 111 349 266 345c71 0 123 -34 151 -89l18 76h75zM393 151l37 217c-35 59 -80 89 -136 89c-49 0 -89 -22 -121 -67c-32 -44 -48 -103 -48 -177c0 -76 19 -145 104 -145c60 0 121 39 164 83z
M252 706l64 64l117 -137l-50 -50z" />
    <glyph glyph-name="aacute" unicode="&#xe1;" horiz-adv-x="583" 
d="M454 0h-75l6 71c-41 -44 -103 -83 -182 -83c-115 0 -171 77 -171 205c-1 202 111 349 266 345c71 0 123 -34 151 -89l18 76h75zM393 151l37 217c-35 59 -80 89 -136 89c-49 0 -89 -22 -121 -67c-32 -44 -48 -103 -48 -177c0 -76 19 -145 104 -145c60 0 121 39 164 83z
M273 583l-34 50l164 137l41 -64z" />
    <glyph glyph-name="acircumflex" unicode="&#xe2;" horiz-adv-x="583" 
d="M454 0h-75l6 71c-41 -44 -103 -83 -182 -83c-115 0 -171 77 -171 205c-1 202 111 349 266 345c71 0 123 -34 151 -89l18 76h75zM393 151l37 217c-35 59 -80 89 -136 89c-49 0 -89 -22 -121 -67c-32 -44 -48 -103 -48 -177c0 -76 19 -145 104 -145c60 0 121 39 164 83z
M208 610l131 146h60l79 -147l-49 -32l-72 105l-107 -104z" />
    <glyph glyph-name="atilde" unicode="&#xe3;" horiz-adv-x="583" 
d="M454 0h-75l6 71c-41 -44 -103 -83 -182 -83c-115 0 -171 77 -171 205c-1 202 111 349 266 345c71 0 123 -34 151 -89l18 76h75zM393 151l37 217c-35 59 -80 89 -136 89c-49 0 -89 -22 -121 -67c-32 -44 -48 -103 -48 -177c0 -76 19 -145 104 -145c60 0 121 39 164 83z
M463 707l44 -17c-29 -63 -58 -86 -99 -86c-16 0 -37 5 -64 16s-44 16 -52 16c-16 0 -26 -7 -46 -35l-43 19c36 61 61 84 96 84c15 0 35 -5 60 -16s44 -16 57 -16c20 0 28 7 47 35z" />
    <glyph glyph-name="adieresis" unicode="&#xe4;" horiz-adv-x="583" 
d="M454 0h-75l6 71c-41 -44 -103 -83 -182 -83c-115 0 -171 77 -171 205c-1 202 111 349 266 345c71 0 123 -34 151 -89l18 76h75zM393 151l37 217c-35 59 -80 89 -136 89c-49 0 -89 -22 -121 -67c-32 -44 -48 -103 -48 -177c0 -76 19 -145 104 -145c60 0 121 39 164 83z
M401 660c0 32 27 56 62 56c28 0 44 -16 44 -41c0 -31 -27 -56 -60 -56c-29 0 -46 17 -46 41zM208 660c0 32 28 56 61 56c28 0 44 -16 44 -41c0 -31 -27 -56 -59 -56c-29 0 -46 17 -46 41z" />
    <glyph glyph-name="aring" unicode="&#xe5;" horiz-adv-x="583" 
d="M454 0h-75l6 71c-41 -44 -103 -83 -182 -83c-115 0 -171 77 -171 205c-1 202 111 349 266 345c71 0 123 -34 151 -89l18 76h75zM393 151l37 217c-35 59 -80 89 -136 89c-49 0 -89 -22 -121 -67c-32 -44 -48 -103 -48 -177c0 -76 19 -145 104 -145c60 0 121 39 164 83z
M309 657c0 -20 13 -31 34 -31c28 0 46 19 46 48c0 20 -11 30 -33 30c-29 0 -47 -19 -47 -47zM254 649c0 60 50 106 110 106c48 0 79 -30 79 -75c0 -61 -48 -104 -109 -104c-48 0 -80 28 -80 73z" />
    <glyph glyph-name="ae" unicode="&#xe6;" horiz-adv-x="904" 
d="M429 99c-67 -74 -142 -111 -226 -111c-115 0 -171 77 -171 205c-1 202 111 349 266 345c71 0 123 -34 151 -89l18 76h75l-17 -75c46 58 107 87 183 87c99 0 159 -62 159 -145c0 -121 -94 -181 -371 -195c0 -57 24 -134 131 -134c53 0 101 16 164 55l24 -60
c-63 -47 -132 -70 -208 -70c-91 0 -141 36 -178 111zM393 151l37 217c-35 59 -80 89 -136 89c-49 0 -89 -22 -121 -67c-32 -44 -48 -103 -48 -177c0 -76 19 -145 104 -145c60 0 121 39 164 83zM500 262c231 10 280 66 280 129c0 45 -36 73 -93 73c-49 0 -91 -20 -125 -59
s-55 -87 -62 -143z" />
    <glyph glyph-name="ccedilla" unicode="&#xe7;" horiz-adv-x="516" 
d="M104 -196l20 48c19 -8 39 -12 58 -12c32 0 48 12 48 37c0 20 -18 26 -55 26h-22l34 89c-96 16 -151 92 -151 213c0 207 131 332 289 332c109 0 166 -56 166 -157c0 -17 -1 -30 -2 -39h-81v15c0 69 -32 103 -95 103c-55 0 -99 -22 -134 -66c-34 -43 -51 -101 -51 -174
c0 -93 42 -155 123 -155c56 0 99 16 163 56l26 -59c-60 -47 -127 -71 -200 -73l-15 -40c51 -3 76 -23 76 -62c0 -64 -44 -98 -120 -98c-30 0 -56 5 -77 16z" />
    <glyph glyph-name="egrave" unicode="&#xe8;" horiz-adv-x="530" 
d="M415 117l28 -59c-63 -47 -133 -70 -210 -70c-127 0 -198 72 -198 211c0 196 124 342 289 338c107 0 163 -60 163 -145c0 -123 -90 -183 -365 -195c0 -57 24 -134 131 -134c51 0 105 18 162 54zM126 264c245 14 276 65 276 128c0 45 -32 72 -89 72c-49 0 -91 -19 -125 -58
c-34 -38 -55 -85 -62 -142zM235 706l64 64l117 -137l-50 -50z" />
    <glyph glyph-name="eacute" unicode="&#xe9;" horiz-adv-x="530" 
d="M415 117l28 -59c-63 -47 -133 -70 -210 -70c-127 0 -198 72 -198 211c0 196 124 342 289 338c107 0 163 -60 163 -145c0 -123 -90 -183 -365 -195c0 -57 24 -134 131 -134c51 0 105 18 162 54zM126 264c245 14 276 65 276 128c0 45 -32 72 -89 72c-49 0 -91 -19 -125 -58
c-34 -38 -55 -85 -62 -142zM281 583l-34 50l164 137l41 -64z" />
    <glyph glyph-name="ecircumflex" unicode="&#xea;" horiz-adv-x="530" 
d="M415 117l28 -59c-63 -47 -133 -70 -210 -70c-127 0 -198 72 -198 211c0 196 124 342 289 338c107 0 163 -60 163 -145c0 -123 -90 -183 -365 -195c0 -57 24 -134 131 -134c51 0 105 18 162 54zM126 264c245 14 276 65 276 128c0 45 -32 72 -89 72c-49 0 -91 -19 -125 -58
c-34 -38 -55 -85 -62 -142zM185 610l131 146h60l79 -147l-49 -32l-72 105l-107 -104z" />
    <glyph glyph-name="edieresis" unicode="&#xeb;" horiz-adv-x="530" 
d="M415 117l28 -59c-63 -47 -133 -70 -210 -70c-127 0 -198 72 -198 211c0 196 124 342 289 338c107 0 163 -60 163 -145c0 -123 -90 -183 -365 -195c0 -57 24 -134 131 -134c51 0 105 18 162 54zM126 264c245 14 276 65 276 128c0 45 -32 72 -89 72c-49 0 -91 -19 -125 -58
c-34 -38 -55 -85 -62 -142zM394 660c0 32 27 56 62 56c28 0 44 -16 44 -41c0 -31 -27 -56 -60 -56c-29 0 -46 17 -46 41zM201 660c0 32 28 56 61 56c28 0 44 -16 44 -41c0 -31 -27 -56 -59 -56c-29 0 -46 17 -46 41z" />
    <glyph glyph-name="igrave" unicode="&#xec;" horiz-adv-x="240" 
d="M83 706l64 64l117 -137l-50 -50zM116 523h85l-88 -523h-85z" />
    <glyph glyph-name="iacute" unicode="&#xed;" horiz-adv-x="240" 
d="M140 583l-34 50l164 137l41 -64zM116 523h85l-88 -523h-85z" />
    <glyph glyph-name="icircumflex" unicode="&#xee;" horiz-adv-x="240" 
d="M116 523h85l-88 -523h-85zM29 610l131 146h60l79 -147l-49 -32l-72 105l-107 -104z" />
    <glyph glyph-name="idieresis" unicode="&#xef;" horiz-adv-x="240" 
d="M227 660c0 32 27 56 62 56c28 0 44 -16 44 -41c0 -31 -27 -56 -60 -56c-29 0 -46 17 -46 41zM34 660c0 32 28 56 61 56c28 0 44 -16 44 -41c0 -31 -27 -56 -59 -56c-29 0 -46 17 -46 41zM116 523h85l-88 -523h-85z" />
    <glyph glyph-name="eth" unicode="&#xf0;" horiz-adv-x="539" 
d="M367 557l-87 -54l-28 54l72 45c-33 25 -76 43 -128 54l33 66c70 -12 125 -37 166 -75l87 54l29 -54l-75 -47c35 -51 53 -123 53 -216c3 -230 -107 -398 -286 -396c-111 0 -177 68 -177 181c-3 142 94 272 235 270c63 0 112 -24 147 -73c1 7 1 16 1 29
c0 68 -14 122 -42 162zM217 63c88 0 155 77 179 228c-16 19 -27 31 -50 47c-21 16 -49 26 -80 26c-87 0 -154 -65 -154 -182c0 -77 41 -119 105 -119z" />
    <glyph glyph-name="ntilde" unicode="&#xf1;" horiz-adv-x="556" 
d="M22 0l88 525h74l-7 -77c53 53 118 89 185 89c89 0 133 -45 133 -135c0 -15 -2 -35 -5 -58l-58 -344h-87l54 322c3 16 4 32 4 49c0 59 -25 86 -74 86c-29 0 -59 -9 -88 -27c-29 -17 -53 -35 -70 -53l-63 -377h-86zM443 707l44 -17c-29 -63 -58 -86 -99 -86
c-16 0 -37 5 -64 16s-44 16 -52 16c-16 0 -26 -7 -46 -35l-43 19c36 61 61 84 96 84c15 0 35 -5 60 -16s44 -16 57 -16c20 0 28 7 47 35z" />
    <glyph glyph-name="ograve" unicode="&#xf2;" horiz-adv-x="574" 
d="M129 264c-3 -24 -5 -45 -5 -63c0 -90 40 -135 120 -135c88 0 160 66 181 195c3 23 5 42 5 57c0 93 -47 141 -122 141c-88 0 -158 -67 -179 -195zM37 260c13 89 45 157 97 205c53 48 116 72 190 72c125 0 198 -76 198 -209c0 -25 -2 -47 -5 -66
c-29 -189 -146 -274 -287 -274c-128 0 -198 74 -198 207c0 18 2 40 5 65zM257 706l64 64l117 -137l-50 -50z" />
    <glyph glyph-name="oacute" unicode="&#xf3;" horiz-adv-x="574" 
d="M129 264c-3 -24 -5 -45 -5 -63c0 -90 40 -135 120 -135c88 0 160 66 181 195c3 23 5 42 5 57c0 93 -47 141 -122 141c-88 0 -158 -67 -179 -195zM37 260c13 89 45 157 97 205c53 48 116 72 190 72c125 0 198 -76 198 -209c0 -25 -2 -47 -5 -66
c-29 -189 -146 -274 -287 -274c-128 0 -198 74 -198 207c0 18 2 40 5 65zM289 583l-34 50l164 137l41 -64z" />
    <glyph glyph-name="ocircumflex" unicode="&#xf4;" horiz-adv-x="574" 
d="M129 264c-3 -24 -5 -45 -5 -63c0 -90 40 -135 120 -135c88 0 160 66 181 195c3 23 5 42 5 57c0 93 -47 141 -122 141c-88 0 -158 -67 -179 -195zM37 260c13 89 45 157 97 205c53 48 116 72 190 72c125 0 198 -76 198 -209c0 -25 -2 -47 -5 -66
c-29 -189 -146 -274 -287 -274c-128 0 -198 74 -198 207c0 18 2 40 5 65zM204 610l131 146h60l79 -147l-49 -32l-72 105l-107 -104z" />
    <glyph glyph-name="otilde" unicode="&#xf5;" horiz-adv-x="574" 
d="M129 264c-3 -24 -5 -45 -5 -63c0 -90 40 -135 120 -135c88 0 160 66 181 195c3 23 5 42 5 57c0 93 -47 141 -122 141c-88 0 -158 -67 -179 -195zM37 260c13 89 45 157 97 205c53 48 116 72 190 72c125 0 198 -76 198 -209c0 -25 -2 -47 -5 -66
c-29 -189 -146 -274 -287 -274c-128 0 -198 74 -198 207c0 18 2 40 5 65zM456 707l44 -17c-29 -63 -58 -86 -99 -86c-16 0 -37 5 -64 16s-44 16 -52 16c-16 0 -26 -7 -46 -35l-43 19c36 61 61 84 96 84c15 0 35 -5 60 -16s44 -16 57 -16c20 0 28 7 47 35z" />
    <glyph glyph-name="odieresis" unicode="&#xf6;" horiz-adv-x="574" 
d="M129 264c-3 -24 -5 -45 -5 -63c0 -90 40 -135 120 -135c88 0 160 66 181 195c3 23 5 42 5 57c0 93 -47 141 -122 141c-88 0 -158 -67 -179 -195zM37 260c13 89 45 157 97 205c53 48 116 72 190 72c125 0 198 -76 198 -209c0 -25 -2 -47 -5 -66
c-29 -189 -146 -274 -287 -274c-128 0 -198 74 -198 207c0 18 2 40 5 65zM403 660c0 32 27 56 62 56c28 0 44 -16 44 -41c0 -31 -27 -56 -60 -56c-29 0 -46 17 -46 41zM210 660c0 32 28 56 61 56c28 0 44 -16 44 -41c0 -31 -27 -56 -59 -56c-29 0 -46 17 -46 41z" />
    <glyph glyph-name="oslash" unicode="&#xf8;" horiz-adv-x="574" 
d="M37 260c13 89 45 157 97 205c53 48 116 72 190 72c10 0 24 -1 43 -4l28 60h73l-38 -81c61 -33 92 -95 92 -184c0 -25 -2 -47 -5 -66c-29 -189 -146 -274 -287 -274c-19 0 -34 1 -46 4l-32 -68h-72l41 88c-59 33 -89 94 -89 183c0 18 2 40 5 65zM430 318
c0 49 -13 87 -39 112l-171 -363c5 -1 13 -1 24 -1c88 0 160 66 181 195c3 22 5 41 5 57zM129 264c-3 -24 -5 -45 -5 -63c0 -49 12 -85 36 -107l171 363c-11 1 -18 2 -23 2c-88 0 -158 -67 -179 -195z" />
    <glyph glyph-name="ugrave" unicode="&#xf9;" horiz-adv-x="546" 
d="M512 525l-88 -525h-72l6 76c-57 -59 -117 -88 -178 -88c-92 0 -138 43 -138 130c0 16 2 34 5 55l59 352h87l-56 -331c-4 -28 -6 -47 -6 -56c0 -48 20 -70 72 -70c56 0 117 34 160 77l64 380h85zM233 706l64 64l117 -137l-50 -50z" />
    <glyph glyph-name="uacute" unicode="&#xfa;" horiz-adv-x="546" 
d="M512 525l-88 -525h-72l6 76c-57 -59 -117 -88 -178 -88c-92 0 -138 43 -138 130c0 16 2 34 5 55l59 352h87l-56 -331c-4 -28 -6 -47 -6 -56c0 -48 20 -70 72 -70c56 0 117 34 160 77l64 380h85zM266 583l-34 50l164 137l41 -64z" />
    <glyph glyph-name="ucircumflex" unicode="&#xfb;" horiz-adv-x="546" 
d="M512 525l-88 -525h-72l6 76c-57 -59 -117 -88 -178 -88c-92 0 -138 43 -138 130c0 16 2 34 5 55l59 352h87l-56 -331c-4 -28 -6 -47 -6 -56c0 -48 20 -70 72 -70c56 0 117 34 160 77l64 380h85zM188 610l131 146h60l79 -147l-49 -32l-72 105l-107 -104z" />
    <glyph glyph-name="udieresis" unicode="&#xfc;" horiz-adv-x="546" 
d="M512 525l-88 -525h-72l6 76c-57 -59 -117 -88 -178 -88c-92 0 -138 43 -138 130c0 16 2 34 5 55l59 352h87l-56 -331c-4 -28 -6 -47 -6 -56c0 -48 20 -70 72 -70c56 0 117 34 160 77l64 380h85zM383 660c0 32 27 56 62 56c28 0 44 -16 44 -41c0 -31 -27 -56 -60 -56
c-29 0 -46 17 -46 41zM190 660c0 32 28 56 61 56c28 0 44 -16 44 -41c0 -31 -27 -56 -59 -56c-29 0 -46 17 -46 41z" />
    <glyph glyph-name="yacute" unicode="&#xfd;" horiz-adv-x="484" 
d="M208 105l203 420h92l-272 -532l-26 -49c-5 -11 -13 -24 -22 -40c-19 -33 -25 -41 -42 -61s-29 -25 -49 -34c-19 -9 -40 -11 -65 -11c-29 0 -57 4 -86 12l20 63c23 -5 45 -8 67 -8c43 0 68 23 108 107l14 28l-93 525h91zM239 583l-34 50l164 137l41 -64z" />
    <glyph glyph-name="thorn" unicode="&#xfe;" horiz-adv-x="570" 
d="M164 375l-40 -236c23 -40 71 -76 132 -76c113 0 176 98 176 257c0 95 -35 142 -106 142c-53 0 -107 -29 -162 -87zM111 62l-43 -262h-86l153 920h85l-45 -272c57 60 120 90 188 90c105 0 162 -76 162 -205c0 -193 -92 -345 -266 -345c-85 0 -133 48 -148 74z" />
    <glyph glyph-name="ydieresis" unicode="&#xff;" horiz-adv-x="484" 
d="M208 105l203 420h92l-272 -532l-26 -49c-5 -11 -13 -24 -22 -40c-19 -33 -25 -41 -42 -61s-29 -25 -49 -34c-19 -9 -40 -11 -65 -11c-29 0 -57 4 -86 12l20 63c23 -5 45 -8 67 -8c43 0 68 23 108 107l14 28l-93 525h91zM348 660c0 32 27 56 62 56c28 0 44 -16 44 -41
c0 -31 -27 -56 -60 -56c-29 0 -46 17 -46 41zM155 660c0 32 28 56 61 56c28 0 44 -16 44 -41c0 -31 -27 -56 -59 -56c-29 0 -46 17 -46 41z" />
    <glyph glyph-name="Amacron" unicode="&#x100;" horiz-adv-x="636" 
d="M-33 0l371 720h97l134 -720h-96l-37 193h-274l-99 -193h-96zM369 612l-166 -334h223zM531 785h-269l11 67h269z" />
    <glyph glyph-name="amacron" unicode="&#x101;" horiz-adv-x="583" 
d="M454 0h-75l6 71c-41 -44 -103 -83 -182 -83c-115 0 -171 77 -171 205c-1 202 111 349 266 345c71 0 123 -34 151 -89l18 76h75zM393 151l37 217c-35 59 -80 89 -136 89c-49 0 -89 -22 -121 -67c-32 -44 -48 -103 -48 -177c0 -76 19 -145 104 -145c60 0 121 39 164 83z
M196 616l11 67h269l-11 -67h-269z" />
    <glyph glyph-name="Abreve" unicode="&#x102;" horiz-adv-x="636" 
d="M-33 0l371 720h97l134 -720h-96l-37 193h-274l-99 -193h-96zM369 612l-166 -334h223zM396 829c59 0 80 24 95 69l59 -10c-24 -80 -74 -119 -163 -119c-91 0 -127 34 -127 118l67 11c1 -48 14 -69 69 -69z" />
    <glyph glyph-name="abreve" unicode="&#x103;" horiz-adv-x="583" 
d="M454 0h-75l6 71c-41 -44 -103 -83 -182 -83c-115 0 -171 77 -171 205c-1 202 111 349 266 345c71 0 123 -34 151 -89l18 76h75zM393 151l37 217c-35 59 -80 89 -136 89c-49 0 -89 -22 -121 -67c-32 -44 -48 -103 -48 -177c0 -76 19 -145 104 -145c60 0 121 39 164 83z
M338 654c57 0 78 26 97 79l59 -10c-24 -88 -76 -129 -165 -129c-88 0 -124 37 -124 121v7l67 11c2 -48 7 -79 66 -79z" />
    <glyph glyph-name="Aogonek" unicode="&#x104;" horiz-adv-x="636" 
d="M-33 0l371 720h97l134 -720c-72 -53 -106 -95 -106 -132c0 -17 10 -26 31 -26c15 0 33 4 54 12l10 -51c-33 -19 -68 -29 -105 -29c-51 0 -77 25 -77 65c0 53 32 106 97 161l-37 194h-274l-99 -194h-96zM369 612l-166 -334h223z" />
    <glyph glyph-name="aogonek" unicode="&#x105;" horiz-adv-x="583" 
d="M379 0l6 71c-41 -44 -103 -83 -182 -83c-115 0 -171 77 -171 205c-1 202 111 349 266 345c71 0 123 -34 151 -89l18 76h75l-88 -525c-64 -56 -96 -95 -96 -132c0 -17 10 -26 31 -26c13 0 31 4 54 12l9 -51c-27 -16 -67 -29 -104 -29c-51 0 -77 25 -77 65
c0 51 36 105 108 161zM393 151l37 217c-35 59 -80 89 -136 89c-49 0 -89 -22 -121 -67c-32 -44 -48 -103 -48 -177c0 -76 19 -145 104 -145c60 0 121 39 164 83z" />
    <glyph glyph-name="Cacute" unicode="&#x106;" horiz-adv-x="643" 
d="M532 159l40 -62c-82 -73 -172 -109 -271 -109c-173 0 -248 124 -248 289c0 240 136 456 377 456c133 0 212 -64 212 -185c0 -15 -1 -30 -3 -46h-89c1 5 1 14 1 25c0 75 -41 121 -136 121c-161 3 -267 -155 -264 -359c0 -143 62 -218 170 -218c83 0 142 32 211 88z
M358 754l-22 58l183 103l25 -76z" />
    <glyph glyph-name="cacute" unicode="&#x107;" horiz-adv-x="516" 
d="M414 120l28 -60c-63 -48 -134 -72 -213 -72c-120 0 -193 84 -193 223c0 206 126 326 285 326c113 0 170 -56 170 -157c0 -17 -1 -30 -2 -39h-81c0 4 1 14 1 17c0 69 -31 101 -96 101c-55 0 -99 -22 -134 -66c-34 -43 -51 -101 -51 -174c0 -93 42 -155 123 -155
c56 0 99 16 163 56zM284 583l-34 50l164 137l41 -64z" />
    <glyph glyph-name="Ccircumflex" unicode="&#x108;" horiz-adv-x="643" 
d="M532 159l40 -62c-82 -73 -172 -109 -271 -109c-173 0 -248 124 -248 289c0 240 136 456 377 456c133 0 212 -64 212 -185c0 -15 -1 -30 -3 -46h-89c1 5 1 14 1 25c0 75 -41 121 -136 121c-161 3 -267 -155 -264 -359c0 -143 62 -218 170 -218c83 0 142 32 211 88z
M293 798l121 111h61l81 -111l-44 -37l-80 77l-107 -77z" />
    <glyph glyph-name="ccircumflex" unicode="&#x109;" horiz-adv-x="516" 
d="M414 120l28 -60c-63 -48 -134 -72 -213 -72c-120 0 -193 84 -193 223c0 206 126 326 285 326c113 0 170 -56 170 -157c0 -17 -1 -30 -2 -39h-81c0 4 1 14 1 17c0 69 -31 101 -96 101c-55 0 -99 -22 -134 -66c-34 -43 -51 -101 -51 -174c0 -93 42 -155 123 -155
c56 0 99 16 163 56zM189 610l131 146h60l79 -147l-49 -32l-72 105l-107 -104z" />
    <glyph glyph-name="Cdotaccent" unicode="&#x10a;" horiz-adv-x="643" 
d="M532 159l40 -62c-82 -73 -172 -109 -271 -109c-173 0 -248 124 -248 289c0 240 136 456 377 456c133 0 212 -64 212 -185c0 -15 -1 -30 -3 -46h-89c1 5 1 14 1 25c0 75 -41 121 -136 121c-161 3 -267 -155 -264 -359c0 -143 62 -218 170 -218c83 0 142 32 211 88z
M393 813c0 35 30 58 67 58c29 0 47 -16 47 -43c0 -35 -28 -58 -64 -58c-29 0 -50 16 -50 43z" />
    <glyph glyph-name="cdotaccent" unicode="&#x10b;" horiz-adv-x="516" 
d="M414 120l28 -60c-63 -48 -134 -72 -213 -72c-120 0 -193 84 -193 223c0 206 126 326 285 326c113 0 170 -56 170 -157c0 -17 -1 -30 -2 -39h-81c0 4 1 14 1 17c0 69 -31 101 -96 101c-55 0 -99 -22 -134 -66c-34 -43 -51 -101 -51 -174c0 -93 42 -155 123 -155
c56 0 99 16 163 56zM291 659c0 35 31 59 66 59c29 0 47 -17 47 -44c0 -35 -28 -57 -64 -57c-29 0 -49 17 -49 42z" />
    <glyph glyph-name="Ccaron" unicode="&#x10c;" horiz-adv-x="643" 
d="M532 159l40 -62c-82 -73 -172 -109 -271 -109c-173 0 -248 124 -248 289c0 240 136 456 377 456c133 0 212 -64 212 -185c0 -15 -1 -30 -3 -46h-89c1 5 1 14 1 25c0 75 -41 121 -136 121c-161 3 -267 -155 -264 -359c0 -143 62 -218 170 -218c83 0 142 32 211 88z
M589 876l-118 -111h-60l-85 111l46 37l81 -77l106 77z" />
    <glyph glyph-name="ccaron" unicode="&#x10d;" horiz-adv-x="516" 
d="M414 120l28 -60c-63 -48 -134 -72 -213 -72c-120 0 -193 84 -193 223c0 206 126 326 285 326c113 0 170 -56 170 -157c0 -17 -1 -30 -2 -39h-81c0 4 1 14 1 17c0 69 -31 101 -96 101c-55 0 -99 -22 -134 -66c-34 -43 -51 -101 -51 -174c0 -93 42 -155 123 -155
c56 0 99 16 163 56zM477 729l-129 -147h-59l-82 146l52 32l73 -104l107 106z" />
    <glyph glyph-name="Dcaron" unicode="&#x10e;" horiz-adv-x="680" 
d="M342 636h-118l-92 -553h118c200 0 300 115 300 345c0 139 -69 208 -208 208zM27 0l120 720h205c195 0 295 -96 295 -281c0 -296 -141 -439 -429 -439h-191zM516 876l-118 -111h-60l-85 111l46 37l81 -77l106 77z" />
    <glyph glyph-name="dcaron" unicode="&#x10f;" horiz-adv-x="641" 
d="M458 0h-75l6 71c-41 -44 -103 -83 -182 -83c-115 0 -171 77 -171 205c0 103 25 186 74 249s113 95 192 95c63 0 112 -26 147 -78l43 261h86zM397 151l37 217c-34 59 -79 88 -136 88c-49 0 -89 -22 -121 -66s-48 -103 -48 -177c0 -76 19 -145 104 -145c60 0 121 39 164 83
zM690 532h-71l61 188h91z" />
    <glyph glyph-name="Dcroat" unicode="&#x110;" horiz-adv-x="703" 
d="M105 328h-72l13 78h72l52 314h205c195 0 295 -96 295 -281c0 -296 -141 -439 -429 -439h-191zM364 636h-118l-38 -230h183l-13 -78h-183l-41 -245h118c201 0 301 115 301 345c0 139 -70 208 -209 208z" />
    <glyph glyph-name="dcroat" unicode="&#x111;" horiz-adv-x="582" 
d="M304 576l12 68h165l12 76h86l-12 -76h63l-12 -68h-63l-96 -576h-78l9 71c-32 -32 -94 -83 -182 -83c-117 0 -172 75 -172 199c0 197 107 321 258 321c76 0 121 -39 150 -82l25 150h-165zM397 143l34 201c-18 31 -58 83 -128 83c-101 0 -175 -76 -175 -220
c0 -76 31 -139 119 -139c67 0 121 46 150 75z" />
    <glyph glyph-name="Emacron" unicode="&#x112;" horiz-adv-x="578" 
d="M480 0h-453l120 720h446l-14 -84h-355l-38 -228h323l-14 -84h-323l-40 -241h362zM506 785h-269l11 67h269z" />
    <glyph glyph-name="emacron" unicode="&#x113;" horiz-adv-x="530" 
d="M415 117l28 -59c-63 -47 -133 -70 -210 -70c-127 0 -198 72 -198 211c0 196 124 342 289 338c107 0 163 -60 163 -145c0 -123 -90 -183 -365 -195c0 -57 24 -134 131 -134c51 0 105 18 162 54zM126 264c245 14 276 65 276 128c0 45 -32 72 -89 72c-49 0 -91 -19 -125 -58
c-34 -38 -55 -85 -62 -142zM208 616l11 67h269l-11 -67h-269z" />
    <glyph glyph-name="Ebreve" unicode="&#x114;" horiz-adv-x="578" 
d="M480 0h-453l120 720h446l-14 -84h-355l-38 -228h323l-14 -84h-323l-40 -241h362zM378 829c59 0 80 24 95 69l59 -10c-24 -80 -74 -119 -163 -119c-91 0 -127 34 -127 118l67 11c1 -48 14 -69 69 -69z" />
    <glyph glyph-name="ebreve" unicode="&#x115;" horiz-adv-x="530" 
d="M415 117l28 -59c-63 -47 -133 -70 -210 -70c-127 0 -198 72 -198 211c0 196 124 342 289 338c107 0 163 -60 163 -145c0 -123 -90 -183 -365 -195c0 -57 24 -134 131 -134c51 0 105 18 162 54zM126 264c245 14 276 65 276 128c0 45 -32 72 -89 72c-49 0 -91 -19 -125 -58
c-34 -38 -55 -85 -62 -142zM344 654c57 0 78 26 97 79l59 -10c-24 -88 -76 -129 -165 -129c-88 0 -124 37 -124 121v7l67 11c2 -48 7 -79 66 -79z" />
    <glyph glyph-name="Edotaccent" unicode="&#x116;" horiz-adv-x="578" 
d="M480 0h-453l120 720h446l-14 -84h-355l-38 -228h323l-14 -84h-323l-40 -241h362zM332 813c0 35 30 58 67 58c29 0 47 -16 47 -43c0 -35 -28 -58 -64 -58c-29 0 -50 16 -50 43z" />
    <glyph glyph-name="edotaccent" unicode="&#x117;" horiz-adv-x="530" 
d="M415 117l28 -59c-63 -47 -133 -70 -210 -70c-127 0 -198 72 -198 211c0 196 124 342 289 338c107 0 163 -60 163 -145c0 -123 -90 -183 -365 -195c0 -57 24 -134 131 -134c51 0 105 18 162 54zM126 264c245 14 276 65 276 128c0 45 -32 72 -89 72c-49 0 -91 -19 -125 -58
c-34 -38 -55 -85 -62 -142zM295 659c0 35 31 59 66 59c29 0 47 -17 47 -44c0 -35 -28 -57 -64 -57c-29 0 -49 17 -49 42z" />
    <glyph glyph-name="Eogonek" unicode="&#x118;" horiz-adv-x="572" 
d="M372 0h-351l120 720h446l-14 -84h-355l-38 -228h324l-14 -84h-324l-40 -241h363l-14 -83h-29c-64 -56 -96 -95 -96 -132c0 -17 10 -26 31 -26c13 0 31 4 54 12l9 -51c-27 -16 -67 -29 -104 -29c-51 0 -77 25 -77 65c0 52 36 106 109 161z" />
    <glyph glyph-name="eogonek" unicode="&#x119;" horiz-adv-x="530" 
d="M417 118l26 -60c-19 -13 -42 -28 -54 -35l-31 -16l-26 -13c-67 -35 -104 -86 -104 -126c0 -17 10 -26 31 -26c13 0 31 4 54 12l9 -51c-27 -16 -67 -29 -104 -29c-51 0 -77 25 -77 65c0 48 31 98 92 149c-127 0 -198 72 -198 211c-3 196 121 342 289 338
c107 0 169 -61 169 -145c0 -121 -94 -181 -371 -195c0 -57 24 -134 131 -134c53 0 103 16 164 55zM126 262c236 14 280 65 280 129c0 45 -36 73 -93 73c-49 0 -91 -20 -125 -59s-55 -86 -62 -143z" />
    <glyph glyph-name="Ecaron" unicode="&#x11a;" horiz-adv-x="578" 
d="M480 0h-453l120 720h446l-14 -84h-355l-38 -228h323l-14 -84h-323l-40 -241h362zM528 876l-118 -111h-60l-85 111l46 37l81 -77l106 77z" />
    <glyph glyph-name="ecaron" unicode="&#x11b;" horiz-adv-x="530" 
d="M415 117l28 -59c-63 -47 -133 -70 -210 -70c-127 0 -198 72 -198 211c0 196 124 342 289 338c107 0 163 -60 163 -145c0 -123 -90 -183 -365 -195c0 -57 24 -134 131 -134c51 0 105 18 162 54zM126 264c245 14 276 65 276 128c0 45 -32 72 -89 72c-49 0 -91 -19 -125 -58
c-34 -38 -55 -85 -62 -142zM476 729l-129 -147h-59l-82 146l52 32l73 -104l107 106z" />
    <glyph glyph-name="Gcircumflex" unicode="&#x11c;" horiz-adv-x="694" 
d="M554 296h-162l13 78h241l-46 -273c-75 -75 -168 -113 -279 -113c-193 0 -268 122 -268 288c0 259 140 457 390 457c171 0 226 -81 226 -181c0 -17 -1 -29 -2 -37h-93c1 5 1 11 1 20c0 69 -45 113 -149 113c-178 0 -276 -165 -276 -357c0 -141 64 -222 184 -222
c73 0 138 25 194 74zM302 798l121 111h61l81 -111l-44 -37l-80 77l-107 -77z" />
    <glyph glyph-name="gcircumflex" unicode="&#x11d;" horiz-adv-x="581" 
d="M472 525h74l-85 -507c-29 -176 -110 -228 -261 -228c-65 0 -131 13 -174 33l30 73c52 -19 103 -29 153 -29c56 0 96 12 120 36c24 23 41 63 50 120l8 49c-48 -49 -111 -81 -182 -81c-112 0 -169 79 -169 204c0 177 89 342 269 342c81 0 125 -53 149 -88zM396 144l38 228
c-14 31 -63 85 -127 85c-57 0 -101 -23 -132 -69c-31 -45 -47 -104 -47 -177c0 -92 27 -142 102 -142c61 0 123 36 166 75zM212 610l131 146h60l79 -147l-49 -32l-72 105l-107 -104z" />
    <glyph glyph-name="Gbreve" unicode="&#x11e;" horiz-adv-x="694" 
d="M554 296h-162l13 78h241l-46 -273c-75 -75 -168 -113 -279 -113c-193 0 -268 122 -268 288c0 259 140 457 390 457c171 0 226 -81 226 -181c0 -17 -1 -29 -2 -37h-93c1 5 1 11 1 20c0 69 -45 113 -149 113c-178 0 -276 -165 -276 -357c0 -141 64 -222 184 -222
c73 0 138 25 194 74zM448 829c59 0 80 24 95 69l59 -10c-24 -80 -74 -119 -163 -119c-91 0 -127 34 -127 118l67 11c1 -48 14 -69 69 -69z" />
    <glyph glyph-name="gbreve" unicode="&#x11f;" horiz-adv-x="581" 
d="M472 525h74l-85 -507c-29 -176 -110 -228 -261 -228c-65 0 -131 13 -174 33l30 73c52 -19 103 -29 153 -29c56 0 96 12 120 36c24 23 41 63 50 120l8 49c-48 -49 -111 -81 -182 -81c-112 0 -169 79 -169 204c0 177 89 342 269 342c81 0 125 -53 149 -88zM396 144l38 228
c-14 31 -63 85 -127 85c-57 0 -101 -23 -132 -69c-31 -45 -47 -104 -47 -177c0 -92 27 -142 102 -142c61 0 123 36 166 75zM387 654c57 0 78 26 97 79l59 -10c-24 -88 -76 -129 -165 -129c-88 0 -124 37 -124 121v7l67 11c2 -48 7 -79 66 -79z" />
    <glyph glyph-name="Gdotaccent" unicode="&#x120;" horiz-adv-x="694" 
d="M554 296h-162l13 78h241l-46 -273c-75 -75 -168 -113 -279 -113c-193 0 -268 122 -268 288c0 259 140 457 390 457c171 0 226 -81 226 -181c0 -17 -1 -29 -2 -37h-93c1 5 1 11 1 20c0 69 -45 113 -149 113c-178 0 -276 -165 -276 -357c0 -141 64 -222 184 -222
c73 0 138 25 194 74zM412 813c0 35 30 58 67 58c29 0 47 -16 47 -43c0 -35 -28 -58 -64 -58c-29 0 -50 16 -50 43z" />
    <glyph glyph-name="gdotaccent" unicode="&#x121;" horiz-adv-x="581" 
d="M472 525h74l-85 -507c-29 -176 -110 -228 -261 -228c-65 0 -131 13 -174 33l30 73c52 -19 103 -29 153 -29c56 0 96 12 120 36c24 23 41 63 50 120l8 49c-48 -49 -111 -81 -182 -81c-112 0 -169 79 -169 204c0 177 89 342 269 342c81 0 125 -53 149 -88zM396 144l38 228
c-14 31 -63 85 -127 85c-57 0 -101 -23 -132 -69c-31 -45 -47 -104 -47 -177c0 -92 27 -142 102 -142c61 0 123 36 166 75zM309 659c0 35 31 59 66 59c29 0 47 -17 47 -44c0 -35 -28 -57 -64 -57c-29 0 -49 17 -49 42z" />
    <glyph glyph-name="Gcommaaccent" unicode="&#x122;" horiz-adv-x="694" 
d="M554 296h-162l13 78h241l-46 -273c-75 -75 -168 -113 -279 -113c-193 0 -268 122 -268 288c0 259 140 457 390 457c171 0 226 -81 226 -181c0 -17 -1 -29 -2 -37h-93c1 5 1 11 1 20c0 69 -45 113 -149 113c-178 0 -276 -165 -276 -357c0 -141 64 -222 184 -222
c73 0 138 25 194 74zM277 -243l-60 20l67 163l76 -21z" />
    <glyph glyph-name="gcommaaccent" unicode="&#x123;" horiz-adv-x="581" 
d="M472 525h74l-85 -507c-29 -176 -110 -228 -261 -228c-65 0 -131 13 -174 33l30 73c52 -19 103 -29 153 -29c56 0 96 12 120 36c24 23 41 63 50 120l8 49c-48 -49 -111 -81 -182 -81c-112 0 -169 79 -169 204c0 177 89 342 269 342c81 0 125 -53 149 -88zM396 144l38 228
c-14 31 -63 85 -127 85c-57 0 -101 -23 -132 -69c-31 -45 -47 -104 -47 -177c0 -92 27 -142 102 -142c61 0 123 36 166 75zM405 771l61 -19l-69 -167l-77 23z" />
    <glyph glyph-name="Hcircumflex" unicode="&#x124;" horiz-adv-x="682" 
d="M118 0h-91l120 720h91l-51 -305h346l51 305h91l-120 -720h-91l55 329h-346zM290 798l121 111h61l81 -111l-44 -37l-80 77l-107 -77z" />
    <glyph glyph-name="hcircumflex" unicode="&#x125;" horiz-adv-x="556" 
d="M22 0l120 720h86l-44 -268c58 57 118 85 181 85c87 0 130 -45 130 -135c0 -15 -2 -35 -5 -58l-58 -344h-87l54 323c4 25 6 43 6 54c0 49 -21 79 -78 79c-56 0 -116 -39 -156 -79l-63 -377h-86zM70 778l121 111h61l81 -111l-44 -37l-80 77l-107 -77z" />
    <glyph glyph-name="Hbar" unicode="&#x126;" horiz-adv-x="717" 
d="M133 534h-64l13 73h64l18 113h90l-18 -113h347l18 113h90l-18 -113h60l-13 -73h-60l-89 -534h-90l55 329h-347l-55 -329h-90zM223 534l-20 -119h347l20 119h-347z" />
    <glyph glyph-name="hbar" unicode="&#x127;" horiz-adv-x="556" 
d="M130 644l12 76h86l-12 -76h163l-12 -68h-163l-27 -164c58 57 118 85 181 85c87 0 130 -45 130 -135c0 -15 -2 -35 -5 -58l-51 -304h-87l47 283c4 25 6 44 6 56c0 48 -21 77 -77 77s-114 -38 -157 -79l-56 -337h-86l96 576h-65l12 68h65z" />
    <glyph glyph-name="Itilde" unicode="&#x128;" horiz-adv-x="245" 
d="M118 0h-91l120 720h91zM318 883l44 -17c-29 -63 -58 -86 -99 -86c-16 0 -37 5 -64 16s-44 16 -52 16c-16 0 -26 -7 -46 -35l-43 19c36 61 61 84 96 84c15 0 35 -5 60 -16s44 -16 57 -16c20 0 28 7 47 35z" />
    <glyph glyph-name="itilde" unicode="&#x129;" horiz-adv-x="240" 
d="M286 707l44 -17c-29 -63 -58 -86 -99 -86c-16 0 -37 5 -64 16s-44 16 -52 16c-16 0 -26 -7 -46 -35l-43 19c36 61 61 84 96 84c15 0 35 -5 60 -16s44 -16 57 -16c20 0 28 7 47 35zM116 523h85l-88 -523h-85z" />
    <glyph glyph-name="Imacron" unicode="&#x12a;" horiz-adv-x="245" 
d="M118 0h-91l120 720h91zM334 785h-269l11 67h269z" />
    <glyph glyph-name="imacron" unicode="&#x12b;" horiz-adv-x="240" 
d="M38 616l11 67h269l-11 -67h-269zM116 523h85l-88 -523h-85z" />
    <glyph glyph-name="Ibreve" unicode="&#x12c;" horiz-adv-x="245" 
d="M118 0h-91l120 720h91zM203 829c59 0 80 24 95 69l59 -10c-24 -80 -74 -119 -163 -119c-91 0 -127 34 -127 118l67 11c1 -48 14 -69 69 -69z" />
    <glyph glyph-name="ibreve" unicode="&#x12d;" horiz-adv-x="240" 
d="M170 654c57 0 78 26 97 79l59 -10c-24 -88 -76 -129 -165 -129c-88 0 -124 37 -124 121v7l67 11c2 -48 7 -79 66 -79zM116 523h85l-88 -523h-85z" />
    <glyph glyph-name="Iogonek" unicode="&#x12e;" horiz-adv-x="245" 
d="M44 0h-17l120 720h91l-120 -720c-64 -56 -96 -95 -96 -132c0 -19 8 -26 31 -26c13 0 31 4 53 12l10 -51c-33 -19 -68 -29 -105 -29c-51 0 -76 25 -76 64c0 52 36 106 109 162z" />
    <glyph glyph-name="iogonek" unicode="&#x12f;" horiz-adv-x="242" 
d="M116 525h86l-88 -525c-64 -56 -96 -95 -96 -132c0 -19 8 -26 31 -26c13 0 31 4 53 12l10 -51c-27 -16 -67 -29 -104 -29c-51 0 -77 25 -77 64c0 52 36 106 109 162h-12zM126 659c0 35 31 59 66 59c29 0 47 -17 47 -44c0 -35 -28 -57 -64 -57c-29 0 -49 17 -49 42z" />
    <glyph glyph-name="Idotaccent" unicode="&#x130;" horiz-adv-x="245" 
d="M118 0h-91l120 720h91zM152 813c0 35 30 58 67 58c29 0 47 -16 47 -43c0 -35 -28 -58 -64 -58c-29 0 -50 16 -50 43z" />
    <glyph glyph-name="dotlessi" unicode="&#x131;" horiz-adv-x="241" 
d="M116 523h85l-88 -523h-85z" />
    <glyph glyph-name="IJ" unicode="&#x132;" horiz-adv-x="632" 
d="M118 0h-91l120 720h91zM537 720h90l-92 -554c-21 -123 -78 -178 -185 -178c-59 0 -105 9 -138 26l31 76c30 -14 62 -21 97 -21c67 0 93 26 108 114z" />
    <glyph glyph-name="ij" unicode="&#x133;" horiz-adv-x="452" 
d="M116 525h86l-88 -525h-86zM126 659c0 35 31 59 66 59c29 0 47 -17 47 -44c0 -35 -28 -57 -64 -57c-29 0 -49 17 -49 42zM338 659c0 35 31 59 66 59c29 0 47 -17 47 -44c0 -35 -28 -57 -64 -57c-29 0 -49 17 -49 42zM328 525h85l-99 -593c-15 -91 -54 -135 -139 -135
c-31 0 -54 3 -71 10l18 67c11 -4 25 -6 43 -6c37 0 56 15 65 71z" />
    <glyph glyph-name="Jcircumflex" unicode="&#x134;" horiz-adv-x="388" 
d="M293 720h90l-92 -554c-21 -123 -78 -178 -185 -178c-59 0 -105 9 -138 26l31 76c30 -14 62 -21 97 -21c67 0 93 26 108 114zM213 798l121 111h61l81 -111l-44 -37l-80 77l-107 -77z" />
    <glyph glyph-name="jcircumflex" unicode="&#x135;" horiz-adv-x="240" 
d="M116 525h85l-99 -593c-15 -91 -54 -135 -139 -135c-31 0 -54 3 -71 10l18 67c11 -4 25 -6 43 -6c37 0 56 15 65 71zM32 610l131 146h60l79 -147l-49 -32l-72 105l-107 -104z" />
    <glyph glyph-name="Kcommaaccent" unicode="&#x136;" horiz-adv-x="623" 
d="M118 0h-91l120 720h91l-51 -310h125l228 310h100l-256 -346l170 -374h-104l-152 330h-125zM211 -243l-60 20l67 163l76 -21z" />
    <glyph glyph-name="kcommaaccent" unicode="&#x137;" horiz-adv-x="510" 
d="M142 720h86l-65 -391h57l190 196h99l-224 -232l160 -293h-102l-140 255h-52l-43 -255h-86zM82 -243l-60 20l67 163l76 -21z" />
    <glyph glyph-name="kgreenlandic" unicode="&#x138;" horiz-adv-x="503" 
d="M98 525h86l-34 -202h54l199 202h94l-229 -236l167 -289h-95l-150 253h-52l-42 -253h-86z" />
    <glyph glyph-name="Lacute" unicode="&#x139;" horiz-adv-x="515" 
d="M27 0l120 720h91l-106 -637h321l-14 -83h-412zM152 754l-22 58l183 103l25 -76z" />
    <glyph glyph-name="lacute" unicode="&#x13a;" horiz-adv-x="232" 
d="M229 720l-120 -720h-86l120 720h86zM113 754l-22 58l183 103l25 -76z" />
    <glyph glyph-name="Lcommaaccent" unicode="&#x13b;" horiz-adv-x="515" 
d="M27 0l120 720h91l-106 -637h321l-14 -83h-412zM182 -243l-60 20l67 163l76 -21z" />
    <glyph glyph-name="lcommaaccent" unicode="&#x13c;" horiz-adv-x="232" 
d="M229 720l-120 -720h-86l120 720h86zM5 -243l-60 20l67 163l76 -21z" />
    <glyph glyph-name="Lcaron" unicode="&#x13d;" horiz-adv-x="515" 
d="M27 0l120 720h91l-106 -637h321l-14 -83h-412zM443 532h-71l61 188h91z" />
    <glyph glyph-name="lcaron" unicode="&#x13e;" horiz-adv-x="285" 
d="M229 720l-120 -720h-86l120 720h86zM330 532h-71l61 188h91z" />
    <glyph glyph-name="Ldot" unicode="&#x13f;" horiz-adv-x="516" 
d="M334 365c0 40 30 64 69 64c32 0 52 -18 52 -47c0 -37 -31 -63 -71 -63c-29 0 -50 17 -50 46zM27 0l120 720h91l-106 -637h321l-14 -83h-412z" />
    <glyph glyph-name="ldot" unicode="&#x140;" horiz-adv-x="337" 
d="M228 347c0 40 31 63 70 63c32 0 51 -16 51 -45c0 -40 -30 -65 -70 -65c-29 0 -51 18 -51 47zM229 720l-120 -720h-86l120 720h86z" />
    <glyph glyph-name="Lslash" unicode="&#x141;" horiz-adv-x="515" 
d="M89 369l58 351h91l-53 -320l212 78l-12 -70l-212 -78l-41 -248h321l-14 -82h-412l50 300l-91 -36l12 70z" />
    <glyph glyph-name="lslash" unicode="&#x142;" horiz-adv-x="251" 
d="M84 317l-74 -31l12 70l74 31l55 333h86l-50 -302l84 36l-12 -69l-84 -37l-58 -348h-86z" />
    <glyph glyph-name="Nacute" unicode="&#x143;" horiz-adv-x="686" 
d="M116 0h-89l120 720h82l270 -559l91 559h89l-120 -720h-79l-272 558zM372 754l-22 58l183 103l25 -76z" />
    <glyph glyph-name="nacute" unicode="&#x144;" horiz-adv-x="556" 
d="M22 0l88 525h74l-7 -77c53 53 118 89 185 89c89 0 133 -45 133 -135c0 -15 -2 -35 -5 -58l-58 -344h-87l54 322c3 16 4 32 4 49c0 59 -25 86 -74 86c-29 0 -59 -9 -88 -27c-29 -17 -53 -35 -70 -53l-63 -377h-86zM302 583l-34 50l164 137l41 -64z" />
    <glyph glyph-name="Ncommaaccent" unicode="&#x145;" horiz-adv-x="686" 
d="M116 0h-89l120 720h82l270 -559l91 559h89l-120 -720h-79l-272 558zM247 -243l-60 20l67 163l76 -21z" />
    <glyph glyph-name="ncommaaccent" unicode="&#x146;" horiz-adv-x="556" 
d="M22 0l88 525h74l-7 -77c53 53 118 89 185 89c89 0 133 -45 133 -135c0 -15 -2 -35 -5 -58l-58 -344h-87l54 322c3 16 4 32 4 49c0 59 -25 86 -74 86c-29 0 -59 -9 -88 -27c-29 -17 -53 -35 -70 -53l-63 -377h-86zM189 -243l-60 20l67 163l76 -21z" />
    <glyph glyph-name="Ncaron" unicode="&#x147;" horiz-adv-x="686" 
d="M116 0h-89l120 720h82l270 -559l91 559h89l-120 -720h-79l-272 558zM569 876l-118 -111h-60l-85 111l46 37l81 -77l106 77z" />
    <glyph glyph-name="ncaron" unicode="&#x148;" horiz-adv-x="556" 
d="M22 0l88 525h74l-7 -77c53 53 118 89 185 89c89 0 133 -45 133 -135c0 -15 -2 -35 -5 -58l-58 -344h-87l54 322c3 16 4 32 4 49c0 59 -25 86 -74 86c-29 0 -59 -9 -88 -27c-29 -17 -53 -35 -70 -53l-63 -377h-86zM485 729l-129 -147h-59l-82 146l52 32l73 -104l107 106z
" />
    <glyph glyph-name="napostrophe" unicode="&#x149;" horiz-adv-x="574" 
d="M19 640c0 32 24 53 59 53c28 0 43 -21 43 -50c0 -57 -29 -104 -109 -139l-10 29c44 24 56 39 63 70h-7c-24 0 -39 14 -39 37zM40 0l88 525h74l-7 -77c53 53 118 89 185 89c89 0 133 -45 133 -135c0 -15 -2 -35 -5 -58l-58 -344h-87l54 322c3 16 4 32 4 49
c0 59 -25 86 -74 86c-29 0 -59 -9 -88 -27c-29 -17 -53 -35 -70 -53l-63 -377h-86z" />
    <glyph glyph-name="Eng" unicode="&#x14a;" horiz-adv-x="686" 
d="M116 0h-89l120 720h82l270 -549l91 549h89l-129 -771c-16 -93 -69 -152 -170 -152c-39 0 -88 9 -107 17l19 66c13 -5 50 -13 81 -13c51 0 81 29 91 88l10 55l-266 540z" />
    <glyph glyph-name="eng" unicode="&#x14b;" horiz-adv-x="553" 
d="M22 0l88 525h74l-7 -77c53 53 117 89 181 89c89 0 134 -45 134 -135c0 -19 -2 -39 -6 -61l-68 -406c-16 -89 -55 -138 -140 -138c-30 0 -53 3 -70 10l17 64c17 -4 32 -6 43 -6c37 0 56 15 64 70l66 392c3 21 5 38 5 50c0 59 -24 86 -83 86c-45 0 -95 -28 -148 -83
l-64 -380h-86z" />
    <glyph glyph-name="Omacron" unicode="&#x14c;" horiz-adv-x="746" 
d="M159 374c-6 -39 -9 -72 -9 -100c0 -136 68 -205 185 -205c149 0 241 97 275 291c4 23 6 51 6 85c0 129 -69 203 -184 203c-141 0 -244 -98 -273 -274zM61 367c38 245 197 366 386 366c165 0 266 -102 266 -282c0 -21 -2 -49 -7 -84c-41 -272 -200 -379 -381 -379
c-169 0 -272 96 -272 283c0 28 3 60 8 96zM585 785h-269l11 67h269z" />
    <glyph glyph-name="omacron" unicode="&#x14d;" horiz-adv-x="574" 
d="M129 264c-3 -24 -5 -45 -5 -63c0 -90 40 -135 120 -135c88 0 160 66 181 195c3 23 5 42 5 57c0 93 -47 141 -122 141c-88 0 -158 -67 -179 -195zM37 260c13 89 45 157 97 205c53 48 116 72 190 72c125 0 198 -76 198 -209c0 -25 -2 -47 -5 -66
c-29 -189 -146 -274 -287 -274c-128 0 -198 74 -198 207c0 18 2 40 5 65zM208 616l11 67h269l-11 -67h-269z" />
    <glyph glyph-name="Obreve" unicode="&#x14e;" horiz-adv-x="746" 
d="M159 374c-6 -39 -9 -72 -9 -100c0 -136 68 -205 185 -205c149 0 241 97 275 291c4 23 6 51 6 85c0 129 -69 203 -184 203c-141 0 -244 -98 -273 -274zM61 367c38 245 197 366 386 366c165 0 266 -102 266 -282c0 -21 -2 -49 -7 -84c-41 -272 -200 -379 -381 -379
c-169 0 -272 96 -272 283c0 28 3 60 8 96zM452 829c59 0 80 24 95 69l59 -10c-24 -80 -74 -119 -163 -119c-91 0 -127 34 -127 118l67 11c1 -48 14 -69 69 -69z" />
    <glyph glyph-name="obreve" unicode="&#x14f;" horiz-adv-x="574" 
d="M129 264c-3 -24 -5 -45 -5 -63c0 -90 40 -135 120 -135c88 0 160 66 181 195c3 23 5 42 5 57c0 93 -47 141 -122 141c-88 0 -158 -67 -179 -195zM37 260c13 89 45 157 97 205c53 48 116 72 190 72c125 0 198 -76 198 -209c0 -25 -2 -47 -5 -66
c-29 -189 -146 -274 -287 -274c-128 0 -198 74 -198 207c0 18 2 40 5 65zM344 654c57 0 78 26 97 79l59 -10c-24 -88 -76 -129 -165 -129c-88 0 -124 37 -124 121v7l67 11c2 -48 7 -79 66 -79z" />
    <glyph glyph-name="Ohungarumlaut" unicode="&#x150;" horiz-adv-x="746" 
d="M159 374c-6 -39 -9 -72 -9 -100c0 -136 68 -205 185 -205c149 0 241 97 275 291c4 23 6 51 6 85c0 129 -69 203 -184 203c-141 0 -244 -98 -273 -274zM61 367c38 245 197 366 386 366c165 0 266 -102 266 -282c0 -21 -2 -49 -7 -84c-41 -272 -200 -379 -381 -379
c-169 0 -272 96 -272 283c0 28 3 60 8 96zM307 795l141 148l53 -51l-151 -138zM451 798l134 131l51 -54l-144 -122z" />
    <glyph glyph-name="ohungarumlaut" unicode="&#x151;" horiz-adv-x="574" 
d="M129 264c-3 -24 -5 -45 -5 -63c0 -90 40 -135 120 -135c88 0 160 66 181 195c3 23 5 42 5 57c0 93 -47 141 -122 141c-88 0 -158 -67 -179 -195zM37 260c13 89 45 157 97 205c53 48 116 72 190 72c125 0 198 -76 198 -209c0 -25 -2 -47 -5 -66
c-29 -189 -146 -274 -287 -274c-128 0 -198 74 -198 207c0 18 2 40 5 65zM217 618l117 155l68 -41l-131 -150zM359 617l116 142l63 -44l-127 -134z" />
    <glyph glyph-name="OE" unicode="&#x152;" horiz-adv-x="1096" 
d="M997 0h-446l24 143c-56 -101 -157 -155 -270 -155c-153 0 -251 101 -251 293c0 144 44 265 113 338c71 73 164 113 268 113c109 0 192 -54 213 -150l23 138h439l-13 -82h-356l-39 -230h324l-13 -78h-324l-41 -248h363zM151 295c0 -144 67 -222 183 -222
c152 0 281 109 281 360c0 143 -72 214 -185 214c-83 0 -150 -32 -202 -95c-51 -63 -77 -149 -77 -257z" />
    <glyph glyph-name="oe" unicode="&#x153;" horiz-adv-x="920" 
d="M35 201c0 103 28 184 83 245s127 91 215 91c80 0 144 -44 167 -117c45 72 127 117 214 117c107 0 169 -60 169 -145c0 -120 -102 -185 -371 -195c0 -57 24 -134 131 -134c53 0 101 16 164 55l24 -60c-63 -47 -132 -70 -208 -70c-85 0 -151 43 -176 116
c-43 -72 -130 -116 -219 -116c-123 0 -193 77 -193 213zM127 214c0 -99 46 -148 119 -148c132 0 188 124 188 243c0 99 -48 150 -121 150c-53 0 -98 -22 -133 -65s-53 -103 -53 -180zM703 464c-93 0 -166 -74 -187 -202c225 7 280 66 280 129c0 45 -34 73 -93 73z" />
    <glyph glyph-name="Racute" unicode="&#x154;" horiz-adv-x="618" 
d="M27 0l120 720h228c141 0 213 -67 213 -176s-51 -188 -153 -235l104 -309h-100l-95 286c-23 -4 -47 -6 -73 -6h-106l-47 -280h-91zM359 639h-134l-47 -281h127c128 0 189 62 189 173c0 72 -45 108 -135 108zM303 754l-22 58l183 103l25 -76z" />
    <glyph glyph-name="racute" unicode="&#x155;" horiz-adv-x="328" 
d="M110 525h71l-8 -80c35 53 84 92 132 92c15 0 30 -3 46 -9l-23 -86c-9 4 -24 6 -43 6c-41 0 -88 -41 -116 -85l-61 -363h-86zM184 583l-34 50l164 137l41 -64z" />
    <glyph glyph-name="Rcommaaccent" unicode="&#x156;" horiz-adv-x="618" 
d="M27 0l120 720h228c141 0 213 -67 213 -176s-51 -188 -153 -235l104 -309h-100l-95 286c-23 -4 -47 -6 -73 -6h-106l-47 -280h-91zM359 639h-134l-47 -281h127c128 0 189 62 189 173c0 72 -45 108 -135 108zM230 -243l-60 20l67 163l76 -21z" />
    <glyph glyph-name="rcommaaccent" unicode="&#x157;" horiz-adv-x="328" 
d="M110 525h71l-8 -80c35 53 84 92 132 92c15 0 30 -3 46 -9l-23 -86c-9 4 -24 6 -43 6c-41 0 -88 -41 -116 -85l-61 -363h-86zM9 -243l-60 20l67 163l76 -21z" />
    <glyph glyph-name="Rcaron" unicode="&#x158;" horiz-adv-x="618" 
d="M27 0l120 720h228c141 0 213 -67 213 -176s-51 -188 -153 -235l104 -309h-100l-95 286c-23 -4 -47 -6 -73 -6h-106l-47 -280h-91zM359 639h-134l-47 -281h127c128 0 189 62 189 173c0 72 -45 108 -135 108zM503 876l-118 -111h-60l-85 111l46 37l81 -77l106 77z" />
    <glyph glyph-name="rcaron" unicode="&#x159;" horiz-adv-x="328" 
d="M110 525h71l-8 -80c35 53 84 92 132 92c15 0 30 -3 46 -9l-23 -86c-9 4 -24 6 -43 6c-41 0 -88 -41 -116 -85l-61 -363h-86zM399 729l-129 -147h-59l-82 146l52 32l73 -104l107 106z" />
    <glyph glyph-name="Sacute" unicode="&#x15a;" horiz-adv-x="568" 
d="M-2 99l60 60c57 -62 119 -93 185 -93c97 0 167 55 167 146c0 56 -36 88 -139 121c-125 41 -178 92 -178 177c0 150 114 223 261 223c91 0 166 -35 215 -103l-59 -57c-40 53 -100 82 -163 82c-96 0 -158 -44 -158 -121c0 -28 11 -50 24 -66c7 -7 18 -15 33 -23
c29 -15 48 -23 95 -40c117 -43 167 -90 167 -182c0 -69 -25 -126 -76 -170c-51 -43 -116 -65 -196 -65c-101 0 -187 42 -238 111zM306 754l-22 58l183 103l25 -76z" />
    <glyph glyph-name="sacute" unicode="&#x15b;" horiz-adv-x="480" 
d="M-9 73l50 56c43 -41 98 -67 150 -67c76 0 123 36 123 92c0 39 -25 56 -105 77c-99 27 -142 65 -142 130c0 53 20 96 59 128c40 32 91 48 154 48c74 0 132 -26 175 -78l-49 -53c-38 40 -83 60 -135 60c-69 0 -112 -32 -112 -84c0 -39 27 -54 110 -78
c99 -27 141 -65 141 -130c0 -56 -21 -101 -63 -135c-41 -34 -95 -51 -162 -51c-83 0 -153 34 -194 85zM236 583l-34 50l164 137l41 -64z" />
    <glyph glyph-name="Scircumflex" unicode="&#x15c;" horiz-adv-x="568" 
d="M-2 99l60 60c57 -62 119 -93 185 -93c97 0 167 55 167 146c0 56 -36 88 -139 121c-125 41 -178 92 -178 177c0 150 114 223 261 223c91 0 166 -35 215 -103l-59 -57c-40 53 -100 82 -163 82c-96 0 -158 -44 -158 -121c0 -28 11 -50 24 -66c7 -7 18 -15 33 -23
c29 -15 48 -23 95 -40c117 -43 167 -90 167 -182c0 -69 -25 -126 -76 -170c-51 -43 -116 -65 -196 -65c-101 0 -187 42 -238 111zM243 798l121 111h61l81 -111l-44 -37l-80 77l-107 -77z" />
    <glyph glyph-name="scircumflex" unicode="&#x15d;" horiz-adv-x="480" 
d="M-9 73l50 56c43 -41 98 -67 150 -67c76 0 123 36 123 92c0 39 -25 56 -105 77c-99 27 -142 65 -142 130c0 53 20 96 59 128c40 32 91 48 154 48c74 0 132 -26 175 -78l-49 -53c-38 40 -83 60 -135 60c-69 0 -112 -32 -112 -84c0 -39 27 -54 110 -78
c99 -27 141 -65 141 -130c0 -56 -21 -101 -63 -135c-41 -34 -95 -51 -162 -51c-83 0 -153 34 -194 85zM165 610l131 146h60l79 -147l-49 -32l-72 105l-107 -104z" />
    <glyph glyph-name="Scedilla" unicode="&#x15e;" horiz-adv-x="568" 
d="M123 -196l19 48c21 -8 40 -12 59 -12c32 0 48 12 48 37c0 20 -17 26 -56 26h-21l32 86c-88 7 -161 47 -206 110l60 60c57 -62 119 -93 185 -93c97 0 167 55 167 146c0 56 -35 86 -139 119c-128 43 -178 88 -178 172c0 150 119 230 265 230c92 0 162 -34 211 -103l-59 -57
c-40 53 -100 82 -163 82c-91 0 -158 -47 -158 -127c0 -31 14 -55 41 -73c16 -9 26 -14 49 -25l66 -25c116 -41 163 -89 163 -172c0 -69 -23 -126 -70 -170c-47 -43 -107 -68 -180 -74l-15 -41c51 -3 76 -23 76 -62c0 -64 -44 -98 -119 -98c-29 0 -64 8 -77 16z" />
    <glyph glyph-name="scedilla" unicode="&#x15f;" horiz-adv-x="480" 
d="M59 -196l20 48c21 -8 40 -12 59 -12c31 0 47 12 47 37c0 20 -18 26 -55 26h-21l33 89c-63 8 -116 40 -149 81l50 56c43 -41 98 -67 150 -67c76 0 123 35 123 91c0 39 -30 59 -111 80c-97 27 -137 62 -137 126c0 108 86 178 214 178c74 0 132 -26 175 -78l-49 -53
c-38 40 -83 60 -135 60c-69 0 -110 -31 -110 -82c0 -39 30 -56 110 -80c99 -29 139 -65 139 -130c0 -55 -20 -100 -60 -134c-40 -33 -92 -51 -157 -52l-15 -40c51 -3 76 -23 76 -62c0 -64 -44 -98 -120 -98c-30 0 -56 5 -77 16z" />
    <glyph glyph-name="Scaron" unicode="&#x160;" horiz-adv-x="568" 
d="M-2 99l60 60c57 -62 119 -93 185 -93c97 0 167 55 167 146c0 56 -36 88 -139 121c-125 41 -178 92 -178 177c0 150 114 223 261 223c91 0 166 -35 215 -103l-59 -57c-40 53 -100 82 -163 82c-96 0 -158 -44 -158 -121c0 -28 11 -50 24 -66c7 -7 18 -15 33 -23
c29 -15 48 -23 95 -40c117 -43 167 -90 167 -182c0 -69 -25 -126 -76 -170c-51 -43 -116 -65 -196 -65c-101 0 -187 42 -238 111zM513 888l-118 -111h-60l-85 111l46 37l81 -77l106 77z" />
    <glyph glyph-name="scaron" unicode="&#x161;" horiz-adv-x="480" 
d="M-9 73l50 56c43 -41 98 -67 150 -67c76 0 123 36 123 92c0 39 -25 56 -105 77c-99 27 -142 65 -142 130c0 53 20 96 59 128c40 32 91 48 154 48c74 0 132 -26 175 -78l-49 -53c-38 40 -83 60 -135 60c-69 0 -112 -32 -112 -84c0 -39 27 -54 110 -78
c99 -27 141 -65 141 -130c0 -56 -21 -101 -63 -135c-41 -34 -95 -51 -162 -51c-83 0 -153 34 -194 85zM450 729l-129 -147h-59l-82 146l52 32l73 -104l107 106z" />
    <glyph glyph-name="Scommaaccent" unicode="&#x218;" horiz-adv-x="568" 
d="M-2 99l60 60c57 -62 119 -93 185 -93c97 0 167 55 167 146c0 56 -36 88 -139 121c-125 41 -178 92 -178 177c0 150 114 223 261 223c91 0 166 -35 215 -103l-59 -57c-40 53 -100 82 -163 82c-96 0 -158 -44 -158 -121c0 -28 11 -50 24 -66c7 -7 18 -15 33 -23
c29 -15 48 -23 95 -40c117 -43 167 -90 167 -182c0 -69 -25 -126 -76 -170c-51 -43 -116 -65 -196 -65c-101 0 -187 42 -238 111zM198 -243l-60 20l67 163l76 -21z" />
    <glyph glyph-name="scommaaccent" unicode="&#x219;" horiz-adv-x="480" 
d="M-9 73l50 56c43 -41 98 -67 150 -67c76 0 123 36 123 92c0 39 -25 56 -105 77c-99 27 -142 65 -142 130c0 53 20 96 59 128c40 32 91 48 154 48c74 0 132 -26 175 -78l-49 -53c-38 40 -83 60 -135 60c-69 0 -112 -32 -112 -84c0 -39 27 -54 110 -78
c99 -27 141 -65 141 -130c0 -56 -21 -101 -63 -135c-41 -34 -95 -51 -162 -51c-83 0 -153 34 -194 85zM130 -243l-60 20l67 163l76 -21z" />
    <glyph glyph-name="uni021A" unicode="&#x21a;" horiz-adv-x="562" 
d="M277 0h-91l106 636h-218l14 84h526l-14 -84h-217zM169 -243l-60 20l67 163l76 -21z" />
    <glyph glyph-name="uni021B" unicode="&#x21b;" horiz-adv-x="299" 
d="M295 525l-12 -72h-83l-58 -347c-1 -3 -1 -8 -1 -15c0 -20 11 -30 32 -30c15 0 31 3 48 9l-1 -65c-29 -11 -60 -17 -92 -17c-51 0 -76 24 -76 73c0 8 1 18 3 29l61 363h-65l9 55l69 16l34 146h73l-24 -145h83zM77 -243l-60 20l67 163l76 -21z" />
    <glyph glyph-name="Tcaron" unicode="&#x164;" horiz-adv-x="562" 
d="M277 0h-91l106 636h-218l14 84h526l-14 -84h-217zM501 876l-118 -111h-60l-85 111l46 37l81 -77l106 77z" />
    <glyph glyph-name="tcaron" unicode="&#x165;" horiz-adv-x="299" 
d="M295 525l-12 -72h-83l-58 -347c-1 -3 -1 -8 -1 -15c0 -20 11 -30 32 -30c15 0 31 3 48 9l-1 -65c-29 -11 -60 -17 -92 -17c-51 0 -76 24 -76 73c0 8 1 18 3 29l61 363h-65l9 55l69 16l34 146h73l-24 -145h83zM359 580h-71l61 188h91z" />
    <glyph glyph-name="Tbar" unicode="&#x166;" horiz-adv-x="562" 
d="M241 326h-118l12 77h118l39 233h-218l14 84h526l-14 -84h-217l-39 -233h126l-12 -77h-126l-55 -326h-91z" />
    <glyph glyph-name="tbar" unicode="&#x167;" horiz-adv-x="299" 
d="M298 525l-12 -72h-83l-20 -118h83l-11 -68h-83l-27 -161c-1 -3 -1 -8 -1 -15c0 -20 11 -30 32 -30c15 0 31 3 48 9l-1 -65c-29 -11 -60 -17 -92 -17c-51 0 -76 24 -76 73c0 8 1 18 3 29l30 177h-65l11 68h65l20 118h-65l9 55l69 16l34 146h73l-24 -145h83z" />
    <glyph glyph-name="uni0162" unicode="&#x162;" horiz-adv-x="562" 
d="M198 0h-12l106 636h-218l14 84h526l-14 -84h-217l-106 -636h-26l-18 -52c50 -3 75 -23 75 -62c0 -64 -46 -98 -119 -98c-30 0 -56 5 -77 16l20 48c19 -8 39 -12 58 -12c32 0 48 12 48 37c0 20 -18 26 -55 26h-22z" />
    <glyph glyph-name="uni0163" unicode="&#x163;" horiz-adv-x="299" 
d="M3 -196l20 48c19 -8 39 -12 58 -12c32 0 48 12 48 37c0 20 -17 26 -56 26h-21l34 94c-21 11 -31 32 -31 63c0 9 1 19 3 30l61 363h-65l9 55l69 16l34 146h73l-24 -145h83l-12 -72h-83l-58 -347c-1 -3 -1 -8 -1 -15c0 -20 11 -30 32 -30c15 0 31 3 48 9l-1 -65
c-27 -11 -55 -16 -85 -17l-15 -40c51 -3 76 -23 76 -62c0 -64 -44 -98 -119 -98c-29 0 -64 8 -77 16z" />
    <glyph glyph-name="Utilde" unicode="&#x168;" horiz-adv-x="673" 
d="M67 268l75 452h90l-74 -444c-3 -23 -5 -42 -5 -57c0 -99 53 -149 148 -149c123 0 183 67 206 206l74 444h90l-75 -452c-31 -185 -139 -280 -312 -280c-141 0 -223 68 -223 207c0 23 2 47 6 73zM538 883l44 -17c-29 -63 -58 -86 -99 -86c-16 0 -37 5 -64 16s-44 16 -52 16
c-16 0 -26 -7 -46 -35l-43 19c36 61 61 84 96 84c15 0 35 -5 60 -16s44 -16 57 -16c20 0 28 7 47 35z" />
    <glyph glyph-name="utilde" unicode="&#x169;" horiz-adv-x="546" 
d="M512 525l-88 -525h-72l6 76c-57 -59 -117 -88 -178 -88c-92 0 -138 43 -138 130c0 16 2 34 5 55l59 352h87l-56 -331c-4 -28 -6 -47 -6 -56c0 -48 20 -70 72 -70c56 0 117 34 160 77l64 380h85zM446 707l44 -17c-29 -63 -58 -86 -99 -86c-16 0 -37 5 -64 16
s-44 16 -52 16c-16 0 -26 -7 -46 -35l-43 19c36 61 61 84 96 84c15 0 35 -5 60 -16s44 -16 57 -16c20 0 28 7 47 35z" />
    <glyph glyph-name="Umacron" unicode="&#x16a;" horiz-adv-x="673" 
d="M67 268l75 452h90l-74 -444c-3 -23 -5 -42 -5 -57c0 -99 53 -149 148 -149c123 0 183 67 206 206l74 444h90l-75 -452c-31 -185 -139 -280 -312 -280c-141 0 -223 68 -223 207c0 23 2 47 6 73zM553 785h-269l11 67h269z" />
    <glyph glyph-name="umacron" unicode="&#x16b;" horiz-adv-x="546" 
d="M512 525l-88 -525h-72l6 76c-57 -59 -117 -88 -178 -88c-92 0 -138 43 -138 130c0 16 2 34 5 55l59 352h87l-56 -331c-4 -28 -6 -47 -6 -56c0 -48 20 -70 72 -70c56 0 117 34 160 77l64 380h85zM198 616l11 67h269l-11 -67h-269z" />
    <glyph glyph-name="Ubreve" unicode="&#x16c;" horiz-adv-x="673" 
d="M67 268l75 452h90l-74 -444c-3 -23 -5 -42 -5 -57c0 -99 53 -149 148 -149c123 0 183 67 206 206l74 444h90l-75 -452c-31 -185 -139 -280 -312 -280c-141 0 -223 68 -223 207c0 23 2 47 6 73zM424 829c59 0 80 24 95 69l59 -10c-24 -80 -74 -119 -163 -119
c-91 0 -127 34 -127 118l67 11c1 -48 14 -69 69 -69z" />
    <glyph glyph-name="ubreve" unicode="&#x16d;" horiz-adv-x="546" 
d="M512 525l-88 -525h-72l6 76c-57 -59 -117 -88 -178 -88c-92 0 -138 43 -138 130c0 16 2 34 5 55l59 352h87l-56 -331c-4 -28 -6 -47 -6 -56c0 -48 20 -70 72 -70c56 0 117 34 160 77l64 380h85zM341 654c57 0 78 26 97 79l59 -10c-24 -88 -76 -129 -165 -129
c-88 0 -124 37 -124 121v7l67 11c2 -48 7 -79 66 -79z" />
    <glyph glyph-name="Uring" unicode="&#x16e;" horiz-adv-x="673" 
d="M67 268l75 452h90l-74 -444c-3 -23 -5 -42 -5 -57c0 -99 53 -149 148 -149c123 0 183 67 206 206l74 444h90l-75 -452c-31 -185 -139 -280 -312 -280c-141 0 -223 68 -223 207c0 23 2 47 6 73zM385 806c0 -20 13 -31 34 -31c28 0 46 19 46 48c0 20 -11 30 -33 30
c-29 0 -47 -19 -47 -47zM330 798c0 60 50 106 110 106c48 0 79 -30 79 -75c0 -61 -48 -104 -109 -104c-48 0 -80 28 -80 73z" />
    <glyph glyph-name="uring" unicode="&#x16f;" horiz-adv-x="546" 
d="M512 525l-88 -525h-72l6 76c-57 -59 -117 -88 -178 -88c-92 0 -138 43 -138 130c0 16 2 34 5 55l59 352h87l-56 -331c-4 -28 -6 -47 -6 -56c0 -48 20 -70 72 -70c56 0 117 34 160 77l64 380h85zM304 657c0 -20 13 -31 34 -31c28 0 46 19 46 48c0 20 -11 30 -33 30
c-29 0 -47 -19 -47 -47zM249 649c0 60 50 106 110 106c48 0 79 -30 79 -75c0 -61 -48 -104 -109 -104c-48 0 -80 28 -80 73z" />
    <glyph glyph-name="Uhungarumlaut" unicode="&#x170;" horiz-adv-x="673" 
d="M67 268l75 452h90l-74 -444c-3 -23 -5 -42 -5 -57c0 -99 53 -149 148 -149c123 0 183 67 206 206l74 444h90l-75 -452c-31 -185 -139 -280 -312 -280c-141 0 -223 68 -223 207c0 23 2 47 6 73zM265 795l141 148l53 -51l-151 -138zM409 798l134 131l51 -54l-144 -122z" />
    <glyph glyph-name="uhungarumlaut" unicode="&#x171;" horiz-adv-x="546" 
d="M512 525l-88 -525h-72l6 76c-57 -59 -117 -88 -178 -88c-92 0 -138 43 -138 130c0 16 2 34 5 55l59 352h87l-56 -331c-4 -28 -6 -47 -6 -56c0 -48 20 -70 72 -70c56 0 117 34 160 77l64 380h85zM201 618l117 155l68 -41l-131 -150zM343 617l116 142l63 -44l-127 -134z
" />
    <glyph glyph-name="Uogonek" unicode="&#x172;" horiz-adv-x="673" 
d="M67 268l75 452h90l-74 -444c-3 -23 -5 -42 -5 -57c0 -99 53 -149 148 -149c123 0 183 67 206 206l74 444h90l-75 -452c-21 -129 -79 -204 -178 -263c-64 -37 -109 -97 -109 -137c0 -17 10 -26 31 -26c13 0 31 4 54 12l10 -51c-33 -19 -68 -29 -105 -29
c-51 0 -77 25 -77 65c0 47 32 97 96 150c-7 -1 -19 -1 -34 -1c-141 0 -223 68 -223 207c0 23 2 47 6 73z" />
    <glyph glyph-name="uogonek" unicode="&#x173;" horiz-adv-x="546" 
d="M427 525h85l-88 -525c-64 -56 -96 -95 -96 -132c0 -17 10 -26 31 -26c13 0 31 4 54 12l9 -51c-27 -16 -67 -29 -104 -29c-51 0 -77 25 -77 64c0 53 37 108 111 163l6 75c-57 -59 -118 -88 -183 -88c-89 0 -134 42 -134 126c0 19 2 38 6 59l59 352h87l-56 -331
c-3 -15 -4 -30 -4 -46c0 -53 23 -80 80 -80c49 0 99 26 150 77z" />
    <glyph glyph-name="Wcircumflex" unicode="&#x174;" horiz-adv-x="901" 
d="M268 0h-103l-64 720h91l51 -602l250 602h86l50 -602l249 602h92l-305 -720h-100l-53 582zM416 798l121 111h61l81 -111l-44 -37l-80 77l-107 -77z" />
    <glyph glyph-name="wcircumflex" unicode="&#x175;" horiz-adv-x="726" 
d="M491 103l160 422h86l-217 -525h-92l-50 402l-180 -402h-93l-41 525h86l23 -422l184 418h83zM279 610l131 146h60l79 -147l-49 -32l-72 105l-107 -104z" />
    <glyph glyph-name="Wgrave" unicode="&#x1e80;" horiz-adv-x="901" 
d="M268 0h-103l-64 720h91l51 -602l250 602h86l50 -602l249 602h92l-305 -720h-100l-53 582zM440 839l51 76l149 -103l-41 -58z" />
    <glyph glyph-name="wgrave" unicode="&#x1e81;" horiz-adv-x="726" 
d="M491 103l160 422h86l-217 -525h-92l-50 402l-180 -402h-93l-41 525h86l23 -422l184 418h83zM325 706l64 64l117 -137l-50 -50z" />
    <glyph glyph-name="Wacute" unicode="&#x1e82;" horiz-adv-x="901" 
d="M268 0h-103l-64 720h91l51 -602l250 602h86l50 -602l249 602h92l-305 -720h-100l-53 582zM468 754l-22 58l183 103l25 -76z" />
    <glyph glyph-name="wacute" unicode="&#x1e83;" horiz-adv-x="726" 
d="M491 103l160 422h86l-217 -525h-92l-50 402l-180 -402h-93l-41 525h86l23 -422l184 418h83zM366 583l-34 50l164 137l41 -64z" />
    <glyph glyph-name="Wdieresis" unicode="&#x1e84;" horiz-adv-x="901" 
d="M268 0h-103l-64 720h91l51 -602l250 602h86l50 -602l249 602h92l-305 -720h-100l-53 582zM596 818c0 32 27 56 62 56c28 0 44 -16 44 -41c0 -31 -27 -56 -60 -56c-29 0 -46 17 -46 41zM403 818c0 32 28 56 61 56c28 0 44 -16 44 -41c0 -31 -27 -56 -59 -56
c-29 0 -46 17 -46 41z" />
    <glyph glyph-name="wdieresis" unicode="&#x1e85;" horiz-adv-x="726" 
d="M491 103l160 422h86l-217 -525h-92l-50 402l-180 -402h-93l-41 525h86l23 -422l184 418h83zM471 660c0 32 27 56 62 56c28 0 44 -16 44 -41c0 -31 -27 -56 -60 -56c-29 0 -46 17 -46 41zM278 660c0 32 28 56 61 56c28 0 44 -16 44 -41c0 -31 -27 -56 -59 -56
c-29 0 -46 17 -46 41z" />
    <glyph glyph-name="Ygrave" unicode="&#x1ef2;" horiz-adv-x="571" 
d="M276 0h-91l50 301l-155 419h99l119 -327l227 327h101l-300 -419zM272 839l51 76l149 -103l-41 -58z" />
    <glyph glyph-name="ygrave" unicode="&#x1ef3;" horiz-adv-x="484" 
d="M208 105l203 420h92l-272 -532l-26 -49c-5 -11 -13 -24 -22 -40c-19 -33 -25 -41 -42 -61s-29 -25 -49 -34c-19 -9 -40 -11 -65 -11c-29 0 -57 4 -86 12l20 63c23 -5 45 -8 67 -8c43 0 68 23 108 107l14 28l-93 525h91zM219 706l64 64l117 -137l-50 -50z" />
    <glyph glyph-name="Ycircumflex" unicode="&#x176;" horiz-adv-x="571" 
d="M276 0h-91l50 301l-155 419h99l119 -327l227 327h101l-300 -419zM243 798l121 111h61l81 -111l-44 -37l-80 77l-107 -77z" />
    <glyph glyph-name="ycircumflex" unicode="&#x177;" horiz-adv-x="484" 
d="M208 105l203 420h92l-272 -532l-26 -49c-5 -11 -13 -24 -22 -40c-19 -33 -25 -41 -42 -61s-29 -25 -49 -34c-19 -9 -40 -11 -65 -11c-29 0 -57 4 -86 12l20 63c23 -5 45 -8 67 -8c43 0 68 23 108 107l14 28l-93 525h91zM156 610l131 146h60l79 -147l-49 -32l-72 105
l-107 -104z" />
    <glyph glyph-name="Ydieresis" unicode="&#x178;" horiz-adv-x="571" 
d="M276 0h-91l50 301l-155 419h99l119 -327l227 327h101l-300 -419zM413 818c0 32 27 56 62 56c28 0 44 -16 44 -41c0 -31 -27 -56 -60 -56c-29 0 -46 17 -46 41zM220 818c0 32 28 56 61 56c28 0 44 -16 44 -41c0 -31 -27 -56 -59 -56c-29 0 -46 17 -46 41z" />
    <glyph glyph-name="Zacute" unicode="&#x179;" horiz-adv-x="576" 
d="M491 0h-506l10 61l470 575h-349l14 84h482l-6 -41l-489 -596h388zM318 754l-22 58l183 103l25 -76z" />
    <glyph glyph-name="zacute" unicode="&#x17a;" horiz-adv-x="439" 
d="M353 0h-364l9 56l321 397h-248l12 72h360l-7 -42l-332 -413h261zM252 583l-34 50l164 137l41 -64z" />
    <glyph glyph-name="Zdotaccent" unicode="&#x17b;" horiz-adv-x="576" 
d="M491 0h-506l10 61l470 575h-349l14 84h482l-6 -41l-489 -596h388zM327 813c0 35 30 58 67 58c29 0 47 -16 47 -43c0 -35 -28 -58 -64 -58c-29 0 -50 16 -50 43z" />
    <glyph glyph-name="zdotaccent" unicode="&#x17c;" horiz-adv-x="439" 
d="M353 0h-364l9 56l321 397h-248l12 72h360l-7 -42l-332 -413h261zM233 659c0 35 31 59 66 59c29 0 47 -17 47 -44c0 -35 -28 -57 -64 -57c-29 0 -49 17 -49 42z" />
    <glyph glyph-name="Zcaron" unicode="&#x17d;" horiz-adv-x="576" 
d="M491 0h-506l10 61l470 575h-349l14 84h482l-6 -41l-489 -596h388zM519 876l-118 -111h-60l-85 111l46 37l81 -77l106 77z" />
    <glyph glyph-name="zcaron" unicode="&#x17e;" horiz-adv-x="439" 
d="M353 0h-364l9 56l321 397h-248l12 72h360l-7 -42l-332 -413h261zM416 729l-129 -147h-59l-82 146l52 32l73 -104l107 106z" />
    <glyph glyph-name="longs" unicode="&#x17f;" horiz-adv-x="268" 
d="M121 0h-86l76 454h-61l9 55l63 12l12 69c13 87 63 143 147 143c23 0 45 -3 68 -9l-16 -67c-14 5 -29 7 -45 7c-37 0 -59 -23 -67 -69z" />
    <glyph glyph-name="dotlessj" unicode="&#x237;" horiz-adv-x="241" 
d="M116 525h85l-99 -593c-15 -91 -54 -135 -139 -135c-31 0 -54 3 -71 10l18 67c11 -4 25 -6 43 -6c37 0 56 15 65 71z" />
    <glyph glyph-name="circumflex" unicode="&#x2c6;" horiz-adv-x="487" 
d="M91 610l131 146h60l79 -147l-49 -32l-72 105l-107 -104z" />
    <glyph glyph-name="caron" unicode="&#x2c7;" horiz-adv-x="487" 
d="M370 729l-129 -147h-59l-82 146l52 32l73 -104l107 106z" />
    <glyph glyph-name="uni02C9" unicode="&#x2c9;" horiz-adv-x="488" 
d="M180 616l11 67h269l-11 -67h-269z" />
    <glyph glyph-name="breve" unicode="&#x2d8;" horiz-adv-x="487" 
d="M262 654c57 0 78 26 97 79l59 -10c-24 -88 -76 -129 -165 -129c-88 0 -124 37 -124 121v7l67 11c2 -48 7 -79 66 -79z" />
    <glyph glyph-name="dieresis" unicode="&#xa8;" horiz-adv-x="488" 
d="M271 660c0 32 27 56 62 56c28 0 44 -16 44 -41c0 -31 -27 -56 -60 -56c-29 0 -46 17 -46 41zM78 660c0 32 28 56 61 56c28 0 44 -16 44 -41c0 -31 -27 -56 -59 -56c-29 0 -46 17 -46 41z" />
    <glyph glyph-name="macron" unicode="&#xaf;" horiz-adv-x="487" 
d="M122 616l11 67h269l-11 -67h-269z" />
    <glyph glyph-name="degree" unicode="&#xb0;" horiz-adv-x="314" 
d="M115 661c0 -45 32 -79 76 -79c43 0 75 34 75 79c0 44 -31 75 -75 75c-45 0 -76 -31 -76 -75zM73 660c0 32 11 59 34 82s51 34 84 34c32 0 59 -11 82 -34s34 -50 34 -82c0 -65 -51 -116 -116 -116c-67 0 -118 49 -118 116z" />
    <glyph glyph-name="acute" unicode="&#xb4;" horiz-adv-x="487" 
d="M194 583l-34 50l164 137l41 -64z" />
    <glyph glyph-name="grave" unicode="`" horiz-adv-x="487" 
d="M152 706l64 64l117 -137l-50 -50z" />
    <glyph glyph-name="cedilla" unicode="&#xb8;" horiz-adv-x="487" 
d="M72 -196l20 48c19 -8 39 -12 58 -12c32 0 48 12 48 37c0 20 -18 26 -55 26h-22l40 105h53l-21 -60c50 -3 75 -23 75 -62c0 -64 -46 -98 -119 -98c-30 0 -56 5 -77 16z" />
    <glyph glyph-name="dotaccent" unicode="&#x2d9;" horiz-adv-x="487" 
d="M188 659c0 35 31 59 66 59c29 0 47 -17 47 -44c0 -35 -28 -57 -64 -57c-29 0 -49 17 -49 42z" />
    <glyph glyph-name="ring" unicode="&#x2da;" horiz-adv-x="487" 
d="M195 657c0 -20 13 -31 34 -31c28 0 46 19 46 48c0 20 -11 30 -33 30c-29 0 -47 -19 -47 -47zM140 649c0 60 50 106 110 106c48 0 79 -30 79 -75c0 -61 -48 -104 -109 -104c-48 0 -80 28 -80 73z" />
    <glyph glyph-name="ogonek" unicode="&#x2db;" horiz-adv-x="487" 
d="M199 14l57 -4l-2 -10c-64 -56 -96 -95 -96 -132c0 -17 10 -26 31 -26c13 0 31 4 54 12l9 -51c-27 -16 -67 -29 -104 -29c-51 0 -77 25 -77 65c0 61 47 116 128 175z" />
    <glyph glyph-name="tilde" unicode="&#x2dc;" horiz-adv-x="488" 
d="M344 707l44 -17c-29 -63 -58 -86 -99 -86c-16 0 -37 5 -64 16s-44 16 -52 16c-16 0 -26 -7 -46 -35l-43 19c36 61 61 84 96 84c15 0 35 -5 60 -16s44 -16 57 -16c20 0 28 7 47 35z" />
    <glyph glyph-name="hungarumlaut" unicode="&#x2dd;" horiz-adv-x="487" 
d="M47 618l117 155l68 -41l-131 -150zM189 617l116 142l63 -44l-127 -134z" />
    <glyph glyph-name="perthousand" unicode="&#x2030;" horiz-adv-x="1106" 
d="M461 129c0 53 19 97 56 134s82 56 135 56s97 -27 116 -72c37 48 86 72 146 72c77 0 131 -58 131 -138c2 -100 -94 -189 -182 -186c-64 0 -108 26 -127 70c-37 -45 -88 -70 -140 -70c-83 0 -135 54 -135 134zM80 525c0 53 19 97 56 134s83 56 136 56
c83 0 137 -56 137 -137c0 -51 -19 -95 -58 -132c-38 -37 -83 -55 -134 -55c-84 0 -137 54 -137 134zM202 0h-76l548 720h76zM149 536c0 -49 31 -82 79 -82c61 0 109 52 109 116c0 51 -29 83 -76 83c-31 0 -58 -11 -80 -34c-21 -23 -32 -50 -32 -83zM531 141
c0 -48 31 -83 78 -83c61 0 110 51 110 115c0 48 -30 84 -77 84c-31 0 -57 -11 -79 -34c-21 -23 -32 -50 -32 -82zM897 257c-30 0 -56 -11 -79 -34c-22 -23 -33 -50 -33 -83c0 -48 28 -82 79 -82c61 0 109 51 109 115c0 48 -31 84 -76 84z" />
    <glyph glyph-name="percent" unicode="%" horiz-adv-x="851" 
d="M531 141c0 -48 31 -83 78 -83c61 0 110 51 110 115c0 48 -30 84 -77 84c-31 0 -57 -11 -79 -34c-21 -23 -32 -50 -32 -82zM461 130c0 52 19 96 56 133s82 56 135 56c83 0 138 -57 138 -137c0 -52 -19 -96 -57 -133c-38 -36 -83 -54 -135 -54c-83 0 -137 55 -137 135z
M149 536c0 -49 31 -82 79 -82c61 0 109 52 109 116c0 51 -29 83 -76 83c-31 0 -58 -11 -80 -34c-21 -23 -32 -50 -32 -83zM80 525c0 53 19 97 56 134s83 56 136 56c83 0 137 -56 137 -137c0 -51 -19 -95 -58 -132c-38 -37 -83 -55 -134 -55c-84 0 -137 54 -137 134zM202 0
h-76l548 720h76z" />
    <glyph glyph-name="fraction" unicode="&#x2044;" horiz-adv-x="127" 
d="M-165 -1h-72l547 721h72z" />
    <glyph glyph-name="onehalf" unicode="&#xbd;" horiz-adv-x="827" 
d="M123 -1h-72l547 721h72zM253 721l-62 -371h-70l46 276c-36 -10 -66 -15 -90 -15h-7l1 48c45 9 97 34 129 62h53zM702 0h-256l8 49l153 138l24 21c3 4 17 15 18 19c13 13 20 30 20 49c0 25 -16 38 -49 38c-31 0 -67 -14 -110 -43l-20 45c52 41 104 61 156 61
c61 0 100 -32 100 -84c0 -45 -24 -82 -76 -127l-122 -106h164z" />
    <glyph glyph-name="onequarter" unicode="&#xbc;" horiz-adv-x="827" 
d="M180 -1h-72l547 721h72zM302 721l-62 -371h-70l46 276c-36 -10 -66 -15 -90 -15h-7l1 48c45 9 97 34 129 62h53zM649 129l29 178l-143 -178h114zM696 0h-69l12 72h-182l9 55l199 244h93l-40 -242h40l-10 -57h-40z" />
    <glyph glyph-name="threequarters" unicode="&#xbe;" horiz-adv-x="827" 
d="M225 -1h-72l547 721h72zM669 129l29 178l-143 -178h114zM716 0h-69l12 72h-182l9 55l199 244h93l-40 -242h40l-10 -57h-40zM64 393l38 46c29 -24 55 -36 95 -36c53 0 83 25 83 65c0 29 -22 42 -73 42c-17 0 -29 -1 -34 -2l11 61c69 1 103 23 103 66c0 21 -17 32 -51 32
c-29 0 -60 -8 -91 -25l-14 48c42 25 86 37 131 37c64 0 100 -27 100 -76c0 -51 -36 -91 -89 -106c56 -5 80 -33 80 -76c0 -79 -66 -126 -158 -126c-58 0 -102 17 -131 50z" />
    <glyph glyph-name="minus" unicode="&#x2212;" 
d="M40 329h520v-65h-520v65z" />
    <glyph glyph-name="uni2215" unicode="&#x2215;" horiz-adv-x="130" 
d="M-197 -1h-72l547 721h72z" />
    <glyph glyph-name="uni2219" unicode="&#x2219;" horiz-adv-x="279" 
d="M83 337c0 35 24 58 59 58c36 0 60 -22 60 -57c0 -32 -25 -56 -60 -56c-37 0 -59 23 -59 55z" />
    <glyph glyph-name="approxequal" unicode="&#x2248;" horiz-adv-x="744" 
d="M658 262l36 -63c-83 -65 -158 -98 -225 -98c-44 0 -95 18 -130 35c-35 19 -84 36 -121 36c-21 0 -43 -4 -64 -11s-38 -14 -52 -22l-56 -36l-33 67c84 62 159 93 226 93c40 0 89 -18 124 -37c36 -17 83 -36 116 -36c56 0 107 23 179 72zM661 469l36 -63
c-83 -65 -158 -98 -225 -98c-44 0 -95 18 -130 35c-35 19 -84 36 -121 36c-21 0 -43 -4 -64 -11s-38 -14 -52 -22l-56 -36l-33 67c84 62 159 93 226 93c40 0 89 -18 124 -37c36 -17 83 -36 116 -36c56 0 107 23 179 72z" />
    <glyph glyph-name="notequal" unicode="&#x2260;" 
d="M310 235h250v-61h-287l-105 -174h-75l106 174h-159v61h196l62 103h-258v61h295l76 124h74l-75 -124h150v-61h-187z" />
    <glyph glyph-name="lessequal" unicode="&#x2264;" 
d="M559 178l-25 -65l-493 216v45l492 216l26 -64l-406 -174zM40 65h520v-65h-520v65z" />
    <glyph glyph-name="greaterequal" unicode="&#x2265;" 
d="M558 374v-45l-493 -216l-25 65l406 174l-406 174l26 64zM39 65h520v-65h-520v65z" />
    <glyph glyph-name="less" unicode="&#x3c;" 
d="M586 116l-26 -66l-539 222v45l539 223l25 -65l-449 -180z" />
    <glyph glyph-name="equal" unicode="=" 
d="M40 399h520v-61h-520v61zM40 235h520v-61h-520v61z" />
    <glyph glyph-name="greater" unicode="&#x3e;" 
d="M579 321v-45l-539 -222l-25 65l448 180l-448 180l26 64z" />
    <glyph glyph-name="logicalnot" unicode="&#xac;" 
d="M568 388v-263h-63v201h-473v62h536z" />
    <glyph glyph-name="plus" unicode="+" 
d="M265 558h68v-229h228v-65h-228v-229h-68v229h-227v65h227v229z" />
    <glyph glyph-name="plusminus" unicode="&#xb1;" 
d="M265 558h68v-229h228v-65h-228v-199h227v-65h-520v65h225v199h-227v65h227v229z" />
    <glyph glyph-name="divide" unicode="&#xf7;" 
d="M347 469c0 -27 -21 -48 -48 -48c-24 0 -47 23 -47 48c0 27 20 50 47 50s48 -22 48 -50zM299 77c-24 0 -48 24 -48 49c0 27 21 50 48 50s48 -23 48 -50s-21 -49 -48 -49zM40 329h520v-65h-520v65z" />
    <glyph glyph-name="multiply" unicode="&#xd7;" 
d="M461 501l47 -50l-163 -160l163 -163l-45 -46l-163 161l-162 -161l-47 49l164 161l-164 161l45 48l163 -161z" />
    <glyph glyph-name="partialdiff" unicode="&#x2202;" horiz-adv-x="597" 
d="M240 -12c-115 0 -184 73 -184 192c0 142 79 261 221 261c68 0 142 -43 155 -127c5 50 7 89 7 116c0 136 -39 200 -135 200c-48 0 -94 -13 -139 -38l-27 54c52 35 119 55 174 55c138 0 207 -89 207 -266c0 -191 -55 -447 -279 -447zM252 60c101 0 152 88 152 166
c0 89 -46 146 -117 146c-101 0 -145 -96 -145 -184c0 -85 43 -128 110 -128z" />
    <glyph glyph-name="Omega" unicode="&#x2126;" horiz-adv-x="793" 
d="M718 0h-260v97c85 45 174 137 174 286c0 175 -86 264 -230 264s-234 -96 -234 -271c0 -138 86 -234 155 -278v-98h-260v79h173v15c-79 46 -166 145 -166 296c0 227 141 343 332 343s328 -107 328 -331c0 -165 -96 -274 -186 -310v-13h174v-79z" />
    <glyph glyph-name="Delta" unicode="&#x2206;" horiz-adv-x="675" 
d="M282 720h109l258 -720h-623zM143 76h384l-191 549z" />
    <glyph glyph-name="product" unicode="&#x220f;" horiz-adv-x="699" 
d="M172 -140h-93v860h541v-860h-93v782h-355v-782z" />
    <glyph glyph-name="summation" unicode="&#x2211;" horiz-adv-x="582" 
d="M519 720v-83h-356l215 -319l-223 -355h399v-82h-528v40l245 395l-245 364v40h493z" />
    <glyph glyph-name="uni0394" unicode="&#x394;" horiz-adv-x="675" 
d="M282 720h109l258 -720h-623zM143 76h384l-191 549z" />
    <glyph glyph-name="uni03A9" unicode="&#x3a9;" horiz-adv-x="793" 
d="M718 0h-260v97c85 45 174 137 174 286c0 175 -86 264 -230 264s-234 -96 -234 -271c0 -138 86 -234 155 -278v-98h-260v79h173v15c-79 46 -166 145 -166 296c0 227 141 343 332 343s328 -107 328 -331c0 -165 -96 -274 -186 -310v-13h174v-79z" />
    <glyph glyph-name="uni03BC" unicode="&#x3bc;" horiz-adv-x="575" 
d="M491 525v-525h-80v74c-28 -55 -73 -83 -135 -83c-53 0 -85 18 -113 55v-246h-87v725h87v-328c0 -92 38 -138 115 -138c71 0 113 50 125 107v359h88z" />
    <glyph glyph-name="pi" unicode="&#x3c0;" horiz-adv-x="671" 
d="M128 451h-92v74h599v-74h-86v-451h-88v451h-246v-451h-87v451z" />
    <glyph glyph-name="mu" unicode="&#xb5;" horiz-adv-x="575" 
d="M491 525v-525h-80v74c-28 -55 -73 -83 -135 -83c-53 0 -85 18 -113 55v-246h-87v725h87v-328c0 -92 38 -138 115 -138c71 0 113 50 125 107v359h88z" />
    <glyph glyph-name="radical" unicode="&#x221a;" horiz-adv-x="731" 
d="M171 246h-135v66h197l126 -371l297 883h81l-336 -990h-85z" />
    <glyph glyph-name="infinity" unicode="&#x221e;" horiz-adv-x="769" 
d="M715 313c0 -48 -13 -87 -40 -118c-27 -30 -60 -45 -99 -45s-67 10 -97 29c-23 15 -28 18 -51 38l-20 19c-3 3 -9 11 -20 22c-59 -68 -116 -108 -181 -108c-93 0 -152 56 -152 152c0 93 61 159 156 159c72 0 121 -38 178 -114c35 39 51 55 83 80s65 35 102 35
c91 0 141 -64 141 -149zM650 307c0 56 -30 95 -87 95c-16 0 -32 -4 -47 -12c-29 -16 -50 -37 -90 -86c52 -63 99 -94 142 -94c53 0 82 44 82 97zM352 303c-51 69 -90 98 -138 98c-61 0 -94 -43 -94 -98c0 -56 35 -95 94 -95c43 0 93 36 138 95z" />
    <glyph glyph-name="integral" unicode="&#x222b;" horiz-adv-x="358" 
d="M6 -200v68h56c52 0 77 28 77 104v656c0 99 45 162 140 162h68v-68l-55 1c-55 0 -74 -37 -74 -117v-635c0 -102 -30 -171 -150 -171h-62z" />
    <glyph glyph-name="lozenge" unicode="&#x25ca;" horiz-adv-x="615" 
d="M338 0h-68l-192 352l192 348h68l199 -346zM456 352l-152 271l-145 -271l145 -274z" />
    <glyph glyph-name="commaaccent" unicode="&#xf6c3;" horiz-adv-x="487" 
d="M159 -243l-60 20l67 163l76 -21z" />
    <glyph glyph-name="revcommaaccent" horiz-adv-x="487" 
d="M314 771l61 -19l-69 -167l-77 23z" />
    <glyph glyph-name="tilde.cap" horiz-adv-x="488" 
d="M329 883l44 -17c-29 -63 -58 -86 -99 -86c-16 0 -37 5 -64 16s-44 16 -52 16c-16 0 -26 -7 -46 -35l-43 19c36 61 61 84 96 84c15 0 35 -5 60 -16s44 -16 57 -16c20 0 28 7 47 35z" />
    <glyph glyph-name="ring.cap" horiz-adv-x="487" 
d="M258 822c0 -21 11 -31 33 -31c28 0 47 20 47 48c0 20 -11 30 -34 30c-29 0 -46 -18 -46 -47zM203 814c0 60 50 106 110 106c47 0 79 -31 79 -75c0 -61 -49 -104 -109 -104c-48 0 -80 28 -80 73z" />
    <glyph glyph-name="circumflex.cap" horiz-adv-x="487" 
d="M92 798l121 111h61l81 -111l-44 -37l-80 77l-107 -77z" />
    <glyph glyph-name="acute.cap" horiz-adv-x="487" 
d="M171 754l-22 58l183 103l25 -76z" />
    <glyph glyph-name="grave.cap" horiz-adv-x="487" 
d="M133 839l51 76l149 -103l-41 -58z" />
    <glyph glyph-name="dieresis.cap" horiz-adv-x="488" 
d="M267 818c0 32 27 56 62 56c28 0 44 -16 44 -41c0 -31 -27 -56 -60 -56c-29 0 -46 17 -46 41zM74 818c0 32 28 56 61 56c28 0 44 -16 44 -41c0 -31 -27 -56 -59 -56c-29 0 -46 17 -46 41z" />
    <glyph glyph-name="caron.cap" horiz-adv-x="487" 
d="M386 876l-118 -111h-60l-85 111l46 37l81 -77l106 77z" />
    <glyph glyph-name="macron.cap" horiz-adv-x="487" 
d="M371 785h-269l11 67h269z" />
    <glyph glyph-name="dotaccent.cap" horiz-adv-x="487" 
d="M197 813c0 35 30 58 67 58c29 0 47 -16 47 -43c0 -35 -28 -58 -64 -58c-29 0 -50 16 -50 43z" />
    <glyph glyph-name="cedilla.cap" horiz-adv-x="487" 
d="M47 -196l20 48c19 -8 39 -12 58 -12c32 0 48 12 48 37c0 20 -18 26 -55 26h-22l40 105h53l-21 -60c50 -3 75 -23 75 -62c0 -64 -46 -98 -119 -98c-30 0 -56 5 -77 16z" />
    <glyph glyph-name="hungarumlaut.cap" horiz-adv-x="488" 
d="M66 795l141 148l53 -51l-151 -138zM210 798l134 131l51 -54l-144 -122z" />
    <glyph glyph-name="apostrophe" unicode="&#x2bc;" horiz-adv-x="488" 
d="M242 678c0 32 26 55 62 55c31 0 46 -21 46 -52c0 -63 -38 -112 -113 -145l-12 30c45 24 59 42 67 73c-3 0 -8 -1 -9 -1c-24 0 -41 16 -41 40z" />
    <glyph glyph-name="commaaccent.cap" horiz-adv-x="487" 
d="M239 -243l-60 20l67 163l76 -21z" />
    <glyph glyph-name="breve.cap" horiz-adv-x="487" 
d="M232 829c59 0 80 24 95 69l59 -10c-24 -80 -74 -119 -163 -119c-91 0 -127 34 -127 118l67 11c1 -48 14 -69 69 -69z" />
    <glyph glyph-name="caron.alt" horiz-adv-x="488" 
d="M302 532h-71l61 188h91z" />
    <glyph glyph-name="ogonek.cap" horiz-adv-x="487" 
d="M199 14l57 -4l-2 -10c-64 -56 -96 -95 -96 -132c0 -17 10 -26 31 -26c13 0 31 4 54 12l9 -51c-27 -16 -67 -29 -104 -29c-51 0 -77 25 -77 65c0 61 47 116 128 175z" />
    <glyph glyph-name="currency" unicode="&#xa4;" horiz-adv-x="564" 
d="M420 356c0 67 -46 115 -110 115c-41 0 -78 -15 -110 -46c-32 -30 -48 -66 -48 -109c0 -67 47 -116 112 -116c41 0 78 16 109 47s47 68 47 109zM154 450l-76 95l46 42l76 -95c38 26 78 39 120 39c44 0 79 -13 105 -38l108 93l33 -41l-108 -95c15 -25 23 -54 23 -89
c0 -50 -20 -97 -61 -141l77 -93l-48 -41l-76 94c-37 -26 -77 -39 -118 -39c-42 0 -78 13 -107 39c-55 -49 -91 -80 -108 -94l-32 41l108 94c-15 24 -23 53 -23 88c0 51 20 98 61 141z" />
    <glyph glyph-name="zero.tf" 
d="M157 353c-7 -43 -11 -84 -11 -123c0 -110 38 -165 113 -165c100 0 163 89 196 290c8 49 12 91 12 126c0 109 -38 158 -114 158c-100 0 -164 -86 -196 -286zM70 353c37 245 136 367 297 367c124 0 188 -74 188 -234c0 -36 -4 -79 -11 -129c-37 -246 -135 -369 -294 -369
c-127 0 -191 78 -191 235c0 36 4 79 11 130z" />
    <glyph glyph-name="one.tf" 
d="M103 74h152l86 512c-55 -32 -113 -53 -173 -63l-2 65c36 9 74 25 114 47c41 22 75 47 104 74h62l-107 -635h134l-12 -74h-370z" />
    <glyph glyph-name="two.tf" 
d="M468 0h-410l10 60l309 324c34 36 57 65 70 88s19 47 19 73c0 56 -39 94 -104 94c-51 0 -109 -26 -175 -78l-37 59c77 67 157 100 239 100c96 0 166 -59 166 -152c0 -32 0 -43 -8 -72c-9 -38 -38 -79 -102 -147l-261 -271h297z" />
    <glyph glyph-name="three.tf" 
d="M35 84l51 55c47 -48 96 -75 164 -75c93 0 164 55 164 154c0 72 -44 109 -132 110c-23 0 -40 -1 -52 -3l10 74c97 2 195 67 195 157c0 56 -39 86 -98 86c-48 0 -100 -17 -156 -50l-25 59c67 46 135 69 206 69c96 0 159 -54 159 -142c0 -91 -67 -169 -160 -204
c91 -8 136 -64 136 -148c0 -154 -123 -238 -256 -238c-90 0 -159 32 -206 96z" />
    <glyph glyph-name="four.tf" 
d="M431 621l-293 -380h229zM411 0h-84l27 164h-318l12 71l367 474h115l-79 -468h74l-13 -77h-74z" />
    <glyph glyph-name="five.tf" 
d="M185 260h-77l109 449h337l-19 -83h-260l-57 -232c41 35 90 52 146 52c101 0 156 -62 156 -167c1 -178 -127 -295 -279 -291c-68 0 -141 23 -190 68l44 62c47 -35 98 -52 155 -52c109 0 180 71 180 194c0 69 -35 111 -107 111c-48 0 -96 -24 -123 -51z" />
    <glyph glyph-name="six.tf" 
d="M92 302c37 296 166 418 324 418c61 0 111 -19 149 -58l-46 -59c-33 28 -71 42 -112 42c-61 0 -114 -31 -149 -86s-58 -116 -75 -193c59 51 119 76 181 76c103 0 155 -65 155 -172c0 -15 -1 -30 -3 -46c-21 -163 -113 -236 -248 -236c-123 0 -182 82 -182 229
c0 27 2 55 6 85zM432 217c2 14 3 27 3 39c0 75 -39 110 -102 110c-49 0 -103 -25 -161 -76c-3 -24 -5 -50 -5 -77c0 -107 38 -153 113 -153s136 53 152 157z" />
    <glyph glyph-name="seven.tf" 
d="M575 709l-11 -62l-363 -647h-92l2 10l349 616h-340l14 83h441z" />
    <glyph glyph-name="eight.tf" 
d="M149 162c0 -61 42 -99 117 -99c46 0 84 14 114 41c31 28 46 63 46 104c0 61 -40 107 -120 136c-45 -21 -76 -41 -108 -70s-49 -67 -49 -112zM241 536c0 -55 39 -94 96 -117c55 25 129 78 129 151c0 51 -37 80 -97 80c-75 0 -128 -46 -128 -114zM60 147
c0 116 94 199 186 235c-57 25 -92 74 -92 138c0 59 21 107 64 144s97 56 163 56c101 0 167 -53 167 -137s-62 -157 -149 -197c77 -39 115 -93 115 -164c0 -70 -24 -127 -73 -170s-112 -64 -189 -64c-120 0 -192 60 -192 159z" />
    <glyph glyph-name="nine.tf" 
d="M526 491c0 -287 -123 -503 -317 -503c-67 0 -121 18 -163 54l44 60c36 -29 75 -43 118 -43c117 0 200 137 223 283c-52 -49 -120 -77 -188 -77c-99 0 -152 72 -152 176c0 83 24 151 72 202c49 51 110 77 183 77c120 0 180 -85 180 -229zM333 643c-43 0 -81 -17 -112 -50
s-46 -79 -46 -138c0 -77 36 -117 96 -117c30 0 61 8 92 24s56 35 73 58c3 20 4 42 4 65c0 103 -36 158 -107 158z" />
    <glyph glyph-name="dollar.tf" 
d="M280 -87h-74l15 87c-80 7 -142 47 -182 100l53 52c49 -55 104 -82 165 -82c88 0 154 48 154 128c0 51 -33 82 -129 114c-109 35 -156 82 -156 162c0 59 20 106 59 143s89 58 150 64l14 84h74l-14 -85c64 -11 117 -42 149 -91l-53 -48c-39 45 -91 72 -146 72
c-85 0 -146 -42 -146 -117c0 -56 39 -83 135 -115c104 -36 151 -88 151 -165c0 -57 -19 -105 -58 -144c-38 -38 -87 -62 -146 -71z" />
    <glyph glyph-name="Euro.tf" 
d="M93 388h-68l16 64h70c41 135 160 268 319 268c74 0 159 -29 201 -118l-56 -43c-37 56 -92 89 -157 89c-100 0 -179 -76 -222 -196h313l-16 -64h-315l-6 -32l-6 -47h308l-16 -64h-294c8 -115 65 -182 158 -182c72 0 128 26 188 74l34 -49c-77 -68 -153 -100 -245 -100
c-149 0 -218 113 -221 257h-87l15 64h75c0 11 2 26 5 46c3 8 6 25 7 33z" />
    <glyph glyph-name="cent.tf" 
d="M469 209l25 -58c-49 -38 -101 -61 -155 -69l-17 -100h-77l16 97c-104 11 -167 92 -167 219c0 92 24 167 73 226s111 92 186 99l16 97h76l-16 -101c77 -16 119 -69 119 -156c0 -7 -1 -18 -2 -34h-78c0 4 1 12 1 16c0 67 -33 100 -99 100c-112 0 -184 -89 -184 -234
c0 -93 43 -155 124 -155c59 0 102 16 159 53z" />
    <glyph glyph-name="sterling.tf" 
d="M293 249c0 -67 -34 -115 -91 -171h280l-13 -78h-416l12 71l50 5c56 53 95 106 95 165c0 22 -3 48 -10 78h-92l11 65h68c-16 48 -24 89 -24 123c-2 125 117 216 240 213c77 0 145 -30 181 -86l-56 -53c-33 41 -76 62 -130 62c-88 0 -146 -49 -146 -129
c0 -31 8 -74 25 -130h152l-11 -65h-133c5 -18 8 -41 8 -70z" />
    <glyph glyph-name="yen.tf" 
d="M269 324h-191l11 65h163l-125 320h93l106 -294l209 294h89l-235 -320h168l-11 -65h-196l-14 -84h196l-11 -65h-196l-29 -175h-81l29 175h-191l11 65h191z" />
    <glyph glyph-name="florin.tf" 
d="M51 -200v66h40c40 0 62 30 77 94l79 379h-78v63h91l30 149c8 37 13 62 28 91c21 41 56 67 118 67h65v-68h-51c-29 0 -38 -11 -53 -26c-5 -5 -11 -23 -14 -31l-6 -20c-4 -19 -5 -20 -9 -43l-25 -119h93v-63h-105l-60 -287c-16 -76 -28 -125 -35 -147
c-15 -45 -36 -75 -63 -90c-18 -10 -41 -15 -68 -15h-54z" />
    <glyph glyph-name="zero.osf" horiz-adv-x="597" 
d="M144 304c-5 -36 -8 -66 -8 -90c0 -101 39 -150 122 -150c101 0 165 76 193 244c5 34 8 62 8 84c0 99 -40 141 -123 141c-102 0 -166 -76 -192 -229zM54 305c31 197 141 307 296 307c132 0 198 -73 198 -219c0 -26 -2 -54 -6 -84c-29 -217 -134 -321 -294 -321
c-133 0 -202 74 -202 222c0 27 3 59 8 95z" />
    <glyph glyph-name="one.osf" horiz-adv-x="437" 
d="M20 74h151l68 404c-55 -32 -113 -53 -174 -63l-1 65c36 9 74 25 114 47c41 22 75 47 104 74h62l-89 -527h134l-12 -74h-369z" />
    <glyph glyph-name="two.osf" horiz-adv-x="512" 
d="M404 0h-409l9 54l272 240c77 67 105 103 105 158c0 52 -40 82 -97 82c-50 0 -111 -26 -183 -78l-34 54c71 61 155 102 239 102c99 0 169 -49 169 -140c0 -39 -8 -72 -25 -100s-49 -63 -97 -106l-216 -188h280z" />
    <glyph glyph-name="three.osf" horiz-adv-x="511" 
d="M-32 25l54 56c45 -49 93 -76 161 -76c93 0 161 54 161 141c0 61 -42 97 -133 97c-23 0 -40 -1 -52 -3l10 75c96 5 191 44 191 138c0 53 -39 81 -98 81c-48 0 -100 -17 -156 -50l-25 59c67 46 135 69 206 69c97 0 161 -50 161 -138c0 -91 -60 -156 -157 -184
c93 -8 138 -61 138 -138c0 -147 -121 -223 -255 -223c-90 0 -159 32 -206 96z" />
    <glyph glyph-name="four.osf" horiz-adv-x="555" 
d="M400 513l-284 -332h228zM389 -60h-85l27 164h-318l12 71l359 426h116l-71 -420h78l-13 -77h-78z" />
    <glyph glyph-name="five.osf" horiz-adv-x="520" 
d="M117 183h-77l102 418h337l-19 -83h-260l-49 -195c43 35 90 52 141 52c107 0 162 -63 162 -168c0 -178 -122 -280 -277 -280c-68 0 -141 23 -190 68l45 62c47 -35 97 -52 150 -52c109 0 182 71 182 184c0 67 -36 110 -108 110c-48 0 -95 -23 -123 -50z" />
    <glyph glyph-name="six.osf" horiz-adv-x="539" 
d="M65 302c37 296 166 418 324 418c61 0 111 -19 149 -58l-46 -59c-33 28 -71 42 -112 42c-61 0 -114 -31 -149 -86s-58 -116 -75 -193c59 51 119 76 181 76c103 0 155 -65 155 -172c0 -15 -1 -30 -3 -46c-21 -163 -113 -236 -248 -236c-123 0 -182 82 -182 229
c0 27 2 55 6 85zM405 217c2 14 3 27 3 39c0 75 -39 110 -102 110c-49 0 -103 -25 -161 -76c-3 -24 -5 -50 -5 -77c0 -107 38 -153 113 -153s136 53 152 157z" />
    <glyph glyph-name="seven.osf" horiz-adv-x="452" 
d="M475 601l-10 -60l-349 -601h-91l2 11l330 567h-306l14 83h410z" />
    <glyph glyph-name="eight.osf" horiz-adv-x="500" 
d="M101 162c0 -61 42 -99 117 -99c46 0 84 14 114 41c31 28 46 63 46 104c0 61 -40 107 -120 136c-45 -21 -76 -41 -108 -70s-49 -67 -49 -112zM193 536c0 -55 39 -94 96 -117c55 25 129 78 129 151c0 51 -37 80 -97 80c-75 0 -128 -46 -128 -114zM12 147
c0 116 94 199 186 235c-57 25 -92 74 -92 138c0 59 21 107 64 144s97 56 163 56c101 0 167 -53 167 -137s-62 -157 -149 -197c77 -39 115 -93 115 -164c0 -70 -24 -127 -73 -170s-112 -64 -189 -64c-120 0 -192 60 -192 159z" />
    <glyph glyph-name="nine.osf" horiz-adv-x="530" 
d="M486 383c0 -303 -105 -454 -302 -454c-72 0 -129 18 -170 54l45 59c35 -28 78 -42 130 -42c56 0 99 18 130 54s56 97 75 184c-53 -45 -125 -74 -190 -74c-101 0 -154 67 -154 170c0 83 24 150 73 201s110 77 183 77c119 0 180 -85 180 -229zM293 535
c-44 0 -81 -17 -112 -50s-46 -78 -46 -136c0 -76 40 -111 101 -111c59 0 120 34 160 74c4 26 6 50 6 71c0 97 -40 152 -109 152z" />
    <glyph glyph-name="dollar.osf" horiz-adv-x="525" 
d="M245 -87h-74l15 87c-80 7 -142 47 -182 100l53 52c49 -55 104 -82 165 -82c88 0 154 48 154 128c0 51 -33 82 -129 114c-109 35 -156 82 -156 162c0 59 20 106 59 143s89 58 150 64l14 84h74l-14 -85c64 -11 117 -42 149 -91l-53 -48c-39 45 -91 72 -146 72
c-85 0 -146 -42 -146 -117c0 -56 39 -83 135 -115c104 -36 151 -88 151 -165c0 -57 -19 -105 -58 -144c-38 -38 -87 -62 -146 -71z" />
    <glyph glyph-name="Euro.osf" horiz-adv-x="593" 
d="M85 388h-68l16 64h70c41 135 160 268 319 268c74 0 159 -29 201 -118l-56 -43c-37 56 -92 89 -157 89c-100 0 -179 -76 -222 -196h313l-16 -64h-315l-6 -32l-6 -47h308l-16 -64h-294c8 -115 65 -182 158 -182c72 0 128 26 188 74l34 -49c-77 -68 -153 -100 -245 -100
c-149 0 -218 113 -221 257h-87l15 64h75c0 11 2 26 5 46c3 8 6 25 7 33z" />
    <glyph glyph-name="cent.osf" horiz-adv-x="527" 
d="M425 131l25 -58c-49 -38 -101 -61 -155 -69l-17 -100h-77l16 97c-104 11 -167 92 -167 219c0 92 24 167 73 226s111 92 186 99l16 97h76l-16 -101c77 -16 119 -69 119 -156c0 -7 -1 -18 -2 -34h-78c0 4 1 12 1 16c0 67 -33 100 -99 100c-112 0 -184 -89 -184 -234
c0 -93 43 -155 124 -155c59 0 102 16 159 53z" />
    <glyph glyph-name="sterling.osf" horiz-adv-x="484" 
d="M231 249c0 -67 -34 -115 -91 -171h280l-13 -78h-416l12 71l50 5c56 53 95 106 95 165c0 22 -3 48 -10 78h-92l11 65h68c-16 48 -24 89 -24 123c-2 125 116 216 240 213c77 0 145 -30 181 -86l-56 -53c-33 41 -76 62 -130 62c-88 0 -146 -49 -146 -129
c0 -31 8 -74 25 -130h152l-11 -65h-133c5 -18 8 -41 8 -70z" />
    <glyph glyph-name="yen.osf" horiz-adv-x="542" 
d="M239 324h-191l11 65h163l-125 320h93l106 -294l209 294h89l-235 -320h168l-11 -65h-196l-14 -84h196l-11 -65h-196l-29 -175h-81l29 175h-191l11 65h191z" />
    <glyph glyph-name="florin.osf" horiz-adv-x="448" 
d="M-16 -200v66h40c40 0 62 30 77 94l79 379h-78v63h91l30 149c8 37 13 62 28 91c21 41 56 67 118 67h65v-68h-51c-29 0 -38 -11 -53 -26c-5 -5 -11 -23 -14 -31l-6 -20c-4 -19 -5 -20 -9 -43l-25 -119h93v-63h-105l-60 -287c-16 -76 -28 -125 -35 -147
c-15 -45 -36 -75 -63 -90c-18 -10 -41 -15 -68 -15h-54z" />
    <glyph glyph-name="zero.tosf" unicode="&#xf81e;" 
d="M152 304c-5 -36 -8 -66 -8 -90c0 -103 36 -150 117 -150c101 0 160 73 188 244c5 34 8 62 8 84c0 99 -37 141 -118 141c-100 0 -160 -72 -187 -229zM62 305c31 197 138 307 291 307c131 0 193 -71 193 -219c0 -26 -2 -54 -6 -84c-29 -214 -126 -321 -289 -321
c-131 0 -197 74 -197 222c0 27 3 59 8 95z" />
    <glyph glyph-name="one.tosf" unicode="&#xf81f;" 
d="M91 74h151l68 404c-55 -32 -113 -53 -174 -63l-1 65c36 9 74 25 114 47c41 22 75 47 104 74h62l-89 -527h134l-12 -74h-369z" />
    <glyph glyph-name="two.tosf" unicode="&#xf820;" 
d="M449 0h-409l9 54l272 240c77 67 105 103 105 158c0 52 -40 82 -97 82c-50 0 -111 -26 -183 -78l-34 54c71 61 155 102 239 102c99 0 169 -49 169 -140c0 -39 -8 -72 -25 -100s-49 -63 -97 -106l-216 -188h280z" />
    <glyph glyph-name="three.tosf" unicode="&#xf821;" 
d="M16 25l54 56c45 -49 93 -76 161 -76c93 0 161 54 161 141c0 61 -42 97 -133 97c-23 0 -40 -1 -52 -3l10 75c96 5 191 44 191 138c0 53 -39 81 -98 81c-48 0 -100 -17 -156 -50l-25 59c67 46 135 69 206 69c97 0 161 -50 161 -138c0 -91 -60 -156 -157 -184
c93 -8 138 -61 138 -138c0 -147 -121 -223 -255 -223c-90 0 -159 32 -206 96z" />
    <glyph glyph-name="four.tosf" unicode="&#xf822;" 
d="M392 513l-284 -332h228zM381 -60h-85l27 164h-318l12 71l359 426h116l-71 -420h78l-13 -77h-78z" />
    <glyph glyph-name="five.tosf" unicode="&#xf823;" 
d="M159 183h-77l102 418h337l-19 -83h-260l-49 -195c43 35 90 52 141 52c107 0 162 -63 162 -168c0 -178 -122 -280 -277 -280c-68 0 -141 23 -190 68l45 62c47 -35 97 -52 150 -52c109 0 182 71 182 184c0 67 -36 110 -108 110c-48 0 -95 -23 -123 -50z" />
    <glyph glyph-name="six.tosf" unicode="&#xf824;" 
d="M91 302c37 296 166 418 324 418c61 0 111 -19 149 -58l-46 -59c-33 28 -71 42 -112 42c-61 0 -114 -31 -149 -86s-58 -116 -75 -193c59 51 119 76 181 76c103 0 155 -65 155 -172c0 -15 -1 -30 -3 -46c-21 -163 -113 -236 -248 -236c-123 0 -182 82 -182 229
c0 27 2 55 6 85zM431 217c2 14 3 27 3 39c0 75 -39 110 -102 110c-49 0 -103 -25 -161 -76c-3 -24 -5 -50 -5 -77c0 -107 38 -153 113 -153s136 53 152 157z" />
    <glyph glyph-name="seven.tosf" unicode="&#xf825;" 
d="M557 601l-10 -60l-348 -601h-92l2 11l330 567h-326l14 83h430z" />
    <glyph glyph-name="eight.tosf" unicode="&#xf826;" 
d="M155 162c0 -61 42 -99 117 -99c46 0 84 14 114 41c31 28 46 63 46 104c0 61 -40 107 -120 136c-45 -21 -76 -41 -108 -70s-49 -67 -49 -112zM247 536c0 -55 39 -94 96 -117c55 25 129 78 129 151c0 51 -37 80 -97 80c-75 0 -128 -46 -128 -114zM66 147
c0 116 94 199 186 235c-57 25 -92 74 -92 138c0 59 21 107 64 144s97 56 163 56c101 0 167 -53 167 -137s-62 -157 -149 -197c77 -39 115 -93 115 -164c0 -70 -24 -127 -73 -170s-112 -64 -189 -64c-120 0 -192 60 -192 159z" />
    <glyph glyph-name="nine.tosf" unicode="&#xf827;" 
d="M522 383c0 -303 -105 -454 -302 -454c-72 0 -129 18 -170 54l45 59c35 -28 78 -42 130 -42c56 0 99 18 130 54s56 97 75 184c-53 -45 -125 -74 -190 -74c-101 0 -154 67 -154 170c0 83 24 150 73 201s110 77 183 77c119 0 180 -85 180 -229zM329 535
c-44 0 -81 -17 -112 -50s-46 -78 -46 -136c0 -76 40 -111 101 -111c59 0 120 34 160 74c4 26 6 50 6 71c0 97 -40 152 -109 152z" />
    <glyph glyph-name="dollar.tosf" 
d="M280 -87h-74l15 87c-80 7 -142 47 -182 100l53 52c49 -55 104 -82 165 -82c88 0 154 48 154 128c0 51 -33 82 -129 114c-109 35 -156 82 -156 162c0 59 20 106 59 143s89 58 150 64l14 84h74l-14 -85c64 -11 117 -42 149 -91l-53 -48c-39 45 -91 72 -146 72
c-85 0 -146 -42 -146 -117c0 -56 39 -83 135 -115c104 -36 151 -88 151 -165c0 -57 -19 -105 -58 -144c-38 -38 -87 -62 -146 -71z" />
    <glyph glyph-name="Euro.tosf" 
d="M107 388h-68l16 64h70c41 135 160 268 319 268c74 0 159 -29 201 -118l-56 -43c-37 56 -92 89 -157 89c-100 0 -179 -76 -222 -196h313l-16 -64h-315l-6 -32l-6 -47h308l-16 -64h-294c8 -115 65 -182 158 -182c72 0 128 26 188 74l34 -49c-77 -68 -153 -100 -245 -100
c-149 0 -218 113 -221 257h-87l15 64h75c0 11 2 26 5 46c3 8 6 25 7 33z" />
    <glyph glyph-name="cent.tosf" 
d="M453 129l25 -58c-49 -38 -101 -61 -155 -69l-17 -100h-77l16 97c-104 11 -167 92 -167 219c0 92 24 167 73 226s111 92 186 99l16 97h76l-16 -101c77 -16 119 -69 119 -156c0 -7 -1 -18 -2 -34h-78c0 4 1 12 1 16c0 67 -33 100 -99 100c-112 0 -184 -89 -184 -234
c0 -93 43 -155 124 -155c59 0 102 16 159 53z" />
    <glyph glyph-name="sterling.tosf" 
d="M294 249c0 -67 -34 -115 -91 -171h280l-13 -78h-416l12 71l50 5c56 53 95 106 95 165c0 22 -3 48 -10 78h-92l11 65h68c-16 48 -24 89 -24 123c-2 125 117 216 240 213c77 0 145 -30 181 -86l-56 -53c-33 41 -76 62 -130 62c-88 0 -146 -49 -146 -129
c0 -31 8 -74 25 -130h152l-11 -65h-133c5 -18 8 -41 8 -70z" />
    <glyph glyph-name="yen.tosf" 
d="M269 324h-191l11 65h163l-125 320h93l106 -294l209 294h89l-235 -320h168l-11 -65h-196l-14 -84h196l-11 -65h-196l-29 -175h-81l29 175h-191l11 65h191z" />
    <glyph glyph-name="florin.tosf" horiz-adv-x="615" 
d="M54 -200v66h40c40 0 62 30 77 94l79 379h-78v63h91l30 149c8 37 13 62 28 91c21 41 56 67 118 67h65v-68h-51c-29 0 -38 -11 -53 -26c-5 -5 -11 -23 -14 -31l-6 -20c-4 -19 -5 -20 -9 -43l-25 -119h93v-63h-105l-60 -287c-16 -76 -28 -125 -35 -147
c-15 -45 -36 -75 -63 -90c-18 -10 -41 -15 -68 -15h-54z" />
    <glyph glyph-name="ampersand.alt" horiz-adv-x="705" 
d="M607 47l-70 -56l-65 96c-75 -72 -146 -104 -233 -104c-57 0 -102 16 -136 49c-33 33 -50 77 -50 130c0 113 67 195 200 255c-32 45 -48 88 -48 130c0 51 18 93 55 127s85 51 143 51c88 0 132 -39 132 -118c0 -15 -1 -29 -4 -42l-3 -15h-76l2 13c2 11 3 20 3 29
c0 43 -23 64 -70 64c-57 0 -98 -40 -98 -95c0 -35 15 -66 47 -111l104 -148l133 101l40 -57l-138 -104zM262 59c56 0 114 29 173 87l-144 220c-101 -41 -152 -104 -152 -187c0 -69 47 -120 123 -120z" />
    <glyph glyph-name="J.alt" horiz-adv-x="385" 
d="M293 720h90l-89 -534c-20 -122 -80 -186 -258 -186h-54l14 81h50c53 0 91 8 114 23s38 45 45 89z" />
    <glyph glyph-name="Q.alt" horiz-adv-x="746" 
d="M61 367c38 245 197 366 386 366c165 0 266 -102 266 -282c0 -21 -2 -49 -7 -84c-38 -252 -175 -361 -338 -376l-20 -124h-88l20 124c-141 15 -227 111 -227 280c0 28 3 60 8 96zM159 374c-6 -39 -9 -72 -9 -100c0 -136 68 -205 185 -205c149 0 241 97 275 291
c4 23 6 51 6 85c0 129 -69 203 -184 203c-141 0 -244 -98 -273 -274z" />
    <glyph glyph-name="j.alt" horiz-adv-x="240" 
d="M116 525h85l-100 -598c-15 -85 -54 -130 -138 -130h-70l12 74h48c40 0 56 12 65 68zM126 659c0 35 31 59 66 59c29 0 47 -17 47 -44c0 -35 -28 -57 -64 -57c-29 0 -49 17 -49 42z" />
    <glyph glyph-name="m.alt" horiz-adv-x="812" 
d="M22 0l88 525h218c75 0 109 -24 116 -81c53 56 126 93 197 93c75 0 113 -39 113 -116c0 -16 -2 -35 -5 -57l-61 -364h-86l58 349c3 13 4 27 4 41c0 44 -17 66 -62 66c-40 0 -86 -25 -139 -75l-64 -381h-86l58 349c2 13 3 25 3 34c0 45 -23 64 -79 64h-112l-75 -447h-86z
" />
    <glyph glyph-name="y.alt" horiz-adv-x="484" 
d="M211 110l204 415h88l-272 -532l-12 -73c-8 -47 -22 -79 -41 -95c-19 -17 -52 -25 -100 -25h-58l12 73h47c45 0 51 8 59 53l11 67l-92 532h91z" />
    <glyph glyph-name="Jcircumflex.alt" horiz-adv-x="385" 
d="M284 720h90l-89 -534c-20 -122 -80 -186 -258 -186h-54l14 81h50c53 0 91 8 114 23s38 45 45 89zM208 798l121 111h61l81 -111l-44 -37l-80 77l-107 -77z" />
    <glyph glyph-name="jcircumflex.alt" horiz-adv-x="241" 
d="M116 525h85l-100 -598c-15 -85 -54 -130 -138 -130h-70l12 74h48c40 0 56 12 65 68zM43 609l130 147h57l79 -147l-45 -30l-73 106l-111 -106z" />
    <glyph glyph-name="ygrave.alt" horiz-adv-x="484" 
d="M179 110l204 415h88l-272 -532l-12 -73c-8 -47 -22 -79 -41 -95c-19 -17 -52 -25 -100 -25h-58l12 73h47c45 0 51 8 59 53l11 67l-92 532h91zM170 706l64 64l117 -137l-50 -50z" />
    <glyph glyph-name="ycircumflex.alt" horiz-adv-x="484" 
d="M179 110l204 415h88l-272 -532l-12 -73c-8 -47 -22 -79 -41 -95c-19 -17 -52 -25 -100 -25h-58l12 73h47c45 0 51 8 59 53l11 67l-92 532h91zM125 610l131 146h60l79 -147l-49 -32l-72 105l-107 -104z" />
    <glyph glyph-name="ydieresis.alt" horiz-adv-x="484" 
d="M179 110l204 415h88l-272 -532l-12 -73c-8 -47 -22 -79 -41 -95c-19 -17 -52 -25 -100 -25h-58l12 73h47c45 0 51 8 59 53l11 67l-92 532h91zM320 660c0 32 27 56 62 56c28 0 44 -16 44 -41c0 -31 -27 -56 -60 -56c-29 0 -46 17 -46 41zM127 660c0 32 28 56 61 56
c28 0 44 -16 44 -41c0 -31 -27 -56 -59 -56c-29 0 -46 17 -46 41z" />
    <glyph glyph-name="yacute.alt" horiz-adv-x="484" 
d="M179 110l204 415h88l-272 -532l-12 -73c-8 -47 -22 -79 -41 -95c-19 -17 -52 -25 -100 -25h-58l12 73h47c45 0 51 8 59 53l11 67l-92 532h91zM202 573l-34 50l164 137l41 -64z" />
    <glyph glyph-name="agrave.alt" horiz-adv-x="522" 
d="M350 213l3 20c-21 3 -47 5 -77 5c-119 0 -171 -37 -171 -114c0 -43 27 -66 79 -66c37 0 73 17 106 50s53 68 60 105zM459 352l-59 -352h-71l8 89c-47 -67 -109 -101 -188 -101c-83 0 -132 44 -132 124c0 85 54 193 268 193c25 0 52 -2 79 -6l8 50c2 11 3 21 3 30
c0 56 -33 84 -93 84c-57 0 -101 -19 -160 -58l-31 54c60 49 137 78 209 78c104 0 163 -43 163 -138c0 -17 -1 -32 -4 -47zM224 706l64 64l117 -137l-50 -50z" />
    <glyph glyph-name="a.alt" horiz-adv-x="522" 
d="M350 213l3 20c-21 3 -47 5 -77 5c-119 0 -171 -37 -171 -114c0 -43 27 -66 79 -66c37 0 73 17 106 50s53 68 60 105zM459 352l-59 -352h-71l8 89c-47 -67 -109 -101 -188 -101c-83 0 -132 44 -132 124c0 85 54 193 268 193c25 0 52 -2 79 -6l8 50c2 11 3 21 3 30
c0 56 -33 84 -93 84c-57 0 -101 -19 -160 -58l-31 54c60 49 137 78 209 78c104 0 163 -43 163 -138c0 -17 -1 -32 -4 -47z" />
    <glyph glyph-name="aacute.alt" horiz-adv-x="522" 
d="M350 213l3 20c-21 3 -47 5 -77 5c-119 0 -171 -37 -171 -114c0 -43 27 -66 79 -66c37 0 73 17 106 50s53 68 60 105zM459 352l-59 -352h-71l8 89c-47 -67 -109 -101 -188 -101c-83 0 -132 44 -132 124c0 85 54 193 268 193c25 0 52 -2 79 -6l8 50c2 11 3 21 3 30
c0 56 -33 84 -93 84c-57 0 -101 -19 -160 -58l-31 54c60 49 137 78 209 78c104 0 163 -43 163 -138c0 -17 -1 -32 -4 -47zM261 583l-34 50l164 137l41 -64z" />
    <glyph glyph-name="acircumflex.alt" horiz-adv-x="522" 
d="M350 213l3 20c-21 3 -47 5 -77 5c-119 0 -171 -37 -171 -114c0 -43 27 -66 79 -66c37 0 73 17 106 50s53 68 60 105zM459 352l-59 -352h-71l8 89c-47 -67 -109 -101 -188 -101c-83 0 -132 44 -132 124c0 85 54 193 268 193c25 0 52 -2 79 -6l8 50c2 11 3 21 3 30
c0 56 -33 84 -93 84c-57 0 -101 -19 -160 -58l-31 54c60 49 137 78 209 78c104 0 163 -43 163 -138c0 -17 -1 -32 -4 -47zM163 610l131 146h60l79 -147l-49 -32l-72 105l-107 -104z" />
    <glyph glyph-name="atilde.alt" horiz-adv-x="522" 
d="M350 213l3 20c-21 3 -47 5 -77 5c-119 0 -171 -37 -171 -114c0 -43 27 -66 79 -66c37 0 73 17 106 50s53 68 60 105zM459 352l-59 -352h-71l8 89c-47 -67 -109 -101 -188 -101c-83 0 -132 44 -132 124c0 85 54 193 268 193c25 0 52 -2 79 -6l8 50c2 11 3 21 3 30
c0 56 -33 84 -93 84c-57 0 -101 -19 -160 -58l-31 54c60 49 137 78 209 78c104 0 163 -43 163 -138c0 -17 -1 -32 -4 -47zM421 705l44 -17c-29 -63 -58 -86 -99 -86c-16 0 -37 5 -64 16s-44 16 -52 16c-16 0 -26 -7 -46 -35l-43 19c36 61 61 84 96 84c15 0 35 -5 60 -16
s44 -16 57 -16c20 0 28 7 47 35z" />
    <glyph glyph-name="adieresis.alt" horiz-adv-x="522" 
d="M350 213l3 20c-21 3 -47 5 -77 5c-119 0 -171 -37 -171 -114c0 -43 27 -66 79 -66c37 0 73 17 106 50s53 68 60 105zM459 352l-59 -352h-71l8 89c-47 -67 -109 -101 -188 -101c-83 0 -132 44 -132 124c0 85 54 193 268 193c25 0 52 -2 79 -6l8 50c2 11 3 21 3 30
c0 56 -33 84 -93 84c-57 0 -101 -19 -160 -58l-31 54c60 49 137 78 209 78c104 0 163 -43 163 -138c0 -17 -1 -32 -4 -47zM354 660c0 32 27 56 62 56c28 0 44 -16 44 -41c0 -31 -27 -56 -60 -56c-29 0 -46 17 -46 41zM161 660c0 32 28 56 61 56c28 0 44 -16 44 -41
c0 -31 -27 -56 -59 -56c-29 0 -46 17 -46 41z" />
    <glyph glyph-name="aring.alt" horiz-adv-x="522" 
d="M350 213l3 20c-21 3 -47 5 -77 5c-119 0 -171 -37 -171 -114c0 -43 27 -66 79 -66c37 0 73 17 106 50s53 68 60 105zM459 352l-59 -352h-71l8 89c-47 -67 -109 -101 -188 -101c-83 0 -132 44 -132 124c0 85 54 193 268 193c25 0 52 -2 79 -6l8 50c2 11 3 21 3 30
c0 56 -33 84 -93 84c-57 0 -101 -19 -160 -58l-31 54c60 49 137 78 209 78c104 0 163 -43 163 -138c0 -17 -1 -32 -4 -47zM290 657c0 -20 13 -31 34 -31c28 0 46 19 46 48c0 20 -11 30 -33 30c-29 0 -47 -19 -47 -47zM235 649c0 60 50 106 110 106c48 0 79 -30 79 -75
c0 -61 -48 -104 -109 -104c-48 0 -80 28 -80 73z" />
    <glyph glyph-name="amacron.alt" horiz-adv-x="522" 
d="M350 213l3 20c-21 3 -47 5 -77 5c-119 0 -171 -37 -171 -114c0 -43 27 -66 79 -66c37 0 73 17 106 50s53 68 60 105zM459 352l-59 -352h-71l8 89c-47 -67 -109 -101 -188 -101c-83 0 -132 44 -132 124c0 85 54 193 268 193c25 0 52 -2 79 -6l8 50c2 11 3 21 3 30
c0 56 -33 84 -93 84c-57 0 -101 -19 -160 -58l-31 54c60 49 137 78 209 78c104 0 163 -43 163 -138c0 -17 -1 -32 -4 -47zM179 616l11 67h269l-11 -67h-269z" />
    <glyph glyph-name="abreve.alt" horiz-adv-x="522" 
d="M350 213l3 20c-21 3 -47 5 -77 5c-119 0 -171 -37 -171 -114c0 -43 27 -66 79 -66c37 0 73 17 106 50s53 68 60 105zM459 352l-59 -352h-71l8 89c-47 -67 -109 -101 -188 -101c-83 0 -132 44 -132 124c0 85 54 193 268 193c25 0 52 -2 79 -6l8 50c2 11 3 21 3 30
c0 56 -33 84 -93 84c-57 0 -101 -19 -160 -58l-31 54c60 49 137 78 209 78c104 0 163 -43 163 -138c0 -17 -1 -32 -4 -47zM320 654c57 0 78 26 97 79l59 -10c-24 -88 -76 -129 -165 -129c-88 0 -124 37 -124 121v7l67 11c2 -48 7 -79 66 -79z" />
    <glyph glyph-name="aogonek.alt" horiz-adv-x="522" 
d="M459 352l-59 -352c-64 -56 -97 -95 -97 -132c0 -17 10 -26 31 -26c13 0 31 4 54 12l9 -51c-27 -16 -67 -29 -104 -29c-51 0 -77 25 -77 65c0 59 41 109 113 164l8 86c-47 -67 -109 -101 -188 -101c-83 0 -132 44 -132 124c0 85 54 193 268 193c25 0 52 -2 79 -6l8 50
c2 11 3 21 3 30c0 56 -33 84 -93 84c-57 0 -101 -19 -160 -58l-31 54c60 49 137 78 209 78c104 0 163 -43 163 -138c0 -17 -1 -32 -4 -47zM350 213l3 20c-21 3 -47 5 -77 5c-119 0 -171 -37 -171 -114c0 -43 27 -66 79 -66c37 0 73 17 106 50s53 68 60 105z" />
    <glyph glyph-name="e.alt" horiz-adv-x="531" 
d="M415 118l24 -60c-63 -47 -132 -70 -208 -70c-127 0 -198 72 -198 211c-3 196 121 342 289 338c113 0 169 -63 169 -190c0 -39 -5 -76 -16 -111h-349c-2 -15 -3 -29 -3 -42c0 -83 41 -131 128 -131c53 0 103 16 164 55zM139 308h267c3 21 4 37 4 46c0 68 -30 110 -99 110
c-113 0 -161 -106 -172 -156z" />
    <glyph glyph-name="egrave.alt" horiz-adv-x="531" 
d="M415 118l24 -60c-63 -47 -132 -70 -208 -70c-127 0 -198 72 -198 211c-3 196 121 342 289 338c113 0 169 -63 169 -190c0 -39 -5 -76 -16 -111h-349c-2 -15 -3 -29 -3 -42c0 -83 41 -131 128 -131c53 0 103 16 164 55zM139 308h267c3 21 4 37 4 46c0 68 -30 110 -99 110
c-113 0 -161 -106 -172 -156zM234 706l64 64l117 -137l-50 -50z" />
    <glyph glyph-name="eacute.alt" horiz-adv-x="531" 
d="M415 118l24 -60c-63 -47 -132 -70 -208 -70c-127 0 -198 72 -198 211c-3 196 121 342 289 338c113 0 169 -63 169 -190c0 -39 -5 -76 -16 -111h-349c-2 -15 -3 -29 -3 -42c0 -83 41 -131 128 -131c53 0 103 16 164 55zM139 308h267c3 21 4 37 4 46c0 68 -30 110 -99 110
c-113 0 -161 -106 -172 -156zM269 583l-34 50l164 137l41 -64z" />
    <glyph glyph-name="ecircumflex.alt" horiz-adv-x="531" 
d="M415 118l24 -60c-63 -47 -132 -70 -208 -70c-127 0 -198 72 -198 211c-3 196 121 342 289 338c113 0 169 -63 169 -190c0 -39 -5 -76 -16 -111h-349c-2 -15 -3 -29 -3 -42c0 -83 41 -131 128 -131c53 0 103 16 164 55zM139 308h267c3 21 4 37 4 46c0 68 -30 110 -99 110
c-113 0 -161 -106 -172 -156zM189 610l131 146h60l79 -147l-49 -32l-72 105l-107 -104z" />
    <glyph glyph-name="edieresis.alt" horiz-adv-x="531" 
d="M415 118l24 -60c-63 -47 -132 -70 -208 -70c-127 0 -198 72 -198 211c-3 196 121 342 289 338c113 0 169 -63 169 -190c0 -39 -5 -76 -16 -111h-349c-2 -15 -3 -29 -3 -42c0 -83 41 -131 128 -131c53 0 103 16 164 55zM139 308h267c3 21 4 37 4 46c0 68 -30 110 -99 110
c-113 0 -161 -106 -172 -156zM378 660c0 32 27 56 62 56c28 0 44 -16 44 -41c0 -31 -27 -56 -60 -56c-29 0 -46 17 -46 41zM185 660c0 32 28 56 61 56c28 0 44 -16 44 -41c0 -31 -27 -56 -59 -56c-29 0 -46 17 -46 41z" />
    <glyph glyph-name="emacron.alt" horiz-adv-x="531" 
d="M415 118l24 -60c-63 -47 -132 -70 -208 -70c-127 0 -198 72 -198 211c-3 196 121 342 289 338c113 0 169 -63 169 -190c0 -39 -5 -76 -16 -111h-349c-2 -15 -3 -29 -3 -42c0 -83 41 -131 128 -131c53 0 103 16 164 55zM139 308h267c3 21 4 37 4 46c0 68 -30 110 -99 110
c-113 0 -161 -106 -172 -156zM204 616l11 67h269l-11 -67h-269z" />
    <glyph glyph-name="ebreve.alt" horiz-adv-x="531" 
d="M415 118l24 -60c-63 -47 -132 -70 -208 -70c-127 0 -198 72 -198 211c-3 196 121 342 289 338c113 0 169 -63 169 -190c0 -39 -5 -76 -16 -111h-349c-2 -15 -3 -29 -3 -42c0 -83 41 -131 128 -131c53 0 103 16 164 55zM139 308h267c3 21 4 37 4 46c0 68 -30 110 -99 110
c-113 0 -161 -106 -172 -156zM341 654c57 0 78 26 97 79l59 -10c-24 -88 -76 -129 -165 -129c-88 0 -124 37 -124 121v7l67 11c2 -48 7 -79 66 -79z" />
    <glyph glyph-name="edotaccent.alt" horiz-adv-x="531" 
d="M415 118l24 -60c-63 -47 -132 -70 -208 -70c-127 0 -198 72 -198 211c-3 196 121 342 289 338c113 0 169 -63 169 -190c0 -39 -5 -76 -16 -111h-349c-2 -15 -3 -29 -3 -42c0 -83 41 -131 128 -131c53 0 103 16 164 55zM139 308h267c3 21 4 37 4 46c0 68 -30 110 -99 110
c-113 0 -161 -106 -172 -156zM291 659c0 35 31 59 66 59c29 0 47 -17 47 -44c0 -35 -28 -57 -64 -57c-29 0 -49 17 -49 42z" />
    <glyph glyph-name="eogonek.alt" horiz-adv-x="518" 
d="M415 118l24 -60c-13 -11 -33 -24 -59 -39l-41 -24c-65 -40 -102 -87 -102 -127c0 -17 10 -26 31 -26c13 0 31 4 54 12l9 -51c-27 -16 -67 -29 -104 -29c-51 0 -77 25 -77 65c0 49 31 99 94 149h-13c-127 0 -198 72 -198 211c-3 196 121 342 289 338
c113 0 169 -63 169 -190c0 -39 -5 -76 -16 -111h-349c-2 -15 -3 -29 -3 -42c0 -83 41 -131 128 -131c53 0 103 16 164 55zM139 308h267c3 21 4 37 4 46c0 68 -30 110 -99 110c-113 0 -161 -106 -172 -156z" />
    <glyph glyph-name="ecaron.alt" horiz-adv-x="531" 
d="M415 118l24 -60c-63 -47 -132 -70 -208 -70c-127 0 -198 72 -198 211c-3 196 121 342 289 338c113 0 169 -63 169 -190c0 -39 -5 -76 -16 -111h-349c-2 -15 -3 -29 -3 -42c0 -83 41 -131 128 -131c53 0 103 16 164 55zM139 308h267c3 21 4 37 4 46c0 68 -30 110 -99 110
c-113 0 -161 -106 -172 -156zM490 729l-129 -147h-59l-82 146l52 32l73 -104l107 106z" />
    <glyph glyph-name="ae.alt" horiz-adv-x="839" 
d="M736 118l24 -60c-63 -47 -132 -70 -208 -70c-91 0 -155 40 -192 119c-40 -75 -126 -119 -211 -119c-83 0 -132 44 -132 124c0 85 54 193 268 193c25 0 52 -2 79 -6l8 50c2 11 3 21 3 30c0 56 -33 84 -93 84c-57 0 -101 -19 -160 -58l-31 54c60 49 137 78 209 78
c80 0 142 -33 149 -88c13 25 39 46 77 63c39 17 78 25 117 25c113 0 169 -63 169 -190c0 -55 -9 -87 -14 -104l-2 -7h-349c-2 -15 -3 -29 -3 -42c0 -83 40 -131 128 -131c53 0 103 16 164 55zM460 308h267c3 23 4 38 4 46c0 68 -30 110 -99 110c-114 0 -161 -106 -172 -156z
M350 213l3 20c-21 3 -47 5 -77 5c-119 0 -171 -37 -171 -114c0 -43 27 -66 79 -66c37 0 73 17 106 50s53 68 60 105z" />
    <glyph glyph-name="oe.alt" horiz-adv-x="910" 
d="M32 201c0 103 28 184 83 245s127 91 215 91c80 0 144 -44 168 -112c43 67 128 112 216 112c113 0 169 -63 169 -190c0 -64 -13 -100 -16 -111h-349c-2 -15 -3 -29 -3 -42c0 -83 41 -131 128 -131c53 0 101 16 164 55l24 -60c-63 -47 -132 -70 -208 -70
c-87 0 -154 41 -175 110c-51 -69 -134 -110 -223 -110c-123 0 -193 77 -193 213zM124 214c0 -99 46 -148 119 -148c99 0 188 81 188 243c0 99 -46 150 -121 150c-53 0 -98 -22 -133 -65s-53 -103 -53 -180zM531 308h267c3 23 4 38 4 46c0 68 -30 110 -99 110
c-113 0 -161 -106 -172 -156z" />
    <glyph glyph-name="gcircumflex.alt" horiz-adv-x="581" 
d="M472 525h74l-85 -507c-27 -174 -146 -218 -297 -218h-129l13 79h125c68 0 117 11 147 32c31 21 50 58 59 112l8 49c-48 -49 -111 -81 -182 -81c-112 0 -169 79 -169 204c0 177 89 342 269 342c81 0 125 -53 149 -88zM396 144l38 228c-14 31 -63 85 -127 85
c-57 0 -101 -23 -132 -69c-31 -45 -47 -104 -47 -177c0 -88 36 -142 112 -142c32 0 65 10 93 27c28 19 42 29 63 48zM220 610l131 146h60l79 -147l-49 -32l-72 105l-107 -104z" />
    <glyph glyph-name="g.alt" horiz-adv-x="581" 
d="M472 525h74l-85 -507c-27 -174 -146 -218 -297 -218h-129l13 79h125c68 0 117 11 147 32c31 21 50 58 59 112l8 49c-48 -49 -111 -81 -182 -81c-112 0 -169 79 -169 204c0 177 89 342 269 342c81 0 125 -53 149 -88zM396 144l38 228c-14 31 -63 85 -127 85
c-57 0 -101 -23 -132 -69c-31 -45 -47 -104 -47 -177c0 -88 36 -142 112 -142c32 0 65 10 93 27c28 19 42 29 63 48z" />
    <glyph glyph-name="gbreve.alt" horiz-adv-x="581" 
d="M472 525h74l-85 -507c-27 -174 -146 -218 -297 -218h-129l13 79h125c68 0 117 11 147 32c31 21 50 58 59 112l8 49c-48 -49 -111 -81 -182 -81c-112 0 -169 79 -169 204c0 177 89 342 269 342c81 0 125 -53 149 -88zM396 144l38 228c-14 31 -63 85 -127 85
c-57 0 -101 -23 -132 -69c-31 -45 -47 -104 -47 -177c0 -88 36 -142 112 -142c32 0 65 10 93 27c28 19 42 29 63 48zM367 654c57 0 78 26 97 79l59 -10c-24 -88 -76 -129 -165 -129c-88 0 -124 37 -124 121v7l67 11c2 -48 7 -79 66 -79z" />
    <glyph glyph-name="gdotaccent.alt" horiz-adv-x="581" 
d="M472 525h74l-85 -507c-27 -174 -146 -218 -297 -218h-129l13 79h125c68 0 117 11 147 32c31 21 50 58 59 112l8 49c-48 -49 -111 -81 -182 -81c-112 0 -169 79 -169 204c0 177 89 342 269 342c81 0 125 -53 149 -88zM396 144l38 228c-14 31 -63 85 -127 85
c-57 0 -101 -23 -132 -69c-31 -45 -47 -104 -47 -177c0 -88 36 -142 112 -142c32 0 65 10 93 27c28 19 42 29 63 48zM316 659c0 35 31 59 66 59c29 0 47 -17 47 -44c0 -35 -28 -57 -64 -57c-29 0 -49 17 -49 42z" />
    <glyph glyph-name="gcommaaccent.alt" horiz-adv-x="581" 
d="M472 525h74l-85 -507c-27 -174 -146 -218 -297 -218h-129l13 79h125c68 0 117 11 147 32c31 21 50 58 59 112l8 49c-48 -49 -111 -81 -182 -81c-112 0 -169 79 -169 204c0 177 89 342 269 342c81 0 125 -53 149 -88zM396 144l38 228c-14 31 -63 85 -127 85
c-57 0 -101 -23 -132 -69c-31 -45 -47 -104 -47 -177c0 -88 36 -142 112 -142c32 0 65 10 93 27c28 19 42 29 63 48zM399 771l61 -19l-69 -167l-77 23z" />
    <glyph glyph-name="apple" unicode="&#xf8ff;" horiz-adv-x="2406" 
d="M1677 -97l-17 -8c6 -13 9 -26 9 -37c0 -32 -22 -59 -67 -80c-44 -21 -102 -32 -175 -32c-80 0 -143 19 -190 57c-56 -29 -109 -43 -159 -43c-65 0 -115 14 -148 43c-40 -59 -137 -85 -250 -85c-98 0 -241 54 -241 166v6c-29 15 -47 33 -55 56c-36 -15 -75 -22 -118 -22
c-91 0 -144 64 -144 153c0 17 2 34 6 52c16 75 85 149 172 189c-16 23 -24 50 -24 82c0 12 2 25 5 40c11 51 32 90 63 119s62 44 93 44c5 0 9 0 12 -1c37 37 118 56 187 56c58 0 110 -9 155 -26c49 69 136 111 227 111c5 0 11 -1 19 -2c48 65 157 103 289 103
c108 0 200 -53 247 -134c48 15 104 23 168 23c40 0 92 -7 149 -23c59 -16 110 -49 125 -92c17 10 35 15 54 15c68 0 118 -44 118 -101c0 -8 -1 -16 -3 -24c-4 -18 -11 -34 -20 -49c45 -27 74 -78 74 -139c0 -15 -2 -32 -6 -50c-8 -32 -19 -59 -34 -80c48 -33 70 -87 70 -144
c0 -17 -2 -35 -6 -52c-21 -98 -124 -124 -206 -124c-21 0 -43 3 -66 8c-20 -25 -70 -46 -127 -46c-64 0 -128 32 -148 88l-28 -12c13 -77 94 -123 187 -123c55 0 98 11 159 40l1 -2c-53 -28 -106 -42 -159 -42c-92 0 -179 33 -198 122zM692 505c17 0 34 -2 50 -7
c2 24 8 49 17 74c-31 9 -62 13 -94 13c-51 0 -100 -10 -149 -29c6 -11 9 -24 9 -39c0 -72 -43 -119 -88 -119c-24 0 -41 19 -41 46c0 3 1 9 2 17c4 19 17 37 38 54c-7 10 -10 21 -10 33c0 3 1 9 2 17c3 14 10 26 19 35c-2 1 -5 1 -10 1c-61 0 -122 -58 -145 -161
c-4 -14 -6 -29 -6 -45c0 -29 6 -54 19 -75c43 18 81 27 115 27c27 0 52 -16 52 -37c0 -1 -1 -5 -1 -6c-4 -23 -29 -35 -74 -35c-41 0 -73 15 -95 44c-75 -40 -134 -112 -150 -181c-5 -25 -8 -48 -8 -67c0 -84 45 -139 122 -139c42 0 81 7 117 22c-6 14 -9 29 -9 44
c0 13 2 26 6 39c8 37 40 62 67 62c18 0 27 -12 27 -37c0 -7 0 -11 -1 -14c-5 -35 -35 -70 -84 -94c5 -20 24 -41 51 -53c0 7 1 13 3 19c13 64 70 113 137 121c0 -1 0 -1 1 -1c-61 -8 -110 -56 -123 -120c-1 -7 -3 -15 -4 -26c15 -6 32 -9 51 -9c15 0 28 2 39 5v-1
c-16 -5 -31 -8 -45 -8c-15 0 -30 3 -45 8c-1 -102 122 -166 226 -163c113 0 212 25 249 84c-19 17 -29 37 -29 59c0 7 1 14 3 21c1 12 7 23 16 34c-7 7 -15 13 -26 18c-81 -63 -147 -95 -200 -95c-45 0 -84 20 -84 59c0 3 1 8 2 16c11 41 83 51 137 51c47 0 87 -6 122 -19
c5 4 14 12 29 23l32 24c12 8 47 33 63 41c16 9 46 27 66 32c21 7 48 14 72 14c-8 20 -13 40 -16 59c-19 -15 -40 -23 -62 -23c-25 0 -37 23 -37 51c0 4 1 11 2 20l35 158h-80c-15 -76 -29 -147 -43 -213c-8 -40 -27 -71 -56 -94s-59 -34 -90 -34c-43 0 -77 15 -102 44l2 2
c24 -21 40 -30 68 -30c68 0 96 72 104 114c10 39 27 109 50 211h-45c0 3 0 6 1 8h46l17 68c16 77 76 127 140 127c32 0 99 -7 116 -64c24 12 66 26 99 26c35 0 50 -9 50 -38c0 -8 -1 -17 -3 -28l-21 -89c75 11 122 57 143 120c-32 8 -61 35 -61 71c0 31 14 60 43 87
c-29 37 -72 59 -111 59c-53 0 -86 -30 -86 -69c0 -23 9 -39 27 -50l-3 -2c-19 11 -37 35 -37 52c0 43 38 73 99 73c40 0 84 -23 113 -60c33 31 79 55 137 72c-43 77 -133 129 -245 129c-123 0 -228 -36 -276 -101c29 -9 52 -28 52 -55c0 -5 -1 -10 -3 -16
c-5 -21 -21 -31 -47 -31c-21 0 -37 19 -37 46c0 3 1 8 2 16c5 16 11 30 18 42c-3 1 -9 1 -17 1c-89 0 -167 -44 -218 -113c51 -22 80 -55 89 -99c1 -2 1 -6 1 -12c0 -11 -2 -18 -5 -23l-2 2c3 5 4 13 4 22c0 5 0 9 -1 11c-8 41 -37 73 -88 96c-12 -16 -22 -34 -30 -53
c61 -20 92 -47 92 -82c0 -6 0 -10 -1 -13c-5 -19 -38 -41 -99 -66c-58 -24 -95 -53 -112 -87c-7 -15 -10 -29 -10 -44c0 -27 9 -44 28 -53c3 39 17 70 42 93c25 24 50 36 73 36c33 0 54 -20 54 -45c0 -11 -3 -20 -8 -29c-19 -31 -51 -50 -98 -59v-8c0 -40 14 -67 35 -67
c17 0 33 8 46 25c-7 9 -12 18 -10 27c1 8 8 12 19 12c5 0 9 -2 10 -7s0 -11 -3 -16l-9 -14l11 -14c4 -4 12 -20 12 -33c0 -5 0 -8 -1 -10c-8 -32 -46 -55 -98 -55c-37 0 -108 24 -212 73c-21 -12 -44 -18 -70 -18c-37 0 -73 25 -73 62c0 16 13 29 21 29c7 3 39 -21 71 -39
c3 8 11 23 12 26l88 224c24 59 71 85 114 85zM1421 148c37 0 63 31 78 92c3 11 4 21 4 32c0 13 -3 28 -10 45l2 1c9 -17 13 -35 13 -53c0 -9 -1 -19 -3 -29c-16 -69 -49 -102 -116 -102c-37 0 -63 39 -63 91c0 13 1 24 4 35c7 31 22 54 44 71s43 25 64 25c20 0 34 -5 41 -15
c15 9 31 14 49 14h27l15 68c16 77 76 127 140 127c27 0 51 -5 72 -14l10 -6c11 7 25 13 42 18c-3 7 -3 15 -2 26c3 17 14 34 34 51l3 -1c-12 -14 -20 -31 -24 -50c-1 -5 -1 -13 0 -24c12 1 21 2 26 2c37 0 67 -20 84 -52c31 11 50 34 57 61c2 9 3 18 3 25c0 8 -1 16 -3 23
c-15 -11 -31 -29 -36 -37l-5 -7c0 15 15 35 39 50c-13 43 -64 75 -120 91c-56 17 -108 25 -149 25c-60 0 -115 -8 -165 -24c15 -28 22 -57 22 -88c0 -12 -2 -26 -5 -42c-8 -28 -25 -52 -50 -72s-51 -30 -78 -30c-5 0 -9 0 -11 1c-21 -65 -71 -115 -148 -127l-16 -63
c-12 -53 -21 -86 -24 -102s-4 -27 -4 -33c0 -31 13 -46 39 -46c19 0 22 1 50 16l3 -3c-33 -23 -70 -34 -109 -34c-35 0 -57 20 -57 59c0 11 1 21 4 30c3 15 7 31 12 50l19 67c7 25 13 44 16 57h-118l-36 -160c-1 -3 -1 -6 -1 -11c0 -18 5 -27 16 -27c5 0 10 2 14 5
c0 5 -1 20 -1 27c0 43 14 65 34 65c11 0 16 -6 16 -19c0 -3 -1 -8 -2 -15c-8 -31 -18 -44 -34 -60c1 -21 6 -44 15 -70c34 -1 51 -9 51 -23c0 -11 -4 -16 -13 -17c6 1 9 7 9 16c0 13 -15 21 -46 22c9 -24 20 -37 33 -38c-20 1 -34 14 -43 38c-41 -3 -88 -26 -117 -50
c-15 -11 -34 -27 -59 -46c-24 -20 -45 -36 -62 -47c12 -6 21 -12 26 -17c29 35 88 52 147 52c32 0 67 -7 105 -22c0 6 4 21 6 28c6 29 25 53 56 73c31 21 58 31 79 31c13 0 7 -18 16 -29c18 -21 41 -31 69 -31c51 0 86 38 106 114l48 211h-25c-16 0 -30 -4 -43 -13
c4 -7 6 -13 6 -20c0 -11 -9 -18 -18 -18s-16 8 -16 16c0 11 5 19 16 26c-5 5 -12 8 -21 8c-25 0 -46 -32 -61 -97c-3 -12 -4 -24 -4 -37c0 -37 15 -64 34 -64zM2149 211l3 1c8 -3 19 -7 32 -14c11 21 21 47 28 78c4 19 6 37 6 54c0 56 -19 98 -56 125
c-28 -43 -70 -51 -80 -49c-21 0 -46 14 -46 34c0 21 23 42 50 42c25 0 48 -6 68 -17c8 15 14 31 19 50c2 8 3 16 3 23c0 53 -46 94 -107 94c-17 0 -35 -6 -52 -19c3 -7 4 -15 4 -26c0 -9 -1 -18 -3 -27c-7 -27 -28 -51 -61 -63c7 -16 11 -31 11 -46c0 -9 -1 -17 -3 -25
c-17 -59 -72 -79 -130 -79h-72l-21 -85l-17 -75c0 -3 -1 -6 -1 -9c0 -16 6 -29 18 -29c6 0 13 4 22 13c-4 11 -6 22 -6 34c0 11 1 20 4 29c5 27 21 45 33 45c9 0 13 -6 13 -18c0 -3 -1 -10 -3 -20c-8 -30 -18 -54 -31 -71c7 -29 23 -49 47 -61c8 43 32 59 63 59
c16 0 31 -11 31 -27c0 -3 0 -6 -1 -8c-3 -21 -24 -35 -51 -35c-9 0 -18 1 -27 3c0 -37 23 -63 60 -74c13 31 50 52 90 52c11 0 21 -2 28 -5l-1 -2c-8 3 -17 5 -27 5c-37 0 -70 -21 -83 -52c9 -2 19 -3 29 -3c69 0 124 35 153 98c-15 -4 -32 -6 -51 -6c-61 0 -94 39 -94 84
c0 5 1 11 2 19c13 52 54 82 101 82c45 0 76 -35 76 -94c0 -10 -1 -21 -3 -33c-4 -18 -9 -32 -15 -43c33 13 60 38 81 75c-9 5 -20 11 -33 16zM1745 68l2 -2c-43 -44 -63 -77 -63 -129c0 -9 0 -15 1 -19l28 9c-3 12 -5 23 -5 33c0 38 17 70 51 96l3 -3
c-33 -24 -49 -55 -49 -94c0 -9 1 -18 4 -29c58 19 109 29 154 29h21c-1 5 -2 12 -2 21c0 8 0 14 1 19c1 8 3 13 4 16c-45 11 -75 41 -74 82c-24 9 -42 28 -54 55c-20 -23 -44 -34 -73 -34c-25 0 -36 21 -36 50c0 5 1 12 2 21c13 63 25 115 34 158h-74l-46 -212
c-17 -85 -91 -129 -145 -129c-47 0 -81 15 -102 44c-12 15 -1 30 -13 30c-36 0 -122 -51 -125 -137c16 -7 38 -17 66 -32c29 -15 49 -25 61 -30c32 20 67 37 106 51c39 13 72 20 99 20c56 0 107 -16 132 -48c8 5 16 8 23 11c-1 4 -1 10 -1 17c0 48 23 93 70 136zM1998 -101
c0 -6 -3 -13 -8 -20c23 -5 45 -8 66 -8c71 0 164 30 189 129c5 22 7 42 7 60c0 55 -19 97 -57 126c-24 -35 -56 -58 -96 -71c-32 -67 -92 -104 -167 -104c-8 0 -18 1 -30 2c-1 -3 -3 -7 -4 -14c-1 -5 -1 -11 -1 -20s1 -16 2 -21c63 -5 99 -27 99 -59zM747 498l8 -3
c8 -3 17 -13 17 -21c0 -2 0 -4 -1 -5c-3 -8 -9 -11 -18 -10c-7 0 -12 13 -11 24v10c-9 3 -17 4 -22 4c-32 0 -60 -36 -76 -81l-70 -220c-7 -21 -20 -40 -39 -55c96 -48 163 -72 202 -72h2c59 0 91 34 91 69c0 3 -1 7 -2 12s-5 11 -14 20c-17 -24 -45 -36 -82 -36
c-39 0 -69 39 -66 91c-24 8 -38 34 -38 63c0 13 3 26 8 37c19 37 69 69 122 88c39 13 83 42 88 65c1 8 2 13 2 16c0 33 -27 58 -81 75c-11 -24 -17 -48 -20 -71zM948 -159c-3 -11 -7 -21 -14 -32l10 -10c28 -24 73 -36 134 -36c47 0 95 17 144 51c-33 33 -49 74 -49 123v11
c-39 15 -74 22 -105 22c-59 0 -111 -22 -135 -61c11 -13 17 -29 17 -48c0 -8 -1 -15 -2 -20zM1918 492c-36 0 -72 23 -83 52c-13 -3 -25 -9 -36 -19c10 -7 15 -15 15 -26s-9 -19 -22 -19c-15 0 -23 7 -23 18c0 6 2 11 6 15l13 13c-19 10 -38 15 -55 15h-8
c-36 0 -71 -39 -83 -95l-20 -91h17c30 0 59 8 86 24c27 17 42 34 45 52c-1 11 1 22 9 22c5 0 12 -8 9 -15c-3 -13 -5 -23 -8 -28c-9 -31 -15 -49 -16 -55h67c52 0 103 20 118 72c2 8 3 17 3 26c0 15 -2 29 -7 41c-11 -1 -20 -2 -27 -2zM1134 531c-20 7 -37 10 -51 10
c-37 0 -76 -39 -88 -95l-19 -91h19c60 0 123 32 146 91h2l-21 -91h119c11 37 18 64 22 79c2 7 3 13 3 19c0 27 -20 42 -45 42c-11 0 -22 -4 -34 -12l-4 -1c1 -4 2 -8 2 -11c0 -13 -5 -20 -14 -20c-8 0 -14 8 -10 17c3 7 9 12 18 16c-6 21 -21 36 -45 47zM1656 -142
c0 11 -2 22 -7 33c-73 -34 -135 -51 -186 -51c-36 0 -76 9 -121 28c-36 -24 -69 -45 -100 -62c45 -39 107 -58 185 -58c141 0 229 47 229 110zM1589 577c3 16 5 30 5 42c0 30 -7 59 -21 87c-57 -19 -101 -45 -131 -78c16 -25 24 -51 24 -79c0 -23 -4 -47 -11 -71
c2 -1 5 -1 9 -1c27 0 52 10 77 29c25 20 41 44 48 71zM2100 160c3 13 5 28 5 44c0 53 -29 84 -62 84c-47 0 -79 -43 -80 -95v-9c0 -37 13 -61 39 -72c10 -3 21 -5 32 -5c20 0 38 2 53 7c6 13 10 29 13 46zM1893 -42h-22c-45 0 -95 -12 -152 -37c9 -27 28 -49 56 -64
c28 -16 57 -24 88 -24c53 0 97 22 112 49c-47 14 -74 39 -82 76zM1521 -50c-23 0 -48 -6 -75 -18c-23 -11 -57 -31 -102 -62c46 -19 86 -29 119 -29c19 0 38 3 57 8c20 5 36 11 47 16s28 12 51 23l25 12c-20 32 -66 50 -122 50zM693 -157c11 0 23 2 36 7c15 5 21 8 37 20
c17 11 21 12 40 27l19 15l22 18l21 17c-35 12 -75 18 -120 18c-59 0 -115 -16 -126 -51c-1 -4 -2 -9 -2 -16c0 -35 33 -55 73 -55zM640 655c-69 0 -143 -19 -178 -55c25 -7 43 -20 53 -41c48 18 98 27 150 27c35 0 67 -4 95 -12c7 19 16 37 29 55c-42 17 -92 26 -149 26z
M521 517c0 13 -3 26 -8 38l-7 -3c-26 -12 -47 -24 -62 -37c7 -12 18 -18 33 -18h3l1 -2h-6c-15 0 -27 5 -36 16c-17 -16 -28 -33 -31 -50c-1 -9 -2 -16 -2 -20c0 -24 11 -41 31 -41s39 11 57 34s27 50 27 83zM420 345c-36 0 -74 -9 -113 -28c20 -31 50 -47 90 -47
c41 0 65 11 70 34v5c0 20 -20 36 -47 36zM389 29c-7 -35 -6 -58 -1 -77c45 23 73 58 80 90c1 3 1 8 1 15c0 23 -7 34 -22 34c-21 0 -50 -25 -58 -62zM1229 -180c8 5 21 14 40 29c19 14 34 24 45 30l-54 27c-35 19 -58 30 -71 35c0 -3 -1 -10 -1 -14c0 -41 14 -76 41 -107z
M795 346c-21 0 -39 -23 -54 -68c-6 -21 -10 -36 -11 -47c47 11 78 30 92 58c4 7 6 14 6 21c0 20 -13 36 -33 36zM1462 549c0 28 -8 53 -23 76c-21 -25 -32 -50 -32 -77c0 -35 19 -62 44 -69c7 24 11 47 11 70zM2082 408c16 0 46 17 69 54c-18 12 -40 18 -65 18
c-24 0 -45 -19 -45 -40c0 -20 22 -32 41 -32zM1095 668c2 5 3 10 3 15c0 24 -23 45 -50 53c-10 -15 -17 -29 -20 -42c-1 -5 -2 -11 -2 -18c0 -23 13 -36 26 -36c23 0 38 9 43 28zM1863 91c23 0 37 11 43 33c0 1 1 5 1 6c0 13 -8 26 -23 26c-28 0 -44 -21 -48 -62
c8 -2 17 -3 27 -3zM392 177c0 -21 17 -48 38 -48c15 0 30 11 43 34l-54 29c-7 4 -12 6 -16 6s-11 -5 -11 -21zM1918 494c9 0 18 1 26 3c-13 32 -37 52 -73 52c-6 0 -14 -1 -25 -2c8 -29 37 -53 72 -53zM443 565c-3 -9 -4 -18 -4 -26c0 -7 1 -13 3 -19c16 12 37 23 62 34l8 3
c-11 22 -28 36 -51 41c-9 -9 -15 -20 -18 -33zM1980 -101c0 32 -29 51 -80 58c8 -33 33 -58 76 -73c3 5 4 10 4 15zM1771 170c3 5 6 9 8 14c9 13 14 28 17 38c1 4 2 7 2 8l1 2c3 8 4 16 4 24c0 9 -3 13 -8 13c-8 0 -16 -15 -24 -44c-2 -9 -3 -18 -3 -27s1 -19 3 -28z
M921 -121c-3 -12 -4 -20 -4 -24c0 -17 5 -31 16 -44c9 15 13 32 13 50c0 16 -5 31 -15 45c-5 -7 -8 -16 -10 -27zM1126 164c16 17 25 29 28 48c2 12 3 18 3 19c0 9 -3 13 -10 13c-12 0 -22 -22 -22 -63c0 -8 0 -14 1 -17zM1782 498c0 -8 5 -16 10 -16c11 0 18 8 18 17
c0 11 -5 19 -15 23c-9 -9 -13 -17 -13 -24zM752 491c-2 0 -4 0 -6 1v-9c-1 -11 3 -23 8 -23s9 3 12 9c3 7 -2 14 -13 21zM1480 332c-7 -3 -13 -12 -13 -21c0 -7 3 -11 8 -11c7 0 11 5 11 14c0 7 -2 13 -6 18zM814 179l9 12c1 4 2 7 2 9c1 7 -1 11 -6 11s-11 -9 -11 -16
c0 -5 2 -11 6 -16zM1180 471v9c-7 -3 -12 -7 -15 -13c-1 -1 -1 -3 -1 -5c0 -6 2 -9 7 -9c8 0 9 5 9 18z" />
    <glyph glyph-name="arrowright" unicode="&#x2192;" horiz-adv-x="500" 
d="M370 228h-373l12 68h373l-87 106l51 42l145 -181v-2l-206 -181l-36 41z" />
    <glyph glyph-name="arrowleft" unicode="&#x2190;" horiz-adv-x="500" 
d="M115 296h373l-12 -68h-373l87 -106l-51 -42l-145 181v2l206 181l36 -41z" />
    <glyph glyph-name="arroewup" horiz-adv-x="500" 
d="M293 396l-64 -386h-65l64 386l-123 -106l-35 40l210 180l146 -181l-48 -40z" />
    <glyph glyph-name="arrowdown" unicode="&#x2193;" horiz-adv-x="500" 
d="M201 126l64 386h65l-64 -386l123 106l35 -40l-210 -180l-146 181l48 40z" />
    <glyph glyph-name="arrowNW" horiz-adv-x="500" 
d="M184 380l269 -268l-46 -47l-269 271v-147h-63v248h257v-57h-148z" />
    <glyph glyph-name="arrowNE" horiz-adv-x="500" 
d="M362 336l-269 -271l-46 47l269 268h-148v57h257v-248h-63v147z" />
    <glyph glyph-name="arrowSE" horiz-adv-x="500" 
d="M308 106l-269 268l46 47l269 -271v147h63v-248h-257v57h148z" />
    <glyph glyph-name="arrowSW" horiz-adv-x="500" 
d="M146 150l269 271l46 -47l-269 -268h148v-57h-257v248h63v-147z" />
    <glyph glyph-name="arrowLeftRight" horiz-adv-x="1000" 
d="M853 228h-739l87 -106l-52 -42l-145 181l206 183l36 -41l-121 -107h741l-86 107l53 43l142 -185l-207 -181l-37 42z" />
    <glyph glyph-name="arrowUpDown" horiz-adv-x="750" 
d="M450 600l-127 -759l121 108l34 -46l-209 -181l-146 180l47 45l86 -107l127 760l-121 -106l-35 46l211 178l146 -181l-49 -45z" />
    <glyph glyph-name="arrowright.750" horiz-adv-x="750" 
d="M619 227h-614l11 67h614l-86 107l50 42l145 -184l-206 -180l-37 41z" />
    <glyph glyph-name="arrowup.750" horiz-adv-x="750" 
d="M437 527l-106 -634h-66l106 634l-123 -106l-34 40l210 180l146 -181l-48 -40z" />
    <glyph glyph-name="arrowleft.750" horiz-adv-x="750" 
d="M114 295h614l-11 -67h-614l86 -107l-50 -42l-145 184l206 180l37 -41z" />
    <glyph glyph-name="arrowdown.750" horiz-adv-x="750" 
d="M296 -5l106 634h66l-106 -634l123 106l34 -40l-210 -180l-146 181l48 40z" />
    <glyph glyph-name="arrowNW.750" horiz-adv-x="750" 
d="M208 466l447 -446l-48 -49l-442 442v-149h-65v261h259v-59h-151z" />
    <glyph glyph-name="arrowNE.750" horiz-adv-x="750" 
d="M584 413l-442 -442l-48 49l447 446h-151v59h259v-261h-65v149z" />
    <glyph glyph-name="arrowSE.750" horiz-adv-x="750" 
d="M541 59l-447 446l48 49l442 -442v149h65v-261h-259v59h151z" />
    <glyph glyph-name="arrowSW.750" horiz-adv-x="750" 
d="M165 112l442 442l48 -49l-447 -446h151v-59h-259v261h65v-149z" />
    <glyph glyph-name="arrowCircleLeft" horiz-adv-x="750" 
d="M101 259l87 -108l22 129c12 69 41 124 88 165s106 62 177 62c120 0 187 -60 187 -169c0 -15 -2 -33 -5 -55h-65c2 15 3 29 3 42c0 83 -44 125 -131 125c-101 0 -171 -65 -190 -174l-21 -126l122 108l35 -41l-209 -181l-148 180z" />
    <glyph glyph-name="arrowCircleRight" horiz-adv-x="750" 
d="M516 288l-23 -137l122 108l34 -43l-207 -180l-150 181l49 41l86 -108l22 129c3 20 4 34 4 42c0 83 -49 129 -136 129c-104 0 -161 -56 -184 -167h-66c24 144 124 224 264 224c123 0 189 -60 189 -168c0 -18 -1 -35 -4 -51z" />
    <glyph glyph-name="arrowDubLeft" horiz-adv-x="750" 
d="M262 449l38 -42l-70 -61h436l-9 -51h-484l-37 -32l26 -31h485l-9 -50h-438l51 -62l-52 -43l-147 184z" />
    <glyph glyph-name="arrowDubTop" horiz-adv-x="750" 
d="M590 432l-48 -46l-51 62l-75 -448h-49l83 498l-24 31l-37 -32l-83 -497h-50l75 447l-68 -59l-35 46l212 182z" />
    <glyph glyph-name="arrowDubRight" horiz-adv-x="750" 
d="M81 346h436l-50 61l52 42l149 -188l-210 -184l-38 43l71 62h-438l9 50h486l35 31l-26 32h-485z" />
    <glyph glyph-name="arrowDubDown" horiz-adv-x="750" 
d="M517 604l-75 -448l71 62l34 -46l-212 -184l-152 182l51 46l48 -59l75 447h50l-83 -497l26 -32l35 31l83 498h49z" />
    <glyph glyph-name="triangleBlackLeft" horiz-adv-x="610" 
d="M508 490v-468l-486 236z" />
    <glyph glyph-name="triangleBlackRight" horiz-adv-x="610" 
d="M92 490l486 -232l-486 -236v468z" />
    <glyph glyph-name="triangleWhiteLeft" horiz-adv-x="610" 
d="M134 260l325 -160l1 314zM22 261l486 229v-465l-486 234v2z" />
    <glyph glyph-name="triangleWhiteRight" horiz-adv-x="610" 
d="M466 260l-326 154l1 -314zM578 259l-486 -234v465l486 -229v-2z" />
    <glyph glyph-name="square" horiz-adv-x="610" 
d="M479 500v-349h-349v349h349z" />
    <glyph glyph-name="square.open" horiz-adv-x="610" 
d="M175 196h259v259h-259v-259zM479 500v-349h-349v349h349z" />
    <glyph glyph-name="circle" unicode="&#x25cb;" horiz-adv-x="610" 
d="M407 146c-31 -18 -65 -27 -102 -27c-112 0 -205 92 -205 205s93 205 205 205c73 0 141 -39 177 -102c58 -94 22 -229 -75 -281z" />
    <glyph glyph-name="circle.open" horiz-adv-x="610" 
d="M407 146c-31 -18 -65 -27 -102 -27c-112 0 -205 92 -205 205s93 205 205 205c73 0 141 -39 177 -102c58 -94 22 -229 -75 -281zM305 167c42 0 78 16 107 47c29 32 44 70 44 113s-15 79 -44 108c-29 30 -65 45 -107 45c-43 0 -78 -15 -107 -46s-43 -67 -43 -110
s14 -80 43 -111s64 -46 107 -46z" />
    <glyph glyph-name="triangle.left" horiz-adv-x="425" 
d="M275 434v-231l-185 117z" />
    <glyph glyph-name="triangle" unicode="&#x25b3;" horiz-adv-x="425" 
d="M150 434l185 -114l-185 -117v231z" />
    <glyph glyph-name="raute" horiz-adv-x="610" 
d="M305 535l209 -210l-210 -209l-209 210z" />
    <glyph glyph-name="quotedbl" unicode="&#x22;" horiz-adv-x="373" 
d="M90 720h83v-279h-83v279zM242 720h83v-279h-83v279z" />
    <glyph glyph-name="quotesingle" unicode="'" horiz-adv-x="221" 
d="M90 720h83v-279h-83v279z" />
    <glyph glyph-name="zerosuperior" unicode="&#x2070;" horiz-adv-x="358" 
d="M84 585c19 132 84 192 169 192c72 0 116 -39 116 -131c0 -17 -2 -36 -5 -57c-21 -142 -85 -196 -171 -196c-72 0 -113 38 -113 133c0 19 1 36 4 59zM157 589c-4 -25 -6 -47 -6 -64c0 -57 20 -72 51 -72c36 0 73 26 89 137c3 20 5 37 5 52c0 57 -24 73 -53 73
c-36 0 -70 -25 -86 -126z" />
    <glyph glyph-name="onesuperior" unicode="&#xb9;" horiz-adv-x="255" 
d="M209 400h-70l46 276c-35 -11 -65 -16 -97 -15l1 48c43 9 94 31 129 62h53z" />
    <glyph glyph-name="twosuperior" unicode="&#xb2;" horiz-adv-x="307" 
d="M37 400l8 49l153 138c40 35 62 53 62 89c0 25 -16 38 -49 38s-74 -19 -110 -43l-20 45c41 32 97 61 156 61c63 0 100 -31 100 -84c0 -47 -25 -83 -76 -127l-122 -106h164l-10 -60h-256z" />
    <glyph glyph-name="threesuperior" unicode="&#xb3;" horiz-adv-x="318" 
d="M35 443l38 46c27 -21 52 -36 95 -36c56 0 83 26 83 65c0 29 -21 42 -73 42c-9 0 -30 -1 -34 -2l11 61c64 1 103 21 103 66c0 24 -20 32 -51 32s-63 -10 -91 -25l-14 48c35 20 78 37 131 37c64 0 100 -25 100 -76s-36 -91 -89 -106c59 -5 80 -36 80 -76
c0 -80 -69 -126 -158 -126c-55 0 -100 15 -131 50z" />
    <glyph glyph-name="foursuperior" unicode="&#x2074;" horiz-adv-x="337" 
d="M276 707l-143 -178h114zM225 400l12 72h-182l9 55l199 244h93l-40 -242h40l-10 -57h-40l-12 -72h-69z" />
    <glyph glyph-name="fivesuperior" unicode="&#x2075;" horiz-adv-x="323" 
d="M85 528l58 243h208l-14 -60h-149l-25 -99c19 11 45 24 84 24c60 0 89 -35 89 -90c0 -95 -74 -153 -166 -153c-47 0 -92 14 -123 41l31 45c29 -17 62 -28 93 -28c59 0 93 27 93 83c0 30 -16 45 -49 45c-27 0 -49 -12 -66 -23l-7 -28h-57z" />
    <glyph glyph-name="sixsuperior" unicode="&#x2076;" horiz-adv-x="333" 
d="M74 522c0 140 71 254 200 254c35 0 69 -8 98 -29l-30 -47c-21 14 -43 21 -68 21c-69 0 -110 -57 -125 -129c29 29 65 44 106 44c64 0 91 -43 91 -94c0 -97 -71 -149 -158 -149c-81 0 -114 49 -114 129zM231 579c-35 0 -65 -16 -88 -39c-4 -55 10 -91 55 -91s82 24 82 81
c0 32 -18 49 -49 49z" />
    <glyph glyph-name="sevensuperior" unicode="&#x2077;" horiz-adv-x="291" 
d="M344 727l-200 -327h-72l1 7l190 304h-183l10 60h261z" />
    <glyph glyph-name="eightsuperior" unicode="&#x2078;" horiz-adv-x="330" 
d="M124 490c0 -27 21 -42 62 -42c48 0 82 25 82 62c0 28 -20 41 -68 62c-43 -23 -76 -43 -76 -82zM174 680c0 -25 24 -37 57 -53c28 15 60 39 60 67c0 23 -16 35 -49 35c-45 0 -68 -16 -68 -49zM57 480c0 62 49 96 101 117c-31 15 -53 38 -53 73c0 64 58 107 145 107
c68 0 105 -26 105 -73s-34 -81 -81 -101c45 -20 65 -44 65 -83c0 -80 -67 -127 -160 -127c-77 0 -122 32 -122 87z" />
    <glyph glyph-name="ninesuperior" unicode="&#x2079;" horiz-adv-x="333" 
d="M354 650c0 -143 -67 -257 -200 -257c-35 0 -70 8 -95 27l28 50c21 -13 44 -21 76 -21c60 0 108 49 121 122c-31 -29 -71 -40 -111 -40c-64 0 -92 45 -92 96c0 97 73 149 160 149c80 0 113 -49 113 -126zM198 584c33 0 66 22 89 42c5 60 -9 95 -56 95s-83 -27 -83 -86
c0 -34 17 -51 50 -51z" />
    <glyph glyph-name="zeroinferior" unicode="&#x2080;" horiz-adv-x="358" 
d="M6 89c19 132 84 192 169 192c72 0 116 -39 116 -131c0 -17 -2 -36 -5 -57c-21 -142 -85 -196 -171 -196c-72 0 -113 38 -113 133c0 19 1 36 4 59zM79 93c-4 -25 -6 -47 -6 -64c0 -57 20 -72 51 -72c36 0 73 26 89 137c3 20 5 37 5 52c0 57 -24 73 -53 73
c-36 0 -70 -25 -86 -126z" />
    <glyph glyph-name="oneinferior" unicode="&#x2081;" horiz-adv-x="255" 
d="M141 -96h-70l46 276c-35 -11 -65 -16 -97 -15l1 48c43 9 94 31 129 62h53z" />
    <glyph glyph-name="twoinferior" unicode="&#x2082;" horiz-adv-x="307" 
d="M-39 -96l8 49l153 138c40 35 62 53 62 89c0 25 -16 38 -49 38s-74 -19 -110 -43l-20 45c41 32 97 61 156 61c63 0 100 -31 100 -84c0 -47 -25 -83 -76 -127l-122 -106h164l-10 -60h-256z" />
    <glyph glyph-name="threeinferior" unicode="&#x2083;" horiz-adv-x="318" 
d="M-39 -53l38 46c27 -21 52 -36 95 -36c56 0 83 26 83 65c0 29 -21 42 -73 42c-9 0 -30 -1 -34 -2l11 61c64 1 103 21 103 66c0 24 -20 32 -51 32s-63 -10 -91 -25l-14 48c35 20 78 37 131 37c64 0 100 -25 100 -76s-36 -91 -89 -106c59 -5 80 -36 80 -76
c0 -80 -69 -126 -158 -126c-55 0 -100 15 -131 50z" />
    <glyph glyph-name="fourinferior" unicode="&#x2084;" horiz-adv-x="337" 
d="M193 211l-143 -178h114zM142 -96l12 72h-182l9 55l199 244h93l-40 -242h40l-10 -57h-40l-12 -72h-69z" />
    <glyph glyph-name="fiveinferior" unicode="&#x2085;" horiz-adv-x="324" 
d="M4 32l58 243h208l-14 -60h-149l-25 -99c19 11 45 24 84 24c60 0 89 -35 89 -90c0 -95 -74 -153 -166 -153c-47 0 -92 14 -123 41l31 45c29 -17 62 -28 93 -28c59 0 93 27 93 83c0 30 -16 45 -49 45c-27 0 -49 -12 -66 -23l-7 -28h-57z" />
    <glyph glyph-name="sixinferior" unicode="&#x2086;" horiz-adv-x="333" 
d="M-1 26c0 140 71 254 200 254c35 0 69 -8 98 -29l-30 -47c-21 14 -43 21 -68 21c-69 0 -110 -57 -125 -129c29 29 65 44 106 44c64 0 91 -43 91 -94c0 -97 -71 -149 -158 -149c-81 0 -114 49 -114 129zM156 83c-35 0 -65 -16 -88 -39c-4 -55 10 -91 55 -91s82 24 82 81
c0 32 -18 49 -49 49z" />
    <glyph glyph-name="seveninferior" unicode="&#x2087;" horiz-adv-x="291" 
d="M267 231l-200 -327h-72l1 7l190 304h-183l10 60h261z" />
    <glyph glyph-name="eightinferior" unicode="&#x2088;" horiz-adv-x="331" 
d="M49 -6c0 -27 21 -42 62 -42c48 0 82 25 82 62c0 28 -20 41 -68 62c-43 -23 -76 -43 -76 -82zM99 184c0 -25 24 -37 57 -53c28 15 60 39 60 67c0 23 -16 35 -49 35c-45 0 -68 -16 -68 -49zM-18 -16c0 62 49 96 101 117c-31 15 -53 38 -53 73c0 64 58 107 145 107
c68 0 105 -26 105 -73s-34 -81 -81 -101c45 -20 65 -44 65 -83c0 -80 -67 -127 -160 -127c-77 0 -122 32 -122 87z" />
    <glyph glyph-name="nineinferior" unicode="&#x2089;" horiz-adv-x="333" 
d="M277 154c0 -143 -67 -257 -200 -257c-35 0 -70 8 -95 27l28 50c21 -13 44 -21 76 -21c60 0 108 49 121 122c-31 -29 -71 -40 -111 -40c-64 0 -92 45 -92 96c0 97 73 149 160 149c80 0 113 -49 113 -126zM121 88c33 0 66 22 89 42c5 60 -9 95 -56 95s-83 -27 -83 -86
c0 -34 17 -51 50 -51z" />
    <glyph glyph-name="zero.num" horiz-adv-x="358" 
d="M71 535c19 132 84 192 169 192c72 0 116 -39 116 -131c0 -17 -2 -36 -5 -57c-21 -142 -85 -196 -171 -196c-72 0 -113 38 -113 133c0 19 1 36 4 59zM144 539c-4 -25 -6 -47 -6 -64c0 -57 20 -72 51 -72c36 0 73 26 89 137c3 20 5 37 5 52c0 57 -24 73 -53 73
c-36 0 -70 -25 -86 -126z" />
    <glyph glyph-name="one.num" horiz-adv-x="255" 
d="M205 350h-70l46 276c-35 -11 -65 -16 -97 -15l1 48c43 9 94 31 129 62h53z" />
    <glyph glyph-name="two.num" horiz-adv-x="307" 
d="M26 350l8 49l153 138c40 35 62 53 62 89c0 25 -16 38 -49 38s-74 -19 -110 -43l-20 45c41 32 97 61 156 61c63 0 100 -31 100 -84c0 -47 -25 -83 -76 -127l-122 -106h164l-10 -60h-256z" />
    <glyph glyph-name="three.num" horiz-adv-x="318" 
d="M25 393l38 46c27 -21 52 -36 95 -36c56 0 83 26 83 65c0 29 -21 42 -73 42c-9 0 -30 -1 -34 -2l11 61c64 1 103 21 103 66c0 24 -20 32 -51 32s-63 -10 -91 -25l-14 48c35 20 78 37 131 37c64 0 100 -25 100 -76s-36 -91 -89 -106c59 -5 80 -36 80 -76
c0 -80 -69 -126 -158 -126c-55 0 -100 15 -131 50z" />
    <glyph glyph-name="four.num" horiz-adv-x="337" 
d="M258 657l-143 -178h114zM207 350l12 72h-182l9 55l199 244h93l-40 -242h40l-10 -57h-40l-12 -72h-69z" />
    <glyph glyph-name="five.num" horiz-adv-x="324" 
d="M73 478l58 243h208l-14 -60h-149l-25 -99c19 11 45 24 84 24c60 0 89 -35 89 -90c0 -95 -74 -153 -166 -153c-47 0 -92 14 -123 41l31 45c29 -17 62 -28 93 -28c59 0 93 27 93 83c0 30 -16 45 -49 45c-27 0 -49 -12 -66 -23l-7 -28h-57z" />
    <glyph glyph-name="six.num" horiz-adv-x="333" 
d="M63 472c0 140 71 254 200 254c35 0 69 -8 98 -29l-30 -47c-21 14 -43 21 -68 21c-69 0 -110 -57 -125 -129c29 29 65 44 106 44c64 0 91 -43 91 -94c0 -97 -71 -149 -158 -149c-81 0 -114 49 -114 129zM220 529c-35 0 -65 -16 -88 -39c-4 -55 10 -91 55 -91s82 24 82 81
c0 32 -18 49 -49 49z" />
    <glyph glyph-name="seven.num" horiz-adv-x="291" 
d="M331 677l-200 -327h-72l1 7l190 304h-183l10 60h261z" />
    <glyph glyph-name="eight.num" horiz-adv-x="331" 
d="M114 440c0 -27 21 -42 62 -42c48 0 82 25 82 62c0 28 -20 41 -68 62c-43 -23 -76 -43 -76 -82zM164 630c0 -25 24 -37 57 -53c28 15 60 39 60 67c0 23 -16 35 -49 35c-45 0 -68 -16 -68 -49zM47 430c0 62 49 96 101 117c-31 15 -53 38 -53 73c0 64 58 107 145 107
c68 0 105 -26 105 -73s-34 -81 -81 -101c45 -20 65 -44 65 -83c0 -80 -67 -127 -160 -127c-77 0 -122 32 -122 87z" />
    <glyph glyph-name="nine.num" horiz-adv-x="333" 
d="M341 600c0 -143 -67 -257 -200 -257c-35 0 -70 8 -95 27l28 50c21 -13 44 -21 76 -21c60 0 108 49 121 122c-31 -29 -71 -40 -111 -40c-64 0 -92 45 -92 96c0 97 73 149 160 149c80 0 113 -49 113 -126zM185 534c33 0 66 22 89 42c5 60 -9 95 -56 95s-83 -27 -83 -86
c0 -34 17 -51 50 -51z" />
    <glyph glyph-name="zero.denom" horiz-adv-x="358" 
d="M22 185c19 132 84 192 169 192c72 0 116 -39 116 -131c0 -17 -2 -36 -5 -57c-21 -142 -85 -196 -171 -196c-72 0 -113 38 -113 133c0 19 1 36 4 59zM95 189c-4 -25 -6 -47 -6 -64c0 -57 20 -72 51 -72c36 0 73 26 89 137c3 20 5 37 5 52c0 57 -24 73 -53 73
c-36 0 -70 -25 -86 -126z" />
    <glyph glyph-name="one.denom" horiz-adv-x="255" 
d="M148 0h-70l46 276c-35 -11 -65 -16 -97 -15l1 48c43 9 94 31 129 62h53z" />
    <glyph glyph-name="two.denom" horiz-adv-x="307" 
d="M-23 0l8 49l153 138c40 35 62 53 62 89c0 25 -16 38 -49 38s-74 -19 -110 -43l-20 45c41 32 97 61 156 61c63 0 100 -31 100 -84c0 -47 -25 -83 -76 -127l-122 -106h164l-10 -60h-256z" />
    <glyph glyph-name="three.denom" horiz-adv-x="318" 
d="M-24 43l38 46c27 -21 52 -36 95 -36c56 0 83 26 83 65c0 29 -21 42 -73 42c-9 0 -30 -1 -34 -2l11 61c64 1 103 21 103 66c0 24 -20 32 -51 32s-63 -10 -91 -25l-14 48c35 20 78 37 131 37c64 0 100 -25 100 -76s-36 -91 -89 -106c59 -5 80 -36 80 -76
c0 -80 -69 -126 -158 -126c-55 0 -100 15 -131 50z" />
    <glyph glyph-name="four.denom" horiz-adv-x="337" 
d="M209 307l-143 -178h114zM158 0l12 72h-182l9 55l199 244h93l-40 -242h40l-10 -57h-40l-12 -72h-69z" />
    <glyph glyph-name="five.denom" horiz-adv-x="324" 
d="M23 128l58 243h208l-14 -60h-149l-25 -99c19 11 45 24 84 24c60 0 89 -35 89 -90c0 -95 -74 -153 -166 -153c-47 0 -92 14 -123 41l31 45c29 -17 62 -28 93 -28c59 0 93 27 93 83c0 30 -16 45 -49 45c-27 0 -49 -12 -66 -23l-7 -28h-57z" />
    <glyph glyph-name="six.denom" horiz-adv-x="333" 
d="M15 122c0 140 71 254 200 254c35 0 69 -8 98 -29l-30 -47c-21 14 -43 21 -68 21c-69 0 -110 -57 -125 -129c29 29 65 44 106 44c64 0 91 -43 91 -94c0 -97 -71 -149 -158 -149c-81 0 -114 49 -114 129zM172 179c-35 0 -65 -16 -88 -39c-4 -55 10 -91 55 -91s82 24 82 81
c0 32 -18 49 -49 49z" />
    <glyph glyph-name="seven.denom" horiz-adv-x="291" 
d="M281 327l-200 -327h-72l1 7l190 304h-183l10 60h261z" />
    <glyph glyph-name="eight.denom" horiz-adv-x="331" 
d="M65 90c0 -27 21 -42 62 -42c48 0 82 25 82 62c0 28 -20 41 -68 62c-43 -23 -76 -43 -76 -82zM115 280c0 -25 24 -37 57 -53c28 15 60 39 60 67c0 23 -16 35 -49 35c-45 0 -68 -16 -68 -49zM-2 80c0 62 49 96 101 117c-31 15 -53 38 -53 73c0 64 58 107 145 107
c68 0 105 -26 105 -73s-34 -81 -81 -101c45 -20 65 -44 65 -83c0 -80 -67 -127 -160 -127c-77 0 -122 32 -122 87z" />
    <glyph glyph-name="nine.denom" horiz-adv-x="333" 
d="M296 250c0 -143 -67 -257 -200 -257c-35 0 -70 8 -95 27l28 50c21 -13 44 -21 76 -21c60 0 108 49 121 122c-31 -29 -71 -40 -111 -40c-64 0 -92 45 -92 96c0 97 73 149 160 149c80 0 113 -49 113 -126zM140 184c33 0 66 22 89 42c5 60 -9 95 -56 95s-83 -27 -83 -86
c0 -34 17 -51 50 -51z" />
    <glyph glyph-name="onethird" unicode="&#x2153;" horiz-adv-x="827" 
d="M144 -1h-72l547 721h72zM201 350h-70l46 276c-35 -11 -65 -16 -97 -15l1 48c43 9 94 31 129 62h53zM468 43l38 46c27 -21 52 -36 95 -36c56 0 83 26 83 65c0 29 -21 42 -73 42c-9 0 -30 -1 -34 -2l11 61c64 1 103 21 103 66c0 24 -20 32 -51 32s-63 -10 -91 -25l-14 48
c35 20 78 37 131 37c64 0 100 -25 100 -76s-36 -91 -89 -106c59 -5 80 -36 80 -76c0 -80 -69 -126 -158 -126c-55 0 -100 15 -131 50z" />
    <glyph glyph-name="twothirds" unicode="&#x2154;" horiz-adv-x="827" 
d="M238 -1h-72l547 721h72zM104 350l8 49l153 138c40 35 62 53 62 89c0 25 -16 38 -49 38s-74 -19 -110 -43l-20 45c41 32 97 61 156 61c63 0 100 -31 100 -84c0 -47 -25 -83 -76 -127l-122 -106h164l-10 -60h-256zM505 43l38 46c27 -21 52 -36 95 -36c56 0 83 26 83 65
c0 29 -21 42 -73 42c-9 0 -30 -1 -34 -2l11 61c64 1 103 21 103 66c0 24 -20 32 -51 32s-63 -10 -91 -25l-14 48c35 20 78 37 131 37c64 0 100 -25 100 -76s-36 -91 -89 -106c59 -5 80 -36 80 -76c0 -80 -69 -126 -158 -126c-55 0 -100 15 -131 50z" />
    <glyph glyph-name="onefifth" horiz-adv-x="827" 
d="M148 -1h-72l547 721h72zM225 350h-70l46 276c-35 -11 -65 -16 -97 -15l1 48c43 9 94 31 129 62h53zM502 128l58 243h208l-14 -60h-149l-25 -99c19 11 45 24 84 24c60 0 89 -35 89 -90c0 -95 -74 -153 -166 -153c-47 0 -92 14 -123 41l31 45c29 -17 62 -28 93 -28
c59 0 93 27 93 83c0 30 -16 45 -49 45c-27 0 -49 -12 -66 -23l-7 -28h-57z" />
    <glyph glyph-name="twofifths" horiz-adv-x="827" 
d="M210 -1h-72l547 721h72zM64 350l8 49l153 138c40 35 62 53 62 89c0 25 -16 38 -49 38s-74 -19 -110 -43l-20 45c41 32 97 61 156 61c63 0 100 -31 100 -84c0 -47 -25 -83 -76 -127l-122 -106h164l-10 -60h-256zM523 128l58 243h208l-14 -60h-149l-25 -99
c19 11 45 24 84 24c60 0 89 -35 89 -90c0 -95 -74 -153 -166 -153c-47 0 -92 14 -123 41l31 45c29 -17 62 -28 93 -28c59 0 93 27 93 83c0 30 -16 45 -49 45c-27 0 -49 -12 -66 -23l-7 -28h-57z" />
    <glyph glyph-name="threefifths" horiz-adv-x="827" 
d="M201 -1h-72l547 721h72zM515 128l58 243h208l-14 -60h-149l-25 -99c19 11 45 24 84 24c60 0 89 -35 89 -90c0 -95 -74 -153 -166 -153c-47 0 -92 14 -123 41l31 45c29 -17 62 -28 93 -28c59 0 93 27 93 83c0 30 -16 45 -49 45c-27 0 -49 -12 -66 -23l-7 -28h-57zM65 393
l38 46c27 -21 52 -36 95 -36c56 0 83 26 83 65c0 29 -21 42 -73 42c-9 0 -30 -1 -34 -2l11 61c64 1 103 21 103 66c0 24 -20 32 -51 32s-63 -10 -91 -25l-14 48c35 20 78 37 131 37c64 0 100 -25 100 -76s-36 -91 -89 -106c59 -5 80 -36 80 -76c0 -80 -69 -126 -158 -126
c-55 0 -100 15 -131 50z" />
    <glyph glyph-name="fourfifths" horiz-adv-x="827" 
d="M207 -1h-72l547 721h72zM527 128l58 243h208l-14 -60h-149l-25 -99c19 11 45 24 84 24c60 0 89 -35 89 -90c0 -95 -74 -153 -166 -153c-47 0 -92 14 -123 41l31 45c29 -17 62 -28 93 -28c59 0 93 27 93 83c0 30 -16 45 -49 45c-27 0 -49 -12 -66 -23l-7 -28h-57zM281 657
l-143 -178h114zM230 350l12 72h-182l9 55l199 244h93l-40 -242h40l-10 -57h-40l-12 -72h-69z" />
    <glyph glyph-name="onesixth" horiz-adv-x="827" 
d="M134 -1h-72l547 721h72zM209 350h-70l46 276c-35 -11 -65 -16 -97 -15l1 48c43 9 94 31 129 62h53zM466 122c0 140 71 254 200 254c35 0 69 -8 98 -29l-30 -47c-21 14 -43 21 -68 21c-69 0 -110 -57 -125 -129c29 29 65 44 106 44c64 0 91 -43 91 -94
c0 -97 -71 -149 -158 -149c-81 0 -114 49 -114 129zM623 179c-35 0 -65 -16 -88 -39c-4 -55 10 -91 55 -91s82 24 82 81c0 32 -18 49 -49 49z" />
    <glyph glyph-name="fivesixths" horiz-adv-x="827" 
d="M184 -1h-72l547 721h72zM482 122c0 140 71 254 200 254c35 0 69 -8 98 -29l-30 -47c-21 14 -43 21 -68 21c-69 0 -110 -57 -125 -129c29 29 65 44 106 44c64 0 91 -43 91 -94c0 -97 -71 -149 -158 -149c-81 0 -114 49 -114 129zM639 179c-35 0 -65 -16 -88 -39
c-4 -55 10 -91 55 -91s82 24 82 81c0 32 -18 49 -49 49zM97 478l58 243h208l-14 -60h-149l-25 -99c19 11 45 24 84 24c60 0 89 -35 89 -90c0 -95 -74 -153 -166 -153c-47 0 -92 14 -123 41l31 45c29 -17 62 -28 93 -28c59 0 93 27 93 83c0 30 -16 45 -49 45
c-27 0 -49 -12 -66 -23l-7 -28h-57z" />
    <glyph glyph-name="oneeighth" unicode="&#x215b;" horiz-adv-x="827" 
d="M150 -1h-72l547 721h72zM206 350h-70l46 276c-35 -11 -65 -16 -97 -15l1 48c43 9 94 31 129 62h53zM534 90c0 -27 21 -42 62 -42c48 0 82 25 82 62c0 28 -20 41 -68 62c-43 -23 -76 -43 -76 -82zM584 280c0 -25 24 -37 57 -53c28 15 60 39 60 67c0 23 -16 35 -49 35
c-45 0 -68 -16 -68 -49zM467 80c0 62 49 96 101 117c-31 15 -53 38 -53 73c0 64 58 107 145 107c68 0 105 -26 105 -73s-34 -81 -81 -101c45 -20 65 -44 65 -83c0 -80 -67 -127 -160 -127c-77 0 -122 32 -122 87z" />
    <glyph glyph-name="threeeighths" unicode="&#x215c;" horiz-adv-x="827" 
d="M183 -1h-72l547 721h72zM545 90c0 -27 21 -42 62 -42c48 0 82 25 82 62c0 28 -20 41 -68 62c-43 -23 -76 -43 -76 -82zM595 280c0 -25 24 -37 57 -53c28 15 60 39 60 67c0 23 -16 35 -49 35c-45 0 -68 -16 -68 -49zM478 80c0 62 49 96 101 117c-31 15 -53 38 -53 73
c0 64 58 107 145 107c68 0 105 -26 105 -73s-34 -81 -81 -101c45 -20 65 -44 65 -83c0 -80 -67 -127 -160 -127c-77 0 -122 32 -122 87zM34 393l38 46c27 -21 52 -36 95 -36c56 0 83 26 83 65c0 29 -21 42 -73 42c-9 0 -30 -1 -34 -2l11 61c64 1 103 21 103 66
c0 24 -20 32 -51 32s-63 -10 -91 -25l-14 48c35 20 78 37 131 37c64 0 100 -25 100 -76s-36 -91 -89 -106c59 -5 80 -36 80 -76c0 -80 -69 -126 -158 -126c-55 0 -100 15 -131 50z" />
    <glyph glyph-name="fiveeighths" unicode="&#x215d;" horiz-adv-x="827" 
d="M191 -1h-72l547 721h72zM95 478l58 243h208l-14 -60h-149l-25 -99c19 11 45 24 84 24c60 0 89 -35 89 -90c0 -95 -74 -153 -166 -153c-47 0 -92 14 -123 41l31 45c29 -17 62 -28 93 -28c59 0 93 27 93 83c0 30 -16 45 -49 45c-27 0 -49 -12 -66 -23l-7 -28h-57zM547 90
c0 -27 21 -42 62 -42c48 0 82 25 82 62c0 28 -20 41 -68 62c-43 -23 -76 -43 -76 -82zM597 280c0 -25 24 -37 57 -53c28 15 60 39 60 67c0 23 -16 35 -49 35c-45 0 -68 -16 -68 -49zM480 80c0 62 49 96 101 117c-31 15 -53 38 -53 73c0 64 58 107 145 107
c68 0 105 -26 105 -73s-34 -81 -81 -101c45 -20 65 -44 65 -83c0 -80 -67 -127 -160 -127c-77 0 -122 32 -122 87z" />
    <glyph glyph-name="seveneighths" unicode="&#x215e;" horiz-adv-x="827" 
d="M156 -1h-72l547 721h72zM540 90c0 -27 21 -42 62 -42c48 0 82 25 82 62c0 28 -20 41 -68 62c-43 -23 -76 -43 -76 -82zM590 280c0 -25 24 -37 57 -53c28 15 60 39 60 67c0 23 -16 35 -49 35c-45 0 -68 -16 -68 -49zM473 80c0 62 49 96 101 117c-31 15 -53 38 -53 73
c0 64 58 107 145 107c68 0 105 -26 105 -73s-34 -81 -81 -101c45 -20 65 -44 65 -83c0 -80 -67 -127 -160 -127c-77 0 -122 32 -122 87zM389 677l-200 -327h-72l1 7l190 304h-183l10 60h261z" />
    <glyph glyph-name="oneseventh" horiz-adv-x="827" 
d="M137 -1h-72l547 721h72zM217 350h-70l46 276c-35 -11 -65 -16 -97 -15l1 48c43 9 94 31 129 62h53zM785 327l-200 -327h-72l1 7l190 304h-183l10 60h261z" />
    <glyph glyph-name="twosevenths" horiz-adv-x="827" 
d="M201 -1h-72l547 721h72zM54 350l8 49l153 138c40 35 62 53 62 89c0 25 -16 38 -49 38s-74 -19 -110 -43l-20 45c41 32 97 61 156 61c63 0 100 -31 100 -84c0 -47 -25 -83 -76 -127l-122 -106h164l-10 -60h-256zM808 327l-200 -327h-72l1 7l190 304h-183l10 60h261z" />
    <glyph glyph-name="threesevenths" horiz-adv-x="827" 
d="M182 -1h-72l547 721h72zM804 327l-200 -327h-72l1 7l190 304h-183l10 60h261zM47 393l38 46c27 -21 52 -36 95 -36c56 0 83 26 83 65c0 29 -21 42 -73 42c-9 0 -30 -1 -34 -2l11 61c64 1 103 21 103 66c0 24 -20 32 -51 32s-63 -10 -91 -25l-14 48c35 20 78 37 131 37
c64 0 100 -25 100 -76s-36 -91 -89 -106c59 -5 80 -36 80 -76c0 -80 -69 -126 -158 -126c-55 0 -100 15 -131 50z" />
    <glyph glyph-name="foursevenths" horiz-adv-x="827" 
d="M189 -1h-72l547 721h72zM267 657l-143 -178h114zM216 350l12 72h-182l9 55l199 244h93l-40 -242h40l-10 -57h-40l-12 -72h-69zM807 327l-200 -327h-72l1 7l190 304h-183l10 60h261z" />
    <glyph glyph-name="fivesevenths" horiz-adv-x="827" 
d="M180 -1h-72l547 721h72zM93 478l58 243h208l-14 -60h-149l-25 -99c19 11 45 24 84 24c60 0 89 -35 89 -90c0 -95 -74 -153 -166 -153c-47 0 -92 14 -123 41l31 45c29 -17 62 -28 93 -28c59 0 93 27 93 83c0 30 -16 45 -49 45c-27 0 -49 -12 -66 -23l-7 -28h-57zM803 327
l-200 -327h-72l1 7l190 304h-183l10 60h261z" />
    <glyph glyph-name="sixsevenths" horiz-adv-x="827" 
d="M188 -1h-72l547 721h72zM75 472c0 140 71 254 200 254c35 0 69 -8 98 -29l-30 -47c-21 14 -43 21 -68 21c-69 0 -110 -57 -125 -129c29 29 65 44 106 44c64 0 91 -43 91 -94c0 -97 -71 -149 -158 -149c-81 0 -114 49 -114 129zM232 529c-35 0 -65 -16 -88 -39
c-4 -55 10 -91 55 -91s82 24 82 81c0 32 -18 49 -49 49zM816 327l-200 -327h-72l1 7l190 304h-183l10 60h261z" />
    <glyph glyph-name="oneninth" horiz-adv-x="827" 
d="M157 -1h-72l547 721h72zM230 350h-70l46 276c-35 -11 -65 -16 -97 -15l1 48c43 9 94 31 129 62h53zM768 250c0 -143 -67 -257 -200 -257c-35 0 -70 8 -95 27l28 50c21 -13 44 -21 76 -21c60 0 108 49 121 122c-31 -29 -71 -40 -111 -40c-64 0 -92 45 -92 96
c0 97 73 149 160 149c80 0 113 -49 113 -126zM612 184c33 0 66 22 89 42c5 60 -9 95 -56 95s-83 -27 -83 -86c0 -34 17 -51 50 -51z" />
    <glyph glyph-name="twoninths" horiz-adv-x="827" 
d="M187 -1h-72l547 721h72zM40 350l8 49l153 138c40 35 62 53 62 89c0 25 -16 38 -49 38s-74 -19 -110 -43l-20 45c41 32 97 61 156 61c63 0 100 -31 100 -84c0 -47 -25 -83 -76 -127l-122 -106h164l-10 -60h-256zM773 250c0 -143 -67 -257 -200 -257c-35 0 -70 8 -95 27
l28 50c21 -13 44 -21 76 -21c60 0 108 49 121 122c-31 -29 -71 -40 -111 -40c-64 0 -92 45 -92 96c0 97 73 149 160 149c80 0 113 -49 113 -126zM617 184c33 0 66 22 89 42c5 60 -9 95 -56 95s-83 -27 -83 -86c0 -34 17 -51 50 -51z" />
    <glyph glyph-name="fourninths" horiz-adv-x="827" 
d="M189 -1h-72l547 721h72zM268 657l-143 -178h114zM217 350l12 72h-182l9 55l199 244h93l-40 -242h40l-10 -57h-40l-12 -72h-69zM778 250c0 -143 -67 -257 -200 -257c-35 0 -70 8 -95 27l28 50c21 -13 44 -21 76 -21c60 0 108 49 121 122c-31 -29 -71 -40 -111 -40
c-64 0 -92 45 -92 96c0 97 73 149 160 149c80 0 113 -49 113 -126zM622 184c33 0 66 22 89 42c5 60 -9 95 -56 95s-83 -27 -83 -86c0 -34 17 -51 50 -51z" />
    <glyph glyph-name="fiveninths" horiz-adv-x="827" 
d="M182 -1h-72l547 721h72zM95 478l58 243h208l-14 -60h-149l-25 -99c19 11 45 24 84 24c60 0 89 -35 89 -90c0 -95 -74 -153 -166 -153c-47 0 -92 14 -123 41l31 45c29 -17 62 -28 93 -28c59 0 93 27 93 83c0 30 -16 45 -49 45c-27 0 -49 -12 -66 -23l-7 -28h-57zM769 250
c0 -143 -67 -257 -200 -257c-35 0 -70 8 -95 27l28 50c21 -13 44 -21 76 -21c60 0 108 49 121 122c-31 -29 -71 -40 -111 -40c-64 0 -92 45 -92 96c0 97 73 149 160 149c80 0 113 -49 113 -126zM613 184c33 0 66 22 89 42c5 60 -9 95 -56 95s-83 -27 -83 -86
c0 -34 17 -51 50 -51z" />
    <glyph glyph-name="sevenninths" horiz-adv-x="827" 
d="M122 -1h-72l547 721h72zM764 250c0 -143 -67 -257 -200 -257c-35 0 -70 8 -95 27l28 50c21 -13 44 -21 76 -21c60 0 108 49 121 122c-31 -29 -71 -40 -111 -40c-64 0 -92 45 -92 96c0 97 73 149 160 149c80 0 113 -49 113 -126zM608 184c33 0 66 22 89 42
c5 60 -9 95 -56 95s-83 -27 -83 -86c0 -34 17 -51 50 -51zM356 677l-200 -327h-72l1 7l190 304h-183l10 60h261z" />
    <glyph glyph-name="eightninths" horiz-adv-x="827" 
d="M181 -1h-72l547 721h72zM757 250c0 -143 -67 -257 -200 -257c-35 0 -70 8 -95 27l28 50c21 -13 44 -21 76 -21c60 0 108 49 121 122c-31 -29 -71 -40 -111 -40c-64 0 -92 45 -92 96c0 97 73 149 160 149c80 0 113 -49 113 -126zM601 184c33 0 66 22 89 42
c5 60 -9 95 -56 95s-83 -27 -83 -86c0 -34 17 -51 50 -51zM131 440c0 -27 21 -42 62 -42c48 0 82 25 82 62c0 28 -20 41 -68 62c-43 -23 -76 -43 -76 -82zM181 630c0 -25 24 -37 57 -53c28 15 60 39 60 67c0 23 -16 35 -49 35c-45 0 -68 -16 -68 -49zM64 430
c0 62 49 96 101 117c-31 15 -53 38 -53 73c0 64 58 107 145 107c68 0 105 -26 105 -73s-34 -81 -81 -101c45 -20 65 -44 65 -83c0 -80 -67 -127 -160 -127c-77 0 -122 32 -122 87z" />
    </font>
</defs>
</svg>
